<?xml version="1.0" encoding="UTF-8"?>
<svg width="40px" height="40px" viewBox="0 0 40 40" version="1.1" xmlns="http://www.w3.org/2000/svg" xmlns:xlink="http://www.w3.org/1999/xlink">
    <!-- Generator: Sketch 43 (38999) - http://www.bohemiancoding.com/sketch -->
    <title>工商银行</title>
    <desc>Created with Sketch.</desc>
    <defs></defs>
    <g id="Page-1" stroke="none" stroke-width="1" fill="none" fill-rule="evenodd">
        <g id="银行卡管理" transform="translate(-27.000000, -95.000000)" fill="#CC1E25">
            <path d="M47.0012368,134.999615 C35.9562929,134.999615 27,126.045576 27,114.999973 C27,103.952005 35.9562929,95 47.0012368,95 C58.047335,95 67,103.952005 67,114.999973 C67,126.045521 58.047335,134.999615 47.0012368,134.999615 Z M47.0012368,97.5735311 C37.379656,97.5735311 29.5762796,105.375973 29.5762796,114.999973 C29.5762796,124.620344 37.3796011,132.425205 47.0012368,132.425205 C56.6264455,132.425205 64.427953,124.620344 64.427953,114.999973 C64.427953,105.375973 56.6264455,97.5735311 47.0012368,97.5735311 Z M47.6725712,123.46248 L55.3910758,123.46248 L55.3910758,119.778963 L47.6725712,119.778963 L47.6725712,111.083663 L55.3910758,111.083663 L55.3910758,108.071865 L47.6725712,108.071865 L47.6725712,104.886421 L58.5496403,104.886421 L58.5496403,113.922089 L50.6706267,113.922089 L50.6706267,116.560263 L58.5496403,116.560263 L58.5496403,126.300851 L47.6725712,126.300851 L47.6725712,123.46248 Z M35.4545923,116.560318 L43.3317919,116.560318 L43.3317919,113.922089 L35.4545923,113.922089 L35.4545923,104.886421 L46.3334753,104.886421 L46.3334753,108.071865 L38.6094739,108.071865 L38.6094739,111.083663 L46.3334753,111.083663 L46.3334753,119.778963 L38.6094739,119.778963 L38.6094739,123.46248 L46.3334753,123.46248 L46.3334753,126.300851 L35.4545923,126.300851 L35.4545923,116.560318 L35.4545923,116.560318 Z" id="工商银行"></path>
        </g>
    </g>
</svg>