<?xml version="1.0" encoding="UTF-8"?>
<svg width="40px" height="40px" viewBox="0 0 40 40" version="1.1" xmlns="http://www.w3.org/2000/svg" xmlns:xlink="http://www.w3.org/1999/xlink">
    <!-- Generator: Sketch 43 (38999) - http://www.bohemiancoding.com/sketch -->
    <title>平安银行-4</title>
    <desc>Created with Sketch.</desc>
    <defs></defs>
    <g id="Page-1" stroke="none" stroke-width="1" fill="none" fill-rule="evenodd">
        <g id="银行卡管理" transform="translate(-27.000000, -95.000000)" fill="#FF6000">
            <g id="平安银行-4" transform="translate(27.000000, 95.000000)">
                <path d="M25.5106716,15.4563126 C26.1178022,15.4388278 26.7257631,15.4507448 27.333431,15.450696 C27.7898413,15.4505983 27.8273016,15.4146032 27.7630281,14.9705006 C27.7535043,14.9052015 27.6603175,14.8014164 27.6044933,14.8007326 C26.8095726,14.7898413 26.0144567,14.7931136 25.1803663,14.7931136 C25.1803663,14.9367521 25.1915995,15.0324298 25.1782662,15.1246398 C25.1393407,15.3914042 25.2523565,15.4638828 25.5109158,15.4564103 L25.5106716,15.4563126" id="Fill-1"></path>
                <path d="M27.474823,16.2179243 C26.8965079,16.2378022 26.3170208,16.2237851 25.7379731,16.2237851 C25.1324054,16.2237851 25.1324054,16.2237851 25.2062515,16.884884 C25.9769963,16.884884 26.734359,16.8730159 27.490989,16.8910379 C27.7603907,16.8974359 27.7747497,16.7704029 27.7757753,16.56337 C27.776801,16.3443223 27.7552625,16.2080586 27.4747741,16.2177289 L27.474823,16.2179243" id="Fill-2"></path>
                <path d="M24.8254945,24.4904029 C25.1305006,24.5674237 25.4812698,24.4970452 25.8059096,24.4499634 C26.0076679,24.4206593 26.1247863,24.2590476 26.1229304,24.0383394 C26.1211233,23.8165568 26.0023932,23.6806838 25.7951648,23.6365324 C25.6121612,23.597558 25.4232967,23.5860806 25.2370696,23.5622955 C25.2362882,23.569768 25.2353114,23.5771917 25.2345299,23.5847619 C25.111453,23.5847619 24.9885714,23.5878877 24.865641,23.5840293 C24.6879609,23.5785104 24.6474725,23.6985104 24.6794628,23.826569 C24.7359219,24.0530403 24.4957265,24.4069841 24.8253968,24.4903053 L24.8254945,24.4904029" id="Fill-3"></path>
                <path d="M28.2810745,25.0586569 L29.4689621,25.0586569 C29.2699389,24.603956 29.0895238,24.1915995 28.8741392,23.6994383 C28.6586569,24.1934554 28.476337,24.6112821 28.2811722,25.0586569 L28.2810745,25.0586569" id="Fill-4"></path>
                <path d="M25.9863248,25.000928 C25.7768987,24.9553114 25.5592674,24.946862 25.3451526,24.9221978 C25.3443712,24.9297192 25.3434921,24.937094 25.3427106,24.9445177 C25.1915018,24.9445177 25.0401954,24.9486203 24.8891819,24.9432967 C24.7555556,24.9385104 24.6496703,24.9762637 24.6794139,25.1284982 C24.7282051,25.3787546 24.5092063,25.7740659 24.8103541,25.8548474 C25.1739683,25.9523321 25.5942369,25.8687668 25.985348,25.8234432 C26.1875458,25.8000977 26.2989011,25.6348718 26.300464,25.4125519 C26.3021245,25.1888156 26.1922344,25.0456654 25.9865201,25.000928 L25.9863248,25.000928" id="Fill-5"></path>
                <path d="M16.380464,17.2411722 C15.574652,17.2496215 14.7684493,17.2447375 13.9623932,17.2447375 L13.4649573,17.2447375 C13.3394872,17.9758242 13.3986813,18.0962637 14.0090354,18.3935043 C15.0550427,18.9033455 15.0481074,18.8889866 16.1461783,18.3530159 C16.5313797,18.1650794 16.6651526,17.9009035 16.6485958,17.4977778 C16.6404884,17.2983639 16.5751893,17.2388278 16.3802686,17.2408791 L16.380464,17.2411722" id="Fill-6"></path>
                <path d="M20.004884,0.0333577534 C8.9803663,0.0333577534 0.0431257631,8.97045177 0.0431257631,19.995116 C0.0431257631,31.0197802 8.98021978,39.9568742 20.004884,39.9568742 C31.0295482,39.9568742 39.9666422,31.0197802 39.9666422,19.995116 C39.9666422,8.97045177 31.0295482,0.0333577534 20.004884,0.0333577534 Z M33.9525275,13.9711355 C34.5698168,13.9652259 35.1871551,13.969768 35.8043468,13.969768 C36.5070574,13.969768 37.2100122,13.9772894 37.9126252,13.9655678 C38.1518926,13.9615629 38.2571917,14.0266178 38.2511844,14.2850305 C38.2325275,15.081221 38.3344078,14.9605861 37.5666911,14.9637607 C36.275116,14.9691819 34.9834921,14.9573626 33.6921123,14.9712821 C33.4090354,14.9742613 33.330696,14.8732601 33.3331868,14.6084982 C33.3406593,13.8412698 33.3265934,13.9771429 33.9525763,13.9710867 L33.9525275,13.9711355 Z M29.9433455,15.6281319 C30.3473504,15.1238584 30.7567766,14.6239316 31.1576068,14.1172161 C31.2721856,13.9725519 31.3947741,13.8948962 31.5903785,13.9050549 C31.9104274,13.9218559 32.2319902,13.9096459 32.552967,13.9096459 C32.5680098,13.9347497 32.5831013,13.9598535 32.5981929,13.9848596 C32.3561905,14.2864469 32.113895,14.5876923 31.872381,14.8893773 C31.7892063,14.9932112 31.6856166,15.0873748 31.6281319,15.2040049 C31.2408791,15.9895482 30.5593162,15.9428571 29.8116239,15.8401954 C29.8618315,15.7584371 29.8955311,15.6877167 29.9433455,15.6281319 Z M21.1302564,14.0096215 C21.1573138,13.9620513 21.2349695,13.917558 21.2903053,13.9161416 C21.6274969,13.9076435 21.9650305,13.9118437 22.3553602,13.9118437 C22.2503053,14.1275214 22.1773871,14.2771184 22.0777534,14.4815629 C22.5203419,14.4815629 22.9136996,14.4950427 23.3057875,14.4769231 C23.5713797,14.4646154 23.6740415,14.5638584 23.6435653,14.8224664 C23.6337485,14.9066178 23.63663,14.9933089 23.6429304,15.0780464 C23.6588034,15.2883516 23.5579976,15.3663492 23.3556044,15.3643956 C22.8344322,15.3593162 22.312967,15.3664957 21.7918437,15.3604396 C21.6378999,15.3586813 21.5402686,15.4006349 21.4399512,15.5340659 C21.3584371,15.6426862 21.1958974,15.7329915 21.0595849,15.749304 C20.7838828,15.7821734 20.501685,15.7591209 20.150232,15.7591209 C20.5030525,15.1260562 20.8128449,14.5656166 21.1300611,14.009475 L21.1302564,14.0096215 Z M4.25978022,25.2959219 C3.86129426,25.3043712 3.46222222,25.3031502 3.06358974,25.2986081 C2.89777778,25.2966545 2.8152381,25.3538462 2.82603175,25.5302564 C2.83462759,25.6720879 2.81118437,25.8173382 2.83057387,25.9568742 C2.87150183,26.2526007 2.75018315,26.3298168 2.46520147,26.3209768 C2.22095238,26.3134554 2.15868132,26.2298413 2.16639805,26.0017582 C2.18105006,25.5655189 2.17069597,25.1283516 2.17069597,24.6916728 C2.17074481,24.2454212 2.17606838,23.799072 2.16800977,23.352967 C2.16483516,23.1802686 2.20258852,23.089768 2.40166056,23.0928449 C3.0186569,23.1020757 3.63638584,23.0840049 4.25299145,23.1008547 C4.93128205,23.1193162 5.33089133,23.5696703 5.32537241,24.272967 C5.32039072,24.9188767 4.94725275,25.2812698 4.25958486,25.2959707 L4.25978022,25.2959219 Z M6.48664225,24.7103785 C6.48659341,25.1650794 6.47882784,25.6199756 6.48996337,26.0742857 C6.49533578,26.2930403 6.38471306,26.3257631 6.20693529,26.3127228 C6.04429792,26.300464 5.85079365,26.3653236 5.85240537,26.0844933 C5.85728938,25.1657143 5.85855922,24.2469353 5.85045177,23.3280586 C5.84776557,23.0203663 6.0613431,23.1139438 6.22412698,23.0949451 C6.41777778,23.0722833 6.49489621,23.1440781 6.48996337,23.3465201 C6.47882784,23.8008303 6.48659341,24.2556288 6.48659341,24.7104274 L6.48664225,24.7103785 Z M6.35746032,19.3563858 C6.35746032,19.7808059 6.35155067,20.1594628 6.35965812,20.5375336 C6.36449328,20.7588767 6.26940171,20.8473748 6.05216117,20.8395116 C5.81499389,20.8308669 5.57689866,20.8310134 5.33968254,20.8394628 C5.1425641,20.8465446 5.06559219,20.7602442 5.06940171,20.5678144 C5.07555556,20.2544078 5.0601221,19.9402686 5.07404151,19.6273016 C5.083663,19.4142125 5.00737485,19.3497924 4.79579976,19.3518926 C3.81728938,19.3614164 2.83848596,19.3565324 1.85992674,19.3557998 C1.50241758,19.3556044 1.49069597,19.3410501 1.48673993,18.9851526 C1.47941392,18.3534554 1.48854701,18.4167033 2.06422466,18.4172894 C2.9573138,18.4181685 3.85064713,18.4071306 4.74344322,18.4238339 C5.01455433,18.4288645 5.0790232,18.3359219 5.07575092,18.0819048 C5.0632967,17.1318193 5.06275946,16.1816361 5.07594628,15.2315995 C5.0795116,14.9766056 4.99394383,14.9072527 4.74788767,14.9108181 C3.87389499,14.9234676 2.9995116,14.9078388 2.12551893,14.9204396 C1.85948718,14.9243956 1.75296703,14.8514774 1.76151404,14.5681074 C1.77787546,14.0263736 1.76336996,14.0259829 2.30241758,14.0260806 C4.61133089,14.0261294 6.92,14.0260317 9.22891331,14.0261783 C9.62437118,14.0262271 9.62930403,14.0314042 9.63179487,14.4176313 C9.63208791,14.4745788 9.62691087,14.5321123 9.63247863,14.5885226 C9.65650794,14.8303297 9.56161172,14.9238095 9.30783883,14.9203907 C8.43379731,14.90779 7.55946276,14.924884 6.68547009,14.910232 C6.42525031,14.9059341 6.34642247,14.9797314 6.35086691,15.2446886 C6.36693529,16.1945299 6.3570696,17.1449573 6.3570696,18.0949939 L6.3570696,18.400293 C6.48625153,18.4071306 6.58725275,18.4166545 6.68810745,18.4167033 C7.65714286,18.4178755 8.62656899,18.4258852 9.5953602,18.4123077 C9.87247863,18.4083516 9.9617094,18.5009035 9.95565324,18.7748474 C9.94285714,19.3559951 9.95457875,19.3561905 9.3614652,19.3560928 C8.47785104,19.3559951 7.59418803,19.3560928 6.71052503,19.3561416 L6.35653236,19.3561416 L6.35746032,19.3563858 Z M2.18417582,15.567326 C2.59155067,15.567326 2.98246642,15.5617094 3.37279609,15.5737241 C3.42891331,15.5754823 3.50212454,15.653138 3.53382173,15.7133578 C3.86412698,16.3425641 4.18798535,16.974652 4.51115995,17.6075702 C4.53089133,17.6461538 4.52708181,17.6966056 4.53948718,17.7731868 C4.13289377,17.7731868 3.7423199,17.7790476 3.35233211,17.7663492 C3.29797314,17.7644933 3.22866911,17.6798046 3.196337,17.6178755 C2.86798535,16.9879365 2.54564103,16.3548718 2.2230525,15.7219048 C2.20688645,15.689768 2.20454212,15.6504029 2.18412698,15.5674725 L2.18417582,15.567326 Z M9.23653236,15.558779 C9.19379731,15.6801465 9.17328449,15.7683028 9.13347985,15.847033 C8.84805861,16.4133333 8.55335775,16.9751404 8.27399267,17.5443223 C8.1820757,17.7313797 8.05162393,17.8117216 7.84967033,17.8088889 C7.52498168,17.8043956 7.20014652,17.8076679 6.80649573,17.8076679 C7.202442,17.0434676 7.55140415,16.3629304 7.91086691,15.6879121 C7.94358974,15.6264713 8.042442,15.5668376 8.11277167,15.564591 C8.47101343,15.5521368 8.82979243,15.5589744 9.23663004,15.5589744 L9.23653236,15.558779 Z M10.4623687,25.9170208 C10.4611477,26.0459096 10.4237851,26.2731624 10.3674725,26.2849817 C10.1654701,26.3272283 9.93260073,26.3824176 9.75833944,26.1830525 C9.52708181,25.9186813 9.29357753,25.6560684 9.06065934,25.3932112 C8.65328449,24.933138 8.24556777,24.4732601 7.83794872,24.0134799 C7.80830281,24.0236386 7.77870574,24.033895 7.74901099,24.0440537 C7.74901099,24.4106471 7.74925519,24.7772405 7.74891331,25.1439316 C7.74866911,25.4667643 7.74412698,25.7896947 7.74822955,26.1125275 C7.75076923,26.3074969 7.62998779,26.3252259 7.48376068,26.3119414 C7.35457875,26.3000733 7.17391941,26.3711844 7.17445665,26.1346032 C7.17616606,25.15663 7.1784127,24.1785592 7.18217338,23.2006349 C7.18227106,23.1750427 7.20190476,23.1495482 7.21128205,23.126398 C7.57050061,23.0315018 7.83589744,23.1197558 8.08175824,23.4184615 C8.63013431,24.0840537 9.21636142,24.7186325 9.84649573,25.4332601 C9.85802198,25.2659829 9.86866911,25.1802686 9.86881563,25.0947009 C9.87032967,24.5153602 9.88239316,23.9357265 9.8640293,23.3569719 C9.8557265,23.0946032 9.99257631,23.0969475 10.1811477,23.0918681 C10.3764591,23.0865934 10.4744811,23.1229304 10.4712088,23.3534066 C10.4590476,24.2078632 10.4704274,25.0627106 10.4620269,25.9173626 L10.4623687,25.9170208 Z M14.2740904,25.6771673 C14.178315,26.0672039 13.8447863,26.2879609 13.4464957,26.3121856 C12.9452503,26.3426129 12.4391697,26.3432479 11.9379731,26.3128205 C11.4331136,26.2821001 11.0681807,25.8712576 11.0565079,25.367033 C11.046105,24.9206838 11.0475214,24.4738462 11.0567521,24.0276435 C11.0666178,23.5532112 11.3870085,23.1422222 11.8576801,23.103199 C12.411917,23.0571429 12.9763126,23.0535775 13.5299634,23.103199 C14.0402442,23.1492063 14.3763614,23.626862 14.3150183,24.1485714 C14.1824176,24.1485714 14.0436142,24.1424664 13.905641,24.150232 C13.7451526,24.1591697 13.6694505,24.0907448 13.6934799,23.9328938 C13.7342613,23.6636874 13.5961416,23.6171917 13.3637607,23.6237851 C12.8890354,23.6373626 12.4135775,23.634188 11.9389011,23.6248107 C11.7533089,23.6210989 11.6804396,23.6949451 11.6810745,23.8727717 C11.6832234,24.4237851 11.68337,24.974652 11.6808303,25.5258608 C11.6799512,25.7014408 11.745641,25.7821734 11.934359,25.7789988 C12.4377045,25.7703053 12.9413919,25.770989 13.4449817,25.7788523 C13.6278388,25.7816361 13.7139927,25.7184371 13.6923077,25.5315263 C13.6911355,25.5220513 13.6923077,25.5125763 13.6922589,25.5031502 C13.6857143,24.9362637 13.7534554,25.0183639 13.2153846,25.0097192 C13.1583883,25.0088889 13.1013431,25.009768 13.0443468,25.0096703 C12.6398046,25.0087424 12.6208547,24.9833944 12.7124786,24.5314774 L14.3635653,24.5314774 C14.3381685,24.9198535 14.3638584,25.3127228 14.2743346,25.677265 L14.2740904,25.6771673 Z M17.5985348,26.1750916 C17.5959951,26.2245665 17.5145299,26.2715995 17.4659341,26.3157021 C17.4552381,26.3252747 17.4293529,26.3176557 17.4103541,26.3190232 C16.6271062,26.3768498 16.5481319,26.2803907 16.6768254,25.367033 L16.9692308,25.367033 L17.6047863,25.367033 C17.6047863,25.6527473 17.6118193,25.9142857 17.5986325,26.1749451 L17.5985348,26.1750916 Z M18.2489866,25.99663 C17.8864957,25.2773626 17.5252259,24.5577534 17.1362637,23.7842735 C17.0631502,23.9116484 17.0107448,23.9932112 16.9673748,24.0791697 C16.6514286,24.7061783 16.3374359,25.3342613 16.0225153,25.9617582 C15.825641,26.3542369 15.6984615,26.40337 15.2358486,26.2526007 C15.2541148,26.1940904 15.2647131,26.1312332 15.29221,26.0768742 C15.7593651,25.1537973 16.2327228,24.2336996 16.6937729,23.3075458 C16.7808547,23.1326496 16.8988523,23.0785836 17.079072,23.0929915 C17.2521612,23.1069109 17.431746,23.0515751 17.5412454,23.2719902 C18.0142125,24.2239805 18.5004151,25.1692796 18.9802686,26.1177534 C19.0001465,26.1569719 19.0053236,26.2037607 19.0169963,26.2454701 C18.606398,26.4059585 18.4246154,26.3454945 18.2488889,25.9964835 L18.2489866,25.99663 Z M18.6577289,17.2448352 C18.3838828,17.2451282 18.1099878,17.244884 17.8163614,17.244884 C17.7494017,17.7356777 17.88884,18.2835165 17.4324786,18.6112821 C17.0441026,18.8902076 16.6100122,19.1053968 16.1772405,19.3597558 C16.6081074,19.5873504 17.0591453,19.7105739 17.5382173,19.7216606 C17.956044,19.7311844 18.3744078,19.7311844 18.7923321,19.7217094 C18.9928694,19.7171184 19.0891819,19.7754823 19.0865934,19.9936996 C19.0774603,20.7307448 19.1382662,20.6156288 18.4920635,20.6135775 C17.7645421,20.6111844 17.0263248,20.6937241 16.3269353,20.3999023 C15.9860806,20.2567521 15.64,20.1243956 15.306569,19.9650794 C15.1093529,19.8708669 14.948083,19.8801954 14.7435409,19.961514 C14.1736264,20.188083 13.6031258,20.4572405 13.0067888,20.5628816 C12.3978999,20.6705739 11.7582418,20.6079121 11.131917,20.6066911 C11.0739927,20.6065934 10.9729426,20.5157021 10.9664957,20.458315 C10.9450061,20.2706716 10.9318681,20.0737973 10.9708913,19.8922589 C10.9862759,19.8204151 11.1443223,19.7373871 11.2414164,19.7318193 C11.7999512,19.6999756 12.3623443,19.7167766 12.9180464,19.6621734 C13.2398535,19.6306716 13.5512576,19.4957753 13.8675458,19.4075702 C13.8672527,19.3778266 13.8667643,19.3479853 13.8663248,19.3182906 C13.596337,19.1840781 13.328254,19.0461538 13.0560195,18.9166789 C12.4996337,18.65221 12.2074725,18.2242735 12.2639316,17.6001465 C12.2905495,17.3060806 12.1864225,17.2148474 11.8985592,17.2395604 C11.6062027,17.2646642 11.3096947,17.2380464 11.0154823,17.2471795 C10.8041026,17.2537729 10.7328938,17.1546764 10.7248352,16.9561905 C10.6998779,16.3368987 10.6957265,16.3372405 11.3124298,16.3376801 C11.5498901,16.3377778 11.7875458,16.3333822 12.0251038,16.3374847 C12.1894017,16.3404151 12.2753602,16.2796093 12.2606105,16.1032479 C12.2528449,16.0089377 12.2646154,15.9130647 12.2590965,15.8184615 C12.2486447,15.6434676 12.3449084,15.5791941 12.5012943,15.577094 C12.6912821,15.5745543 12.8818559,15.5851038 13.0712088,15.5737729 C13.3242002,15.5586813 13.4479121,15.6574847 13.4291575,15.9199023 C13.4205617,16.0413187 13.4277411,16.1638584 13.4277411,16.3120879 C13.5510623,16.3218559 13.6520635,16.3365568 13.7527717,16.3365568 C14.5984371,16.3382173 15.4442491,16.3287912 16.2895238,16.3420269 C16.5555556,16.3462759 16.6626618,16.2749695 16.6496215,15.9915507 C16.6306716,15.5800244 16.6502564,15.5772894 17.0563614,15.5763126 C17.1038828,15.5761661 17.1513553,15.5763126 17.1988767,15.5763126 C17.7451526,15.5763126 17.7515507,15.5760195 17.7915507,16.1280586 C17.8035165,16.2937241 17.8773138,16.3384127 18.0240293,16.3369963 C18.3280586,16.3342125 18.6320879,16.3445177 18.9359219,16.3362637 C19.1583883,16.3303541 19.2626129,16.3971673 19.2564103,16.646105 C19.2399023,17.3083272 19.3093529,17.2442979 18.6577778,17.2451282 L18.6577289,17.2448352 Z M19.1875946,15.4856166 C19.1571673,15.5382662 19.07116,15.574359 19.0050305,15.586862 C18.9133089,15.6042002 18.8158242,15.592381 18.7209768,15.5922344 C18.3266422,15.5921856 18.3182906,15.5925275 18.294359,15.1995604 C18.2835653,15.0239805 18.2072772,14.9742613 18.0450794,14.974359 C16.0321368,14.9769475 14.0191453,14.9775336 12.0061538,14.973138 C11.8188034,14.9728938 11.7458364,15.0414164 11.7666422,15.2247131 C11.799072,15.5103785 11.6699878,15.6061538 11.3848107,15.5980952 C10.8144567,15.5819292 10.8140659,15.5953114 10.8240293,15.0451282 C10.8342369,14.4767766 11.1083761,14.1848596 11.6793651,14.1758242 C12.4577778,14.1635165 13.2365324,14.1726496 14.0150916,14.1705495 C14.126105,14.1703053 14.2371184,14.1585348 14.341978,14.1524786 C14.4278388,13.6295971 14.4278388,13.6295971 14.9605372,13.6295971 C15.0650061,13.6295971 15.1703053,13.6385348 15.2736508,13.6278388 C15.5428083,13.600293 15.6956288,13.678779 15.6606105,13.9863248 C15.6365812,14.198486 15.8075702,14.1691819 15.9342613,14.1695726 C16.7033944,14.1725519 17.4723321,14.1688889 18.241514,14.1741636 C18.4011233,14.1752869 18.5700611,14.1777778 18.7189255,14.2269597 C19.13221,14.3631746 19.4052259,15.1073504 19.1874969,15.4854212 L19.1875946,15.4856166 Z M22.6985104,25.912381 C22.6970452,26.0423932 22.6340415,26.2846886 22.6073748,26.28337 C22.4017094,26.2750672 22.1420269,26.283663 22.0049328,26.1651282 C21.6915751,25.8937241 21.4381441,25.5531136 21.1613187,25.2398535 C20.859243,24.8981197 20.556337,24.5570208 20.2579731,24.2120635 C20.1971184,24.1417827 20.1546764,24.0552869 20.1036874,23.9763126 C20.0662759,23.999072 20.029011,24.0217827 19.9915018,24.0444933 C19.9915018,24.6886447 19.9921856,25.3324542 19.9913553,25.9766056 C19.9911111,26.2865934 19.7843712,26.4281319 19.5004151,26.2974359 C19.4455678,26.2722344 19.3998046,26.1641026 19.3993651,26.0938217 C19.3927228,25.1625397 19.39663,24.23116 19.3934554,23.2997314 C19.3927717,23.1565324 19.44337,23.1017338 19.5912576,23.0920147 C19.8626618,23.0740904 20.0719902,23.1290354 20.2624176,23.3582418 C20.7725031,23.9718681 21.3131136,24.56 21.8396093,25.1598535 C21.9012454,25.2301343 21.9509646,25.3107692 22.0062515,25.386862 C22.0367277,25.3741636 22.0673993,25.3614652 22.0979731,25.3487179 C22.1052991,25.2542125 22.1185348,25.1595604 22.118779,25.0651038 C22.1208303,24.52337 22.1232723,23.9816361 22.1180952,23.4399023 C22.1161416,23.2369231 22.1062759,23.0816606 22.4037118,23.084884 C22.6830769,23.0878632 22.7073993,23.2135775 22.7056899,23.4319414 C22.6990476,24.2585592 22.7071551,25.0855678 22.6985592,25.9122833 L22.6985104,25.912381 Z M23.6422955,16.5337729 C23.6429792,16.9757265 23.6429792,16.9757265 23.2083028,16.9766545 C23.0184127,16.9772894 22.8264225,16.9616117 22.6398535,16.9861294 C22.5680098,16.9956532 22.4604151,17.089475 22.4517705,17.1557021 C22.426569,17.3499878 22.442735,17.5497924 22.442735,17.7920879 C22.7712821,17.7920879 23.0549451,17.7998535 23.3377778,17.7895482 C23.5525275,17.7815873 23.6442002,17.8552869 23.6462515,18.0832234 C23.6514286,18.6707692 23.6599756,18.6707692 23.0617827,18.6707692 L22.468083,18.6707692 L22.468083,20.0220757 C22.6891819,20.0220757 22.9129182,20.0286203 23.1362149,20.0205617 C23.4786813,20.008547 23.4073748,20.2533822 23.4191453,20.4541148 C23.4310623,20.6577778 23.4076679,20.8067399 23.1391941,20.795409 C22.7601954,20.7793895 22.3797802,20.797558 22.000293,20.7881807 C21.64,20.7791453 21.3961416,20.5349939 21.3883272,20.1754823 C21.3793895,19.7674237 21.3735775,19.3585348 21.3896947,18.9510134 C21.3987302,18.7196093 21.3124786,18.6473748 21.0933822,18.6677411 C20.933431,18.6826862 20.7631746,18.6994872 20.61221,18.659536 C20.5160928,18.6341392 20.4446886,18.5086691 20.3677656,18.4231502 C20.3534066,18.407326 20.3656654,18.3680098 20.3650794,18.339536 C20.3549695,17.7918926 20.3549695,17.7918926 20.9010989,17.7918437 C21.3693284,17.7917949 21.5214164,17.5785592 21.3725031,17.1071551 C21.3546276,17.0505006 21.2550916,16.9900855 21.1887668,16.9843712 C20.9907692,16.967033 20.7905739,16.9742613 20.5912088,16.9751404 C20.4388767,16.9757753 20.3649328,16.9054945 20.3649817,16.7508181 C20.3651282,16.0598779 20.3089621,16.1196581 20.9287424,16.1191209 C21.7167766,16.118486 22.5047619,16.1272772 23.2925031,16.1138462 C23.567326,16.1090598 23.6820513,16.2048352 23.642735,16.4770696 C23.6400488,16.4955311 23.6424908,16.5149695 23.6425397,16.5339194 L23.6422955,16.5337729 Z M24.1731868,14.6045421 C24.1743101,14.2306227 24.4250549,13.976801 24.800928,13.9738217 C25.9214652,13.9647863 27.0423932,13.9649817 28.1631746,13.9736752 C28.5349939,13.9764591 28.7781685,14.2358486 28.7811966,14.6130891 C28.7874969,15.4204151 28.7879365,16.2278877 28.7814896,17.0350183 C28.7781685,17.4544078 28.5253724,17.6976313 28.0967033,17.6999267 C27.2514774,17.7047619 26.4060562,17.7014896 25.5608303,17.7015873 L25.202735,17.7015873 L25.202735,20.0214896 C25.4508425,20.0214896 25.686105,20.0298901 25.9204396,20.0194383 C26.2295482,20.0057143 26.2127473,20.2093284 26.2119658,20.4187546 C26.2111844,20.6163126 26.2340904,20.8062027 25.9347985,20.794823 C25.5555067,20.7803663 25.1748962,20.7971673 24.795116,20.7883761 C24.4063004,20.7793895 24.1741636,20.5535531 24.1729426,20.1608791 C24.1673748,18.3086691 24.167326,16.4566545 24.1729915,14.6047863 L24.1731868,14.6045421 Z M26.490696,26.1130647 C26.3363614,26.2124542 26.1439805,26.2951893 25.9643956,26.3052503 C25.4623199,26.3337729 24.9579976,26.3230281 24.4546032,26.3221978 C24.2694994,26.3219536 24.1800244,26.2179243 24.1802198,26.032674 C24.1809524,25.1680586 24.1805128,24.3036874 24.1805128,23.4390232 C24.1805617,23.2379976 24.2855189,23.145348 24.4826374,23.1460806 C24.890989,23.1475946 25.2997802,23.1415385 25.7080342,23.1506227 C26.0912332,23.1590232 26.4254945,23.2829304 26.5914042,23.6587546 C26.7437363,24.0034676 26.6355556,24.280928 26.2590476,24.6203663 C26.2475214,24.6305739 26.2475214,24.6534799 26.2362882,24.6899145 C26.30442,24.7287912 26.3763126,24.7684493 26.447033,24.8099634 C26.9417827,25.1003175 26.9722589,25.8024908 26.4902076,26.1129182 L26.490696,26.1130647 Z M26.6615873,19.6951404 C26.3626374,19.1821734 26.0645177,18.6685226 25.72337,18.0817094 C26.1236142,18.0817094 26.4342369,18.0709158 26.7430525,18.0896703 C26.816801,18.0941636 26.8999756,18.1859829 26.9521368,18.2571917 C27.0571917,18.4007814 27.1438828,18.5577534 27.2452259,18.7208791 C27.4819536,18.4985104 27.6714042,18.2104518 27.9340659,18.1050061 C28.1930159,18.0010745 28.5261538,18.0823443 28.8979731,18.0823443 C28.8124054,18.2074725 28.769768,18.2841026 28.713602,18.3494994 C28.4419536,18.6662759 28.1596093,18.9741148 27.8978755,19.2986081 C27.8278388,19.3853968 27.7566789,19.5454945 27.791453,19.6272527 C27.868083,19.8079609 27.9517949,20.0260806 28.2211966,20.0177289 C28.3727473,20.0130891 28.5248352,20.0157753 28.6762393,20.0222222 C28.9810012,20.0350183 28.9337241,20.2624664 28.939243,20.4589988 C28.9445177,20.6480098 28.9207326,20.809475 28.6710134,20.7910623 C28.6521123,20.7895971 28.6330647,20.7910623 28.6141636,20.7913065 C27.3286935,20.8179243 27.3102808,20.8079609 26.6615385,19.6952381 L26.6615873,19.6951404 Z M30.2856166,26.3229304 C30.1889621,26.3428571 30.0622711,26.2206105 29.9506227,26.1598046 C29.9373871,26.1525275 29.930696,26.127326 29.927326,26.1091087 C29.8294505,25.5832967 29.4802442,25.4854701 29.0117216,25.5448596 C28.7688889,25.5756288 28.5167766,25.5313797 28.2736996,25.5605861 C28.1695238,25.5731868 28.0518193,25.6675458 27.9860806,25.7581441 C27.8991453,25.8780464 27.8814652,26.0510867 27.7877411,26.1625397 C27.7143834,26.249768 27.5577045,26.3393407 27.4610989,26.3189255 C27.2872283,26.2820024 27.2930891,26.1182906 27.3587302,25.970989 C27.6209524,25.3831502 27.8834676,24.795116 28.1462271,24.2075702 C28.2737973,23.9223443 28.3895482,23.6307692 28.5364103,23.3556044 C28.6001465,23.2362393 28.7285958,23.1515507 28.8723321,23.0055189 C29.0196337,23.1428083 29.16337,23.2190476 29.2181685,23.3366056 C29.6213919,24.203663 30.008547,25.0784371 30.3963858,25.9527228 C30.4624176,26.1017827 30.4804884,26.2828327 30.2857143,26.3228816 L30.2856166,26.3229304 Z M30.7363126,20.4945543 C30.7463248,19.8014652 30.7293284,19.10779 30.7454457,18.4149451 C30.75116,18.1664469 30.6842002,18.0682295 30.4278877,18.0961172 C30.2357998,18.1167766 30.0400488,18.1002198 29.7825641,18.1002198 C29.8639316,17.9701099 29.8960684,17.9054457 29.9402198,17.8504029 C30.3498901,17.3390965 30.7544811,16.8234432 31.1788523,16.3246886 C31.2635409,16.2251526 31.423199,16.1478877 31.5545788,16.1373871 C31.8837607,16.1109646 32.2166545,16.1286935 32.6469353,16.1286935 C32.2181685,16.6728205 31.8373626,17.1564347 31.4193407,17.6868376 C31.5523321,17.7048596 31.6154335,17.7146276 31.6787302,17.7216117 C31.7442247,17.7287424 31.8100122,17.7332357 31.9007082,17.7409035 C31.910232,17.825348 31.9271795,17.9072039 31.9273748,17.9891087 C31.9293773,18.8153358 31.9219536,19.6416606 31.9327473,20.4678388 C31.9359219,20.714188 31.8544567,20.8164591 31.6032234,20.7953114 C31.4146032,20.7793895 31.2230037,20.782906 31.0336996,20.7942369 C30.8112332,20.8077656 30.7329426,20.7177045 30.7360195,20.4949939 L30.7363126,20.4945543 Z M33.8977289,25.9671306 C33.8915751,26.0927961 33.800928,26.2886935 33.7089621,26.3155556 C33.6065446,26.3455922 33.4164591,26.2535775 33.3372405,26.1559463 C32.8472772,25.5506716 32.3780708,24.9285958 31.9013431,24.3127717 C31.8393651,24.2327717 31.7724542,24.1559951 31.659536,24.0194383 C31.6441514,24.1690842 31.6299389,24.2467888 31.6297436,24.3243956 C31.6276923,24.8849328 31.6243712,25.4455678 31.6306716,26.006105 C31.6327717,26.1934066 31.5762637,26.3495482 31.3814896,26.3514042 C31.1822711,26.3532601 31.1317216,26.1917949 31.1325031,26.0073748 C31.1364591,25.1808059 31.1335775,24.3542369 31.134359,23.5275702 C31.1344567,23.377094 31.1095971,23.1755311 31.3061783,23.1620513 C31.450989,23.1521856 31.6568987,23.2149939 31.7440781,23.3207326 C32.2209524,23.8994872 32.6690598,24.5020757 33.1281074,25.0956288 C33.1900855,25.1758242 33.2574359,25.2520147 33.3222955,25.3298657 C33.3502808,25.3215629 33.378315,25.3127228 33.4063004,25.3043223 L33.4063004,24.8313553 C33.406398,24.3847619 33.4062027,23.9382173 33.4065934,23.4916728 C33.4068376,23.3102808 33.4229548,23.1278144 33.6672527,23.1388523 C33.8842002,23.1484737 33.908083,23.312674 33.9068132,23.4878632 C33.9042735,23.8584127 33.906569,24.2290598 33.906569,24.5995116 C33.9065201,25.0556288 33.9200488,25.5123321 33.8976313,25.9672772 L33.8977289,25.9671306 Z M37.301685,26.2936752 C37.191746,26.4324298 37.0405861,26.3548718 36.9416361,26.2318926 C36.6740904,25.8993895 36.4128449,25.5617094 36.1484737,25.226569 C36.0671062,25.1232234 35.9832967,25.0214408 35.88337,24.8976313 C35.5777289,25.158779 35.2399512,25.3574603 35.3198535,25.8409768 C35.3544322,26.0500122 35.3618559,26.3419292 35.0609035,26.3455922 C34.7546276,26.3489133 34.793602,26.0637851 34.7935043,25.8468376 C34.7932601,25.0688156 34.7949206,24.2906471 34.7924298,23.512674 C34.7917949,23.3140415 34.8230037,23.1326984 35.0691087,23.1384127 C35.2998779,23.1438339 35.3237118,23.3303541 35.3252259,23.5087668 C35.3285958,23.9045177 35.3263004,24.3003663 35.3263004,24.759072 C35.4351648,24.6687668 35.5001221,24.6228083 35.5557509,24.5674725 C35.9588767,24.1654701 36.3601465,23.7617094 36.7619536,23.3583394 C36.802149,23.3180464 36.8371673,23.2518193 36.8837118,23.2425397 C37.0163126,23.2159219 37.1535531,23.2123077 37.28884,23.1996581 C37.2692552,23.3271306 37.29221,23.4899145 37.2218803,23.5752381 C37.0419536,23.7934066 36.8211966,23.978022 36.6147497,24.1739683 C36.4980708,24.2847375 36.3772894,24.3908181 36.2288156,24.5258608 C36.5668376,24.9472039 36.8747253,25.3308425 37.1823687,25.714823 C37.2356532,25.7814408 37.3202442,25.844884 37.3312821,25.9187302 C37.3497924,26.0427839 37.3674237,26.2107448 37.301685,26.2936752 Z M37.9067643,17.1873993 C37.7572161,17.1874481 37.6078144,17.1873993 37.4301343,17.1873993 C37.4301343,18.0712088 37.4310134,18.9234676 37.429304,19.775873 C37.429011,19.9274237 37.429011,20.0805861 37.4079121,20.2301832 C37.3567277,20.5975092 37.1474481,20.7861783 36.7765568,20.7889621 C35.9883761,20.7949695 35.1998046,20.7861783 34.4116728,20.7949695 C34.2002442,20.7973626 34.1287424,20.7110623 34.1183883,20.5115018 C34.0875702,19.9176557 34.0994383,19.8996825 34.679072,19.8994872 C35.1064713,19.8993895 35.5339683,19.8929426 35.9611722,19.9020269 C36.1454457,19.9059341 36.2129915,19.8399023 36.2114286,19.6547009 C36.2047863,18.913895 36.2027839,18.1729915 36.2120635,17.4323321 C36.214652,17.2211477 36.1220513,17.1830037 35.9377778,17.1845665 C35.0926007,17.1914042 34.2470818,17.1792918 33.4020513,17.1922833 C33.1259585,17.1965812 33.032381,17.0913797 33.0333578,16.8255433 C33.0358974,16.0633944 33.039072,16.1937973 33.659536,16.1920391 C35.1506716,16.18779 36.6418559,16.1903785 38.1328938,16.1909646 C38.5182906,16.1911111 38.5222466,16.1962393 38.5238095,16.56884 C38.5264957,17.1872527 38.5264957,17.1872527 37.9067155,17.1874969 L37.9067643,17.1873993 L37.9067643,17.1873993 Z" id="Fill-7"></path>
                <path d="M4.38197802,23.6298901 C4.16420024,23.6374115 3.94588523,23.6318437 3.72791209,23.6318437 C3.72761905,23.6245177 3.72683761,23.617094 3.72639805,23.6096703 C3.43746032,23.6321368 3.03628816,23.5498413 2.89069597,23.7060806 C2.74041514,23.8672039 2.83838828,24.2601709 2.82778999,24.551746 C2.82754579,24.5612698 2.82862027,24.570696 2.82793651,24.5801221 C2.81465201,24.7393895 2.89191697,24.799707 3.04669109,24.7983394 C3.49216117,24.7942369 3.93777778,24.7953602 4.3832967,24.7971673 C4.54383394,24.7974603 4.63042735,24.7399267 4.62412698,24.5630281 C4.61587302,24.3263492 4.61489621,24.0887912 4.6242735,23.8521612 C4.63155067,23.6705739 4.5432967,23.6244689 4.3818315,23.6300855 L4.38197802,23.6298901" id="Fill-8"></path>
            </g>
        </g>
    </g>
</svg>