<?xml version="1.0" encoding="UTF-8"?>
<svg width="40px" height="32px" viewBox="0 0 40 32" version="1.1" xmlns="http://www.w3.org/2000/svg" xmlns:xlink="http://www.w3.org/1999/xlink">
    <!-- Generator: Sketch 43 (38999) - http://www.bohemiancoding.com/sketch -->
    <title>hcl 民生银行</title>
    <desc>Created with Sketch.</desc>
    <defs></defs>
    <g id="Page-1" stroke="none" stroke-width="1" fill="none" fill-rule="evenodd">
        <g id="银行卡管理" transform="translate(-27.000000, -99.000000)">
            <g id="hcl-民生银行" transform="translate(27.000000, 99.000000)">
                <path d="M20.1849084,19.8736502 L23.8658364,21.8332813 L20.1849084,23.7929124 L20.1849084,26.1324506 L29.3871551,21.4933567 L20.1849084,17.5740945 L20.1849084,19.8736502 Z M20.1849084,1.9371257 L20.1849084,0.0374927555 L20.3049573,0.0374927555 C26.906569,-0.162468607 40.049768,2.31703276 39.9897436,10.0155452 L33.888254,10.0155452 C33.028083,4.21666571 26.5464713,1.75718 20.1849084,1.9371257 Z M16.5040293,21.8332813 L19.924884,19.7537026 L20.1849084,19.8736502 L20.1849084,17.5941102 L19.3047131,17.1941874 C19.3047131,17.1941874 5.9614652,17.7140577 7.10173382,8.19592612 C8.5020757,4.35667772 14.3434921,2.05712205 20.1849084,1.9371257 L20.1849084,0.0374927555 C12.9431502,0.237454118 2.84068376,2.25708341 0.94021978,8.97575591 C0.88019536,9.23571544 0.82021978,9.4356768 0.82021978,9.63563817 L0.82021978,10.55548 C1.20029304,14.3947284 6.72166056,18.8338609 15.8038584,18.8338609 L10.9226862,21.8332813 L19.6248107,26.3924101 L20.2049328,26.1324506 L20.2049328,23.7929124 L20.084884,23.8529106 L16.5040293,21.8332813 L16.5040293,21.8332813 Z" id="Fill-1" fill="#009B88"></path>
                <path d="M6.16151404,21.8332813 L0,21.8332813 C0,29.5317938 13.143199,31.9313301 19.7448107,31.8113338 L19.8648596,31.8113338 L19.8648596,29.9117008 C13.4632967,30.0517128 7.0417094,27.5721626 6.16151404,21.8332813 Z M19.8848352,14.3347302 L19.8848352,12.0551902 L16.1839316,10.0955591 L19.8848352,8.07592977 L19.8848352,5.79638977 L10.6626129,10.3555186 L19.8848352,14.3347302 L19.8848352,14.3347302 Z" id="Fill-2" fill="#2C5082"></path>
                <path d="M24.2659341,13.0349813 L29.0870818,10.0955591 L20.4449817,5.45646521 L19.8648596,5.7763741 L19.8648596,8.05596293 L19.9848596,7.99596476 L23.5457387,10.0755434 L20.1249328,12.1151395 L19.8648596,12.0551902 L19.8648596,14.3347302 L20.6850305,14.6546879 C20.6850305,14.6546879 34.0283272,14.194767 32.9480342,23.6529492 C31.4876679,27.4921976 25.7062759,29.7917533 19.8648596,29.9117008 L19.8648596,31.8113338 C27.1066178,31.5514231 37.2090842,29.5917919 39.1095482,22.8730706 C39.1695726,22.6731093 39.2295971,22.4731479 39.2295971,22.2131884 L39.2295971,21.3733604 C38.8694994,17.454147 33.2681319,13.0949795 24.2659341,13.0349813" id="Fill-3" fill="#2C5082"></path>
            </g>
        </g>
    </g>
</svg>