<?xml version="1.0" encoding="UTF-8"?>
<svg width="40px" height="35px" viewBox="0 0 40 35" version="1.1" xmlns="http://www.w3.org/2000/svg" xmlns:xlink="http://www.w3.org/1999/xlink">
    <!-- Generator: Sketch 43 (38999) - http://www.bohemiancoding.com/sketch -->
    <title>广发银行</title>
    <desc>Created with Sketch.</desc>
    <defs></defs>
    <g id="Page-1" stroke="none" stroke-width="1" fill="none" fill-rule="evenodd">
        <g id="银行卡管理" transform="translate(-27.000000, -98.000000)">
            <g id="广发银行" transform="translate(27.000000, 98.000000)">
                <path d="M19.9980611,13.3600705 C19.2786934,11.8391513 18.5593256,10.3181896 17.9119073,8.79731275 C16.68902,5.90026709 15.6819389,3.00330631 14.7467229,0.0339066543 C11.5096312,9.52157416 6.40223393,18.2849378 0,25.67226 C4.60383562,24.585889 9.35157007,23.8616701 14.0993045,23.571957 C16.2573656,20.3128443 18.2715701,16.9088963 19.998019,13.3600705 L19.9980611,13.3600705" id="Fill-1" fill="#BD1D1F"></path>
                <path d="M19.9980611,23.4271641 C18.0558061,23.4271641 16.0415595,23.4995606 14.0993467,23.6444383 C11.4377661,27.5553736 8.48838778,31.3214735 5.2512961,34.7977755 C9.99903056,33.8562824 14.9624868,33.421734 19.9980611,33.421734 C25.0335933,33.421734 29.9970495,33.8562824 34.744784,34.7977755 C31.435785,31.3213886 28.4864067,27.5553311 25.8967334,23.571957 C23.8825711,23.4271217 21.9403161,23.4271217 19.9980611,23.4271217 L19.9980611,23.4271641" id="Fill-2" fill="#730E0B"></path>
                <path d="M0,25.6723024 L5.25125395,34.797818 C8.56029505,31.3214311 11.5096312,27.5553736 14.0993045,23.571957 C9.35157007,23.9340665 4.60383562,24.585889 0,25.67226 L0,25.6723024" id="Fill-3" fill="#E7181B"></path>
                <path d="M25.1773656,0.0339490907 L25.1773656,0.0339490907 C24.3141412,3.00339118 23.2351106,5.90035196 22.0121812,8.79731275 C21.3647629,10.318232 20.6454373,11.8391937 19.9260695,13.3600705 C21.6525184,16.9088963 23.5947734,20.3128443 25.8247418,23.571957 C30.5724763,23.8616701 35.3202107,24.5859315 39.9240464,25.6723024 C33.5218124,18.2849803 28.4863224,9.52157416 25.1773235,0.0339490907 L25.1773656,0.0339490907" id="Fill-4" fill="#E7181B"></path>
                <path d="M19.9980611,13.3600705 C20.7173867,11.8391513 21.4367545,10.3181896 22.0841728,8.79731275 C23.3071444,5.90026709 24.3141834,3.00330631 25.2493572,0.0339066543 L14.746765,0.0339066543 C15.6099895,3.00334875 16.68902,5.90030953 17.9119494,8.79731275 C18.5593678,10.318232 19.2786512,11.8391513 19.9980611,13.3600705" id="Fill-5" fill="#730E0B"></path>
                <path d="M34.744784,34.797818 L39.9960379,25.6723024 C35.3922023,24.5859315 30.6444679,23.8617125 25.8967334,23.571957 C28.4864067,27.5552887 31.4358272,31.3214311 34.744784,34.7978604 L34.744784,34.797818" id="Fill-6" fill="#BD1D1F"></path>
            </g>
        </g>
    </g>
</svg>