<?xml version="1.0" encoding="UTF-8"?>
<svg width="40px" height="40px" viewBox="0 0 40 40" version="1.1" xmlns="http://www.w3.org/2000/svg" xmlns:xlink="http://www.w3.org/1999/xlink">
    <!-- Generator: Sketch 43 (38999) - http://www.bohemiancoding.com/sketch -->
    <title>中信银行</title>
    <desc>Created with Sketch.</desc>
    <defs></defs>
    <g id="Page-1" stroke="none" stroke-width="1" fill="none" fill-rule="evenodd">
        <g id="银行卡管理" transform="translate(-27.000000, -96.000000)" fill="#D6000F">
            <g id="中信银行" transform="translate(27.000000, 96.000000)">
                <path d="M24.1017323,12.3885564 L24.1017323,36.6059843 C25.2853543,36.3025197 26.408189,35.9080315 27.5007349,35.3617323 L27.5007349,7.6543832 C27.1365354,7.80608924 26.4385302,8.13994751 25.8619423,8.5951706 C24.7087664,9.5056168 24.1017323,10.6891339 24.1017323,12.3886089 L24.1017323,12.3885564 Z M14.1781102,8.59506562 C13.6015223,8.13984252 12.9034646,7.80603675 12.5393176,7.65427822 L12.5393176,35.3616798 C13.6014698,35.8775853 14.7546982,36.3024672 15.9382677,36.6059843 L15.9382677,12.3885564 C15.9382677,10.6890289 15.3313386,9.50551181 14.1781102,8.59506562 L14.1781102,8.59506562 Z" id="Fill-1"></path>
                <path d="M26.8027297,4.31611549 C24.7391076,3.40566929 22.4326509,2.92010499 20.0351706,2.92010499 C17.6377428,2.92010499 15.3616273,3.40566929 13.2979528,4.28577428 C12.9641995,4.46782152 12.5393176,4.77133858 12.5393176,5.28724409 C12.5393176,6.19769029 13.783622,5.98519685 15.3616273,7.25979003 C16.8183727,8.41301837 17.5770079,10.0517585 17.5770079,11.8726509 L17.5770079,36.9095013 C18.3908136,37.0304462 19.2124409,37.0913386 20.0351706,37.0915486 C20.8849344,37.0915486 21.7043045,37.0308661 22.4933333,36.9095013 L22.4933333,11.8726509 C22.4933333,10.0517585 23.252021,8.41301837 24.7087664,7.25979003 C26.2867717,6.01553806 27.5310236,6.1976378 27.5310236,5.28724409 C27.5310236,4.8016273 27.1061942,4.46782152 26.8027297,4.31611549" id="Fill-2"></path>
                <path d="M20.0351706,38.3054593 C9.92939633,38.3054593 1.70519685,30.111601 1.70519685,19.9754856 C1.70519685,9.83937008 9.89910761,1.64545932 20.0351706,1.64545932 C30.1409449,1.64545932 38.3651969,9.83937008 38.3651969,19.9754856 C38.3651969,30.111601 30.1408924,38.3054593 20.0351706,38.3054593 Z M20.0351706,0.0370603675 C8.98866142,0.0370603675 0.0360629921,8.95926509 0.0360629921,20.0058268 C0.0360629921,31.0523885 8.98866142,39.9745932 20.0048294,39.9745932 C31.0513911,39.9745932 39.9735958,31.0220472 39.9735958,20.0058268 C40.003937,8.95926509 31.0513911,0.0370603675 20.0351706,0.0370603675 L20.0351706,0.0370603675 Z" id="Fill-3"></path>
                <path d="M2.94944882,20.0058268 C2.94944882,26.0753281 6.1056168,31.4165354 10.9005249,34.4209449 L10.9005249,21.3411024 C8.95826772,21.4018373 8.22997375,22.5550656 8.01753281,23.0405774 C7.83543307,23.4047769 7.71406824,23.7992651 7.38020997,23.7992651 C6.80362205,23.7992651 6.34839895,22.1605249 6.34839895,20.1575853 C6.34839895,18.1546457 6.80362205,16.515853 7.38020997,16.515853 C7.71406824,16.515853 7.83543307,16.9103412 8.01753281,17.2745407 C8.22997375,17.7297638 8.95826772,18.9132808 10.9005249,18.9436745 L10.9005249,5.56036745 C6.1056168,8.59506562 2.94944882,13.936273 2.94944882,20.0058268 Z M34.3289239,23.0405774 C34.1468766,23.4047769 34.0254593,23.7992651 33.6916535,23.7992651 C33.1150656,23.7992651 32.6598425,22.1605249 32.6598425,20.1575853 C32.6598425,18.1546457 33.1150656,16.515853 33.6916535,16.515853 C34.0255118,16.515853 34.1468766,16.9103412 34.3289239,17.2745407 C34.5413648,17.7297638 35.2393701,18.8525984 37.0905512,18.9436745 C36.7566929,13.2990026 33.6916535,8.41301837 29.2001575,5.56036745 L29.2001575,34.4209449 C33.6005774,31.6289764 36.6353281,26.8340682 37.0905512,21.3411024 C35.2090289,21.4625197 34.5413648,22.5854068 34.3289239,23.0405774 L34.3289239,23.0405774 Z" id="Fill-4"></path>
            </g>
        </g>
    </g>
</svg>