<?xml version="1.0" encoding="UTF-8"?>
<svg width="40px" height="35px" viewBox="0 0 40 35" version="1.1" xmlns="http://www.w3.org/2000/svg" xmlns:xlink="http://www.w3.org/1999/xlink">
    <!-- Generator: Sketch 43 (38999) - http://www.bohemiancoding.com/sketch -->
    <title>hcl 浦发银行</title>
    <desc>Created with Sketch.</desc>
    <defs></defs>
    <g id="Page-1" stroke="none" stroke-width="1" fill="none" fill-rule="evenodd">
        <g id="银行卡管理" transform="translate(-27.000000, -99.000000)" fill-rule="nonzero" fill="#005094">
            <g id="hcl-浦发银行" transform="translate(27.000000, 99.000000)">
                <path d="M28.4122537,6.84344363 C30.6900293,7.74114883 32.4882732,9.63630425 33.2675122,11.9902868 C32.688078,11.8506437 32.1086439,11.8107457 31.4892488,11.8107457 C30.390322,11.8107457 29.3513366,12.0102358 28.3922732,12.3892669 L28.4122537,6.84344363 Z M28.4122537,28.0093373 C29.3713171,28.3883684 30.4302829,28.6078075 31.5491902,28.6078075 C36.1846634,28.6078075 39.9809561,24.8374456 39.9809561,20.1893276 L39.9809561,6.20507549 L33.7470439,0.000935109583 L33.7470439,14.0051362 L33.7270634,14.0051362 C33.7470439,14.2046263 33.7470439,14.4041163 33.7470439,14.6036064 L33.7470439,14.6235554 C33.7470439,18.1744782 31.5292098,21.2067268 28.4322341,22.4435651 L28.4122537,28.0093373 L28.4122537,28.0093373 Z M23.0574829,20.1693786 L23.0574829,20.1893276 C23.0574829,24.8174966 19.2811707,28.6078075 14.6456976,28.6078075 C13.5467707,28.6078075 12.4878049,28.3883684 11.5287415,28.0093373 L11.5287415,22.4635141 C14.6257171,21.2266758 16.8435512,18.1744782 16.8435512,14.6435044 L16.8435512,14.6036064 C16.8635317,9.99538633 20.6398439,6.2250245 25.2753171,6.2250245 C26.3742439,6.2250245 27.4332098,6.44446354 28.4122537,6.84344363 L28.4122537,12.3892669 C25.2952976,13.6061561 23.0774634,16.6384048 23.0574829,20.1693786 Z M28.4122537,22.4635141 C27.4332098,22.8425452 26.3942244,23.0420352 25.315278,23.0420352 C24.6958829,23.0420352 24.1164488,22.9821882 23.5370146,22.8624942 C24.3162537,25.1965277 26.1144976,27.0916831 28.4122537,28.0093373 L28.4122537,22.4635141 Z M11.548722,12.3693179 C12.5077854,11.9902868 13.5667512,11.7907967 14.665678,11.7907967 C15.2650927,11.7907967 15.8445268,11.8506437 16.423961,11.9703378 C15.644722,9.61635525 13.846478,7.72119983 11.548722,6.82349463 L11.548722,12.3693179 Z M11.548722,28.0093373 C9.25096585,27.1116321 7.45272195,25.1965277 6.67348293,22.8624942 C7.25291707,22.9821882 7.83235122,23.0420352 8.45174634,23.0420352 C9.55067317,23.0420352 10.5896585,22.8225962 11.5687024,22.4435651 L11.5687024,28.0093373 L11.548722,28.0093373 Z M11.548722,6.82349463 C10.569678,6.44446354 9.53069268,6.2250245 8.43176585,6.2250245 C3.7763122,6.2250245 0,9.99538633 0,14.6435044 L0,28.6477055 L6.2339122,34.8518459 L6.2339122,20.8276957 L6.25389268,20.8276957 C6.2339122,20.6481547 6.2339122,20.4486647 6.2339122,20.2491746 L6.2339122,20.2092766 C6.2339122,16.6783028 8.43176585,13.6460541 11.548722,12.3892669 L11.548722,6.82349463 L11.548722,6.82349463 Z" id="Shape"></path>
            </g>
        </g>
    </g>
</svg>