<?xml version="1.0" encoding="UTF-8"?>
<svg width="37px" height="40px" viewBox="0 0 37 40" version="1.1" xmlns="http://www.w3.org/2000/svg" xmlns:xlink="http://www.w3.org/1999/xlink">
    <!-- Generator: Sketch 43 (38999) - http://www.bohemiancoding.com/sketch -->
    <title>交通银行</title>
    <desc>Created with Sketch.</desc>
    <defs></defs>
    <g id="Page-1" stroke="none" stroke-width="1" fill="none" fill-rule="evenodd">
        <g id="银行卡管理" transform="translate(-28.000000, -95.000000)" fill="#1D1F86">
            <path d="M57.942704,125.021437 C55.5993179,125.09676 53.4335688,125.172619 51.0912546,125.247942 C49.607503,131.5581 37.338514,129.854324 38.7054811,121.846431 C39.3924482,117.10285 45.8023873,115.030889 49.7796346,118.613009 C50.6532034,119.600341 51.081754,120.517856 51.3621924,122.527406 C53.3273569,122.452083 55.9779781,122.376273 57.942704,122.30095 C58.0419976,112.095883 46.4509622,106.916736 37.7595615,111.868843 C29.4273812,116.615445 30.3892326,131.078636 39.1205847,134.772521 L39.1205847,135 C34.3595615,134.906212 29.1370037,131.218319 28,126.835956 L28.0643605,103.308648 C31.8435566,100.738319 36.0209013,97.6575883 39.8005847,95.0877467 L40.2546163,95.3147381 C39.9926918,98.8614373 40.158782,104.709622 40.3678441,108.977734 C42.7356395,106.679756 44.3311084,104.276541 48.4186602,103.478295 C51.0528624,102.963946 53.5748112,103.274251 55.1653106,103.818563 C67.106553,107.909574 67.8498904,123.339635 57.716687,128.650475 C57.4892083,128.650475 56.9962485,129.096955 56.6201218,129.170816 C56.6201218,129.095493 56.8571011,128.767698 57.0356638,128.423435 L57.942704,125.021437" id="交通银行"></path>
        </g>
    </g>
</svg>