<?xml version="1.0" encoding="UTF-8"?>
<svg width="40px" height="38px" viewBox="0 0 40 38" version="1.1" xmlns="http://www.w3.org/2000/svg" xmlns:xlink="http://www.w3.org/1999/xlink">
    <!-- Generator: Sketch 43 (38999) - http://www.bohemiancoding.com/sketch -->
    <title>华夏银行</title>
    <desc>Created with Sketch.</desc>
    <defs></defs>
    <g id="Page-1" stroke="none" stroke-width="1" fill="none" fill-rule="evenodd">
        <g id="银行卡管理" transform="translate(-25.000000, -97.000000)" fill-rule="nonzero" fill="#D6000F">
            <g id="华夏银行" transform="translate(25.000000, 97.000000)">
                <path d="M14.2162765,4.46528682 C16.1962096,2.83186182 18.5284281,1.46475612 21.4715719,0.679114199 C23.2240803,0.213055435 25.0078038,-5.15004706e-14 26.7335563,0.0310705843 C26.8361204,0.142036957 27.2954292,1.60679307 27.8573021,1.88198968 C28.4147157,2.15718628 30.5685619,1.4958267 31.6298774,2.92951223 C32.0981048,3.83943648 31.4336678,4.24335408 32.0267559,4.82037922 C36.0044593,7.12847976 36.7491639,4.26998601 38.3277592,6.94649491 C39.0278707,9.17469967 35.6031215,8.73527283 34.7068004,11.2786221 C34.4392419,10.8480726 33.516165,10.3642592 33.1906355,10.1378878 C30.3901895,8.39793506 27.0992196,7.74989145 23.6610925,8.66869301 C17.0746934,10.4264003 13.1415831,17.0577508 14.9074693,23.6092054 C16.6778149,30.1650987 23.3578595,33.9601486 29.9442586,32.2024413 C31.8885173,31.6831186 34.2519509,30.3737154 35.6477146,29.1220148 C36.8249721,28.2342838 37.819398,26.7606504 38.8940914,26.2857143 C38.8940914,26.2857143 38.180602,27.1290587 38.0111483,27.7904183 C38.0111483,27.7859796 38.3232999,27.88363 38.9253066,27.2932889 C39.5273133,26.7029478 39.9821628,25.5844068 39.9554069,25.5755295 C39.9018952,25.9794471 40.1516165,27.0047764 39.03233,28.4029527 C38.3545151,29.3572635 37.6454849,30.0097457 37.6588629,30.0230617 C37.8595318,29.9431659 38.2697882,29.6679693 38.8227425,29.2951223 C39.3043478,28.9444686 39.9509476,27.7726637 39.9509476,27.7726637 C39.9152731,28.3363728 39.148272,30.5290684 38.1895206,31.6564867 C36.6956522,33.671636 34.8807135,35.0032325 34.8807135,35.0032325 C33.9397993,35.7400492 32.9944259,36.3437063 31.2285396,36.8719062 C21.1861761,39.5572924 10.9074693,33.6050562 8.18729097,23.7024171 C7.53623188,21.3943166 7.53623188,18.7444396 7.73690078,16.1966517 C7.76365663,16.2232836 5.91750279,17.3107541 3.77257525,17.2929995 C1.51170569,17.2752448 0,15.4642737 0,13.4269311 C0,11.5138708 2.25641026,8.8861871 2.26086957,9.01046944 C2.28762542,9.09924253 2.13600892,11.2120423 4.20512821,11.2741834 C8.41471572,10.8525112 10.4437012,7.5679066 13.7346711,4.87808173 L14.2162765,4.46528682 L14.2162765,4.46528682 Z" id="Shape"></path>
                <path d="M23.3177258,15.7882955 L32.4013378,15.7882955 C33.4269788,15.7882955 34.2608696,16.6183239 34.2608696,17.6392146 L34.2608696,23.3073769 C34.2608696,24.3282675 33.4269788,25.1582959 32.4013378,25.1582959 L23.3177258,25.1582959 C22.2920847,25.1582959 21.458194,24.3282675 21.458194,23.3073769 L21.458194,17.6392146 C21.458194,16.6138853 22.2920847,15.7882955 23.3177258,15.7882955 Z" id="Shape"></path>
            </g>
        </g>
    </g>
</svg>