<?xml version="1.0" standalone="no"?><!DOCTYPE svg PUBLIC "-//W3C//DTD SVG 1.1//EN" "http://www.w3.org/Graphics/SVG/1.1/DTD/svg11.dtd"><svg t="1507602484423" class="icon" style="" viewBox="0 0 1024 1024" version="1.1" xmlns="http://www.w3.org/2000/svg" p-id="2247" xmlns:xlink="http://www.w3.org/1999/xlink" width="200" height="200"><defs><style type="text/css"></style></defs><path d="M527.487 437.733h35.348l79.43 2.782 11.12 0.792 63.546 4.766 20.652 2.384 49.646 5.957 38.125 6.353 36.539 6.355 10.723 2.384 20.654 4.764 9.929 2.384 19.063 4.765 18.27 4.766 8.736 2.382 16.681 4.765 15.887 5.56 15.09 5.561 7.149 2.78L510.411 15.556 19.925 505.645l7.944-2.781 8.34-2.78 8.738-2.78 18.269-5.56 9.533-2.78 9.929-2.779 9.93-2.384 10.327-2.384 21.446-4.765 11.12-2.384 11.519-2.382 11.516-1.987 23.83-3.97 49.646-7.945 10.326-1.587 72.68-8.342 86.976-6.355 79.034-2.779h46.467z m5.872 524.59L944.449 549.9l-5.33-0.334-28.984-1.665-18.989-0.997h-71.29l-66.296 2.665-8.661 0.665-36.311 2.665-19.323 1.333-27.65 1.999-25.652 1.999-8.329 0.999-7.995 0.666-7.996 0.999-7.661 1-14.66 1.998-13.992 2-13.324 1.998-6.33 1-11.993 1.998-11.328 1.999-10.66 2-9.994 2-9.327 1.999-4.331 1.333-7.996 2.664-6.662 2-3.332 1.332-2.998 0.998-2.998 1.333-7.996 3.996-9.326 5.33-5.997 3.998-3.33 2.665-3.998 4.995-2.998 4.997-1.999 4.997-0.665 3.33v4.997l0.331 1.665v2.001l0.332 0.998 1.334 5.33 3.33 6.663 0.999 1.333 2.998 2.998 9.66 8.33 5.332 3.663 4.663 2.999 3.998 2.664 3.663 2.333 2.999 1.998 2.332 1.666 2 1.333 1.33 1.331 1.334 1 1.999 1.998 4.997 6.664 4.663 9.327 2.333 9.329v12.992l-0.666 3.33-0.668 2.333-0.997 1.999-1 2.332-1.333 2.333-3.33 4.663-1.999 2.333-2.332 2.33-5.33 4.666-2.997 2.33-6.665 4.664-3.663 2.333-3.998 2.332-8.661 4.664-4.663 2.332-9.995 4.664-5.33 2.332-11.328 4.664-5.997 2.332-12.658 4.663-6.662 2.333-13.992 4.663-7.33 2.333-7.664 2.33-7.995 2.333 172.564 173.898z" fill="#FFB200" p-id="2248"></path><path d="M510.409 1001.693l490.088-491.675-6.355-0.398-34.552-1.984-22.638-1.192h-84.99l-79.037 3.176-10.326 0.795-43.288 3.176-23.036 1.59-32.963 2.383-30.58 2.384-9.93 1.19-9.532 0.795-9.532 1.19-9.136 1.192-17.474 2.381-16.68 2.384-15.887 2.384-7.545 1.19-14.299 2.384-13.504 2.384-12.708 2.384-11.915 2.384-11.121 2.383-5.161 1.588-9.533 3.176-7.945 2.384-3.969 1.59-3.575 1.19-3.574 1.588-9.532 4.764-11.12 6.355-7.15 4.766-3.97 3.176-4.765 5.956-3.573 5.957-2.384 5.958-0.795 3.969v5.958l0.397 1.986v2.382l0.396 1.192 1.589 6.355 3.971 7.942 1.19 1.59 3.574 3.573 11.518 9.93 6.355 4.37 5.56 3.573 4.766 3.176 4.368 2.78 3.574 2.383 2.779 1.987 2.384 1.59 1.589 1.586 1.587 1.192 2.384 2.382 5.958 7.944 5.56 11.121 2.78 11.12v15.49l-0.795 3.97-0.793 2.78-1.192 2.384-1.19 2.78-1.59 2.78-3.97 5.56-2.384 2.78-2.78 2.78-6.354 5.561-3.574 2.78-7.944 5.56-4.368 2.78-4.764 2.78-10.326 5.56-5.56 2.781-11.916 5.56-6.355 2.78-13.504 5.56-7.148 2.781-15.091 5.56-7.945 2.78-16.678 5.56-8.74 2.78-9.135 2.78-9.532 2.78L510.8 1008.442z" fill="#0035D9" p-id="2249"></path></svg>