<?xml version="1.0" encoding="UTF-8"?>
<svg width="35px" height="33px" viewBox="0 0 35 33" version="1.1" xmlns="http://www.w3.org/2000/svg" xmlns:xlink="http://www.w3.org/1999/xlink">
    <!-- Generator: Sketch 43 (38999) - http://www.bohemiancoding.com/sketch -->
    <title>hcl 邮政储蓄</title>
    <desc>Created with Sketch.</desc>
    <defs></defs>
    <g id="Page-1" stroke="none" stroke-width="1" fill="none" fill-rule="evenodd">
        <g id="银行卡管理" transform="translate(-29.000000, -99.000000)" fill="#067E40">
            <path d="M32.1812482,117.067511 L32.0256598,118.018433 L37.0396102,118.018433 L37.264382,117.067511 L32.1812482,117.067511 Z M44.923632,118.018433 L45.0965268,117.067511 L39.4082611,117.067511 L39.1834894,118.018433 L44.923632,118.018433 Z M48.0875739,113.229212 L47.3095471,117.067511 L47.0848175,118.018433 L46.3067907,121.85669 L38.4054626,121.85669 L38.2325678,122.755735 L47.4824419,122.755735 L48.7100122,117.067511 L49.488039,113.229212 L60.5706153,113.229212 L59.7407116,117.067511 L50.8885041,117.067511 L48.882907,126.593992 L37.4027063,126.593992 L37.2470756,127.493036 L50.0931709,127.493036 L51.3207412,121.873954 L52.098768,118.035697 L59.5505104,118.035697 L58.7724836,121.873954 L53.4819268,121.873954 L52.3234975,127.493036 L51.4763297,131.331336 L34.2214158,131.331336 L36.2270129,121.873954 L29,121.873954 L29.8299037,118.035697 L30.0027985,117.084775 L30.8327022,113.246518 L38.0078382,113.246518 L40.0133931,103.789179 L47.914679,103.789179 L48.9174776,99 L63.5789687,99 L62.7318009,102.838257 L50.2660658,102.838257 L50.0931709,103.789179 L49.3151441,107.644742 L41.4138582,107.644742 L41.1890865,108.526481 L50.4908375,108.526481 L50.646426,107.627436 L51.4763297,103.789179 L62.558906,103.789179 L61.7290024,107.644742 L52.8767948,107.644742 L51.8739963,112.364738 L40.4110597,112.364738 L40.1862879,113.263825 L48.0875739,113.229212 L48.0875739,113.229212 Z" id="hcl-邮政储蓄"></path>
        </g>
    </g>
</svg>