<?xml version="1.0" encoding="UTF-8"?>
<svg width="40px" height="40px" viewBox="0 0 40 40" version="1.1" xmlns="http://www.w3.org/2000/svg" xmlns:xlink="http://www.w3.org/1999/xlink">
    <!-- Generator: Sketch 43 (38999) - http://www.bohemiancoding.com/sketch -->
    <title>中国银行</title>
    <desc>Created with Sketch.</desc>
    <defs></defs>
    <g id="Page-1" stroke="none" stroke-width="1" fill="none" fill-rule="evenodd">
        <g id="银行卡管理" transform="translate(-27.000000, -95.000000)" fill="#BF1B30">
            <path d="M66.9801606,114.124519 C66.7225223,107.041653 62.3329421,102.215037 62.3329421,102.215037 C55.5445281,94.278044 46.838586,95.0182947 46.838586,95.0182947 C37.5411808,94.7219538 31.8239966,101.773151 31.8239966,101.773151 C27.912864,106.445908 27.4709706,110.752095 27.4709706,110.752095 C25.7363785,117.98428 29.3514497,124.217231 29.3514497,124.217231 C32.0443112,129.114021 34.8848735,131.379897 39.4954278,133.527412 C44.1072465,135.682748 51.1183387,135.386407 55.4713098,133.197652 C59.8237311,131.006435 62.4799834,128.595397 64.9147119,124.033836 C67.3481211,119.468063 66.9801606,114.124519 66.9801606,114.124519 Z M44.9568976,130.562526 C44.9568976,130.562526 37.6522175,130.154934 33.6312574,123.10401 C33.6312574,123.10401 30.1620181,118.131302 31.6006038,111.935764 C33.0404539,105.74017 36.3973921,103.256278 37.0626783,102.62591 C37.7267001,101.996418 42.0248124,99.4223324 44.9568976,99.4696442 L44.9568976,106.853719 L41.8582023,106.853719 C41.8582023,106.853719 37.6522725,107.113359 37.5045716,111.787867 L37.5045716,118.614757 C37.5045716,118.614757 37.6156084,122.808818 41.9686893,123.289811 L44.9568976,123.289811 L44.9568976,130.562416 L44.9568976,130.562526 Z M42.4471369,118.949986 C42.4471369,118.949986 41.7104464,119.13524 41.5999593,118.283137 L41.5999593,111.752369 C41.5999593,111.752369 41.7104464,111.048163 42.2633765,111.048163 L51.3753723,111.048163 C51.3753723,111.048163 52.1516952,110.896929 52.2243639,111.752369 L52.2243639,118.096133 C52.2243639,118.096133 52.4099382,119.098157 51.6713788,118.949986 L42.4471369,118.949986 Z M60.1936155,123.734377 C57.2413567,128.260113 51.6334504,130.339586 49.0151265,130.562471 L49.0151265,123.289866 L52.4824969,123.289866 C52.4824969,123.289866 56.1738647,122.548959 56.3936295,118.688869 L56.3936295,110.935216 C56.3936295,110.935216 55.800957,107.041653 51.7097469,106.853719 L49.0151265,106.853719 L49.0151265,99.4714491 C49.0151265,99.4714491 53.6263404,99.840754 57.3518988,103.293033 C61.0781167,106.742577 62.0363311,110.192778 62.4433743,112.049038 C62.8487134,113.904424 63.1440602,119.20804 60.1936155,123.734377 Z" id="中国银行"></path>
        </g>
    </g>
</svg>