<?xml version="1.0" encoding="UTF-8"?>
<svg width="40px" height="26px" viewBox="0 0 40 26" version="1.1" xmlns="http://www.w3.org/2000/svg" xmlns:xlink="http://www.w3.org/1999/xlink">
    <!-- Generator: Sketch 43 (38999) - http://www.bohemiancoding.com/sketch -->
    <title>兴业银行</title>
    <desc>Created with Sketch.</desc>
    <defs></defs>
    <g id="Page-1" stroke="none" stroke-width="1" fill="none" fill-rule="evenodd">
        <g id="银行卡管理" transform="translate(-27.000000, -102.000000)" fill="#004185">
            <path d="M66.9964844,114.558778 C66.9964844,109.439333 60.047998,105.289362 51.477002,105.289362 C44.6165039,105.289362 38.7955078,107.952169 36.7484863,111.638368 L36.7484863,111.634857 C36.5571289,111.972267 36.4554199,112.352918 36.4529785,112.740639 C36.4529785,113.659702 37.0334961,114.477899 37.9399902,115.012069 L45.8075195,119.546447 C46.2425781,119.780698 46.7296875,119.902089 47.2240234,119.899359 C47.7185547,119.90204 48.205957,119.781429 48.6419922,119.548445 L56.1040039,115.244175 C56.6084961,114.953129 56.9274902,114.498375 56.9274902,113.990189 C56.9274902,113.496921 56.6254883,113.059133 56.1484863,112.7656 L53.3740234,111.1646 L47.2234863,114.708542 L42.5720215,112.024236 C44.3685059,110.407782 47.7180176,109.319502 51.5535156,109.319502 C57.2879883,109.319502 61.9384766,111.750691 61.9384766,114.75198 C61.8154785,119.39717 54.9930176,122.99152 46.7035156,122.776868 C38.4120117,122.557681 31.7915039,118.610905 31.9125,113.966691 L31.910498,113.966691 C31.9689941,107.84082 40.0129883,102.950996 49.8725098,103.04689 C50.7535156,103.056348 51.6129883,103.102759 52.4544922,103.187148 C50.4319824,102.442322 47.9049805,102 45.1549805,102 C42.9595215,102 40.9024902,102.284075 39.1339844,102.77627 C31.9990234,104.731742 27,109.271579 27,114.558778 C27,121.639154 35.9540039,127.380131 47,127.380131 C58.0459961,127.380131 67,121.639154 67,114.558778 L66.9964844,114.558778" id="兴业银行"></path>
        </g>
    </g>
</svg>