<?xml version="1.0" encoding="UTF-8"?>
<svg width="40px" height="18px" viewBox="0 0 40 18" version="1.1" xmlns="http://www.w3.org/2000/svg" xmlns:xlink="http://www.w3.org/1999/xlink">
    <!-- Generator: Sketch 43 (38999) - http://www.bohemiancoding.com/sketch -->
    <title>光大银行</title>
    <desc>Created with Sketch.</desc>
    <defs></defs>
    <g id="Page-1" stroke="none" stroke-width="1" fill="none" fill-rule="evenodd">
        <g id="银行卡管理" transform="translate(-27.000000, -104.000000)">
            <g id="光大银行" transform="translate(27.000000, 104.000000)">
                <path d="M0.0135775336,0.0218871866 L8.95824176,0.0218871866 C8.95824176,0.0218871866 10.6475214,0.0218871866 10.9658608,0.499846797 L9.30915751,0.499846797 L9.30915751,1.00720056 L11.8563126,1.03864206 C11.8563126,1.03864206 12.2695482,1.32468663 12.2695482,1.54794568 L9.30964591,1.57963092 L9.30964591,2.05617688 L12.5889621,2.05617688 C12.5889621,2.05617688 12.9696703,2.24672702 12.8769231,2.65970752 L2.65675214,2.65970752 L2.65675214,3.20098886 L13.0336508,3.16852368 C13.0336508,3.16852368 13.0960195,3.5812117 13.0960195,3.7092688 L2.65675214,3.7092688 L2.65675214,4.24806407 L13.1301587,4.21667131 C13.1301587,4.21667131 13.1925763,4.53488858 13.033602,4.75683148 L2.65724054,4.85261838 L2.65724054,5.36143454 L12.8769231,5.29728412 C12.8769231,5.29728412 12.8769231,5.71104457 12.6192918,5.8379805 L2.65728938,5.90159471 L2.65728938,6.37711699 L12.3015385,6.314039 C12.3015385,6.314039 12.2695971,6.82202646 11.9186813,6.91732591 L2.65680098,6.94871866 L2.65680098,7.45909471 L11.1546276,7.39494429 C11.1546276,7.39494429 10.9664469,8.02933148 9.66007326,7.96571727 L8.06842491,7.93544568 L8.06842491,8.41199164 L10.6475702,8.44396936 C10.6475702,8.44396936 11.7267399,8.44396936 11.8905006,8.88834262 L8.06837607,8.98437326 L8.06837607,9.46067549 L12.5580464,9.46067549 C12.5580464,9.46067549 12.9702076,9.77733287 12.9702076,9.96866295 L2.65728938,10.0314485 L2.65728938,10.6041226 L13.1925763,10.5096518 C13.1925763,10.5096518 13.6074237,10.7937953 13.6074237,11.0785237 L2.65728938,11.1426253 L2.65728938,11.620585 L13.7679121,11.620585 C13.7679121,11.620585 13.8937241,11.7789136 13.8302808,12.0666156 L2.65728938,12.1612813 L2.65728938,12.6375836 L13.8303297,12.6375836 C13.8303297,12.6375836 13.9246398,12.9234331 13.8303297,13.1442061 L2.65728938,13.2097214 L2.65728938,13.7182451 L13.7343101,13.7182451 C13.7343101,13.7182451 13.8302808,14.03461 13.5748962,14.2890181 L2.65728938,14.2890181 L2.65728938,14.7967618 L13.3525763,14.7650279 C13.3525763,14.7650279 13.3189744,15.2749164 13.0966056,15.3054805 L9.30974359,15.3054805 L9.30974359,15.8462256 L12.589011,15.8142967 C12.589011,15.8142967 12.366105,16.3228203 12.1437363,16.386727 L9.30969475,16.418656 L9.30969475,16.9585237 L11.2186081,16.9268384 C11.2186081,16.9268384 10.9322589,17.5316852 8.41758242,17.4353621 L0.0141147741,17.4039206 L0.0141147741,0.0218871866 L0.0135775336,0.0218871866" id="Fill-1" fill="#E4BC55"></path>
                <path d="M22.9012943,8.66449861 L22.965812,17.3092061 L25.3844689,17.3389903 L25.3541392,13.1439136 C25.2255922,11.1743593 25.992967,10.8898747 25.992967,10.8898747 C27.7098413,9.80926184 28.3801709,11.4939415 28.3801709,11.4939415 L28.4099634,17.339039 L30.7965812,17.339039 L30.733138,10.8577019 C30.2260806,7.83961003 27.6442002,8.34764624 27.6442002,8.34764624 C26.6273504,8.21958914 25.2878632,9.58712396 25.2878632,9.58712396 L25.321514,8.66449861 L22.9012943,8.66449861 Z M31.6572405,5.13817549 L31.7191209,17.3092061 L34.1062759,17.3092061 L34.0759463,15.3696309 L35.2532845,13.7807382 L37.1962882,17.3389903 L39.9961905,17.2434958 L36.9739683,11.7147632 L39.4864469,8.25205432 L36.7191209,8.25205432 L34.0103541,11.7785724 L33.8872772,5.1708844 L31.6572894,5.13817549 L31.6572405,5.13817549 Z M22.0720879,16.349046 L21.9767033,10.6305919 C21.849768,7.54786212 16.8839072,8.56466574 16.8839072,8.56466574 C14.2125519,9.01059889 14.4972894,11.360766 14.4972894,11.360766 L16.8839072,11.328837 C16.9484737,9.93103064 19.048254,10.4076253 19.048254,10.4076253 C20.4826374,11.5826602 18.7949695,11.8689972 18.7949695,11.8689972 C18.0309158,11.8689972 15.5476923,12.5677786 15.5476923,12.5677786 C14.0200733,13.1402089 14.116044,14.7596657 14.116044,14.7596657 C14.116044,17.205571 16.3422222,17.3655571 16.3422222,17.3655571 C18.4121612,17.8423955 19.6860073,16.5089833 19.6860073,16.5089833 L19.8459585,17.3980223 L22.3909646,17.3360167 L22.0721368,16.3489972 L22.0720879,16.349046 Z M19.6990476,14.2878969 C19.6990476,14.2878969 19.4517216,15.0859749 18.7147253,15.4337326 C18.7147253,15.4337326 17.1095482,16.2905989 16.5997558,15.1152228 C16.5997558,15.1152228 16.4294994,14.3688162 17.1616117,14.0827716 C17.1616117,14.0827716 19.0688645,13.3986142 19.7185836,13.1775 C19.7185836,13.1775 19.786862,13.6760306 19.6990476,14.2878969 L19.6990476,14.2878969 Z" id="Fill-2" fill="#631E7B"></path>
            </g>
        </g>
    </g>
</svg>