<?xml version="1.0" encoding="UTF-8"?>
<svg width="40px" height="40px" viewBox="0 0 40 40" version="1.1" xmlns="http://www.w3.org/2000/svg" xmlns:xlink="http://www.w3.org/1999/xlink">
    <!-- Generator: Sketch 43 (38999) - http://www.bohemiancoding.com/sketch -->
    <title>农业银行</title>
    <desc>Created with Sketch.</desc>
    <defs></defs>
    <g id="Page-1" stroke="none" stroke-width="1" fill="none" fill-rule="evenodd">
        <g id="银行卡管理" transform="translate(-26.000000, -95.000000)" fill="#008566">
            <g id="农业银行" transform="translate(26.000000, 95.000000)">
                <path d="M19.9804878,0.0390243902 C19.3810732,0.0390243902 18.7816585,0.0590243902 18.1822439,0.118926829 L18.1822439,9.7695122 C18.1822439,10.2090732 18.5419024,10.5687317 18.9814634,10.5687317 L20.9795122,10.5687317 C21.4190732,10.5687317 21.7787317,10.2090732 21.7787317,9.7695122 L21.7787317,0.118926829 C21.1793171,0.0590243902 20.5799024,0.0390243902 19.9804878,0.0390243902 Z M21.1993171,13.1262439 L23.9965854,13.1262439 C24.4361463,13.1262439 24.7958049,12.7665854 24.7958049,12.3270244 L24.7958049,2.03707317 L26.7938537,2.03707317 L26.7938537,18.4210732 C26.7938537,18.9405854 26.3742439,19.3401951 25.8747317,19.3401951 L21.3391707,19.3401951 C20.46,19.3401951 20.4200488,19.7997073 20.4200488,19.7997073 L20.4200488,13.9054634 C20.4000976,13.4859024 20.7597073,13.1262439 21.1993171,13.1262439 L21.1993171,13.1262439 Z" id="Fill-1"></path>
                <path d="M18.8016585,13.1262439 L16.0043902,13.1262439 C15.5647805,13.1262439 15.2051707,12.7665854 15.2051707,12.3270244 L15.2051707,2.03707317 L13.207122,2.03707317 L13.207122,18.4210732 C13.207122,18.9405854 13.6266829,19.3401951 14.1261951,19.3401951 L18.6617561,19.3401951 C19.5409268,19.3401951 19.580878,19.7997073 19.580878,19.7997073 L19.580878,13.9054634 C19.600878,13.4859024 19.2412195,13.1262439 18.8016585,13.1262439 Z M14.0063415,26.3932683 L17.2032195,26.3932683 C17.6427805,26.3932683 18.002439,26.7529268 18.002439,27.1924878 L18.002439,39.6003902 L19.600878,39.6003902 L19.600878,21.098439 C19.600878,20.5789756 19.1812683,20.1793659 18.6817561,20.1793659 L14.1461951,20.1793659 C13.2670244,20.1793659 13.2270732,19.7198049 13.2270732,19.7198049 L13.2270732,25.6140488 C13.207122,26.0336585 13.5667317,26.3932683 14.0063415,26.3932683 Z M25.9946341,26.3932683 L22.7977561,26.3932683 C22.3581463,26.3932683 21.9985366,26.7529268 21.9985366,27.1924878 L21.9985366,39.6003902 L20.4000976,39.6003902 L20.4000976,21.098439 C20.4000976,20.5789756 20.8196585,20.1793659 21.3191707,20.1793659 L25.8547317,20.1793659 C26.7339024,20.1793659 26.7738537,19.7198049 26.7738537,19.7198049 L26.7738537,25.6140488 C26.7938537,26.0336585 26.4341951,26.3932683 25.9946341,26.3932683 L25.9946341,26.3932683 Z" id="Fill-2"></path>
                <path d="M24.7958049,0.618439024 L24.7958049,4.77439024 C31.2694634,6.81239024 35.964878,12.8664878 35.964878,20.0195122 C35.964878,28.850878 28.8118537,36.0039024 19.9804878,36.0039024 C11.149122,36.0039024 3.99609756,28.850878 3.99609756,20.0195122 C3.99609756,12.8465366 8.7115122,6.79243902 15.2051707,4.75443902 L15.2051707,0.598487805 C6.47365854,2.75639024 0,10.6286829 0,20.0195122 C0,31.0487317 8.95126829,40 19.9804878,40 C31.0097073,40 39.9609756,31.0487317 39.9609756,20.0195122 C39.9609756,10.6486829 33.5072683,2.77634146 24.7958049,0.618439024" id="Fill-3"></path>
                <path d="M20.9595122,37.2027317 L18.9614634,37.2027317 C18.5219024,37.2027317 18.1622439,36.8430732 18.1622439,36.4035122 L18.1622439,26.4132683 L21.7587317,26.4132683 L21.7587317,36.4035122 C21.7587317,36.8430732 21.399122,37.2027317 20.9595122,37.2027317" id="Fill-4"></path>
            </g>
        </g>
    </g>
</svg>