<?xml version="1.0" encoding="UTF-8"?>
<svg width="38px" height="38px" viewBox="0 0 38 38" version="1.1" xmlns="http://www.w3.org/2000/svg" xmlns:xlink="http://www.w3.org/1999/xlink">
    <!-- Generator: Sketch 43 (38999) - http://www.bohemiancoding.com/sketch -->
    <title>招商银行</title>
    <desc>Created with Sketch.</desc>
    <defs></defs>
    <g id="Page-1" stroke="none" stroke-width="1" fill="none" fill-rule="evenodd">
        <g id="银行卡管理" transform="translate(-27.000000, -97.000000)" fill-rule="nonzero" fill="#E41E26">
            <g id="招商银行" transform="translate(27.000000, 97.000000)">
                <path d="M17.4253293,26.680851 L22.576697,13.6676798 L27.9513678,26.680851 L17.4253293,26.680851 Z M6.63748735,26.680851 L11.7888551,13.6676798 L17.1635258,26.680851 L6.63748735,26.680851 Z M37.4301925,23.7163121 L37.2145897,24.4555218 L33.7649443,24.4555218 L33.4107396,23.7163121 L37.4301925,23.7163121 L37.4301925,23.7163121 Z M37.6534954,22.6690983 L32.9718338,22.6690983 L32.6253293,21.8836879 L37.7843972,21.8836879 L37.6534954,22.6690983 Z M37.9075988,20.8364742 L32.1864235,20.8364742 L31.8399189,20.0433637 L38,20.0433637 L37.9075988,20.8364742 Z M38,18.9961499 L31.4010132,18.9961499 L31.0930091,18.2107396 L38,18.2107396 L38,18.9961499 Z M37.9075988,17.1635258 L30.6156028,17.1635258 L30.3075988,16.3781155 L37.8228977,16.3781155 L37.9075988,17.1635258 Z M37.6534954,15.3309017 L29.8763931,15.3309017 L29.5221885,14.5454914 L37.4763931,14.5454914 L37.6534954,15.3309017 Z" id="Shape"></path>
                <polygon id="Shape" points="19.0038501 0 19.7815603 0 20.6131712 0.0847011094 21.3985816 0.130901725 22.1454914 0.261803449 22.9309017 0.392705174 23.6701115 0.562107393 24.4170213 0.785410348 25.156231 1.00101318 25.5027356 1.13191491 25.8569402 1.26281663 26.5576494 1.57082066 27.2506586 1.87882472 27.9051672 2.22532928 28.5596758 2.57183384 29.2218845 2.96453901 29.8301925 3.40344477 30.4462006 3.84235055 31.008308 4.28125634 31.5781155 4.75866263 32.147923 5.28226949 32.6715299 5.80587639 33.1951368 6.32948329 33.6725431 6.89929076 33.895846 7.20729483 34.1114488 7.50759877 34.5888551 8.1236069 34.9892604 8.73191491 35.3819655 9.347923 35.7669706 10.0024316 36.0749747 10.6954407 36.4291793 11.3576494 36.6909828 12.0506586 36.9527862 12.7975684 37.2145897 13.4982776 29.0909828 13.4982776 24.0628166 1.747923 18.8267477 14.9843972 13.3211753 1.87882472 3.62674772 26.904154 8.03890579 32.4097264 30.4847011 32.4097264 34.5888551 26.4190476 34.1961499 25.5027356 36.860385 25.5027356 36.5985816 26.2034448 36.2905775 26.8579534 35.9902736 27.512462 35.6822695 28.1284701 35.2895644 28.7829787 34.9430598 29.3912867 34.504154 29.9610942 34.1114488 30.5232016 33.6725431 31.1007092 33.1951368 31.6628166 32.7177305 32.147923 32.1864235 32.6715299 31.6628166 33.1489362 31.1392097 33.6340425 30.5771023 34.0729483 30.0072948 34.504154 29.4374873 34.8968592 28.8291793 35.2895644 28.2131712 35.6360689 27.5586626 35.9902736 26.904154 36.2905775 26.2496454 36.5600811 25.5489362 36.8218845 24.8944276 37.0836879 24.1937184 37.2992908 23.4545086 37.4763931 22.7537994 37.6534954 22.0145897 37.7843972 21.6680851 37.8228977 21.2676798 37.8690983 20.5284701 37.9537994 19.7815603 38 18.0413374 38 17.0788247 37.9075988 16.1163121 37.7843972 15.1537994 37.6072948 14.2374873 37.3839919 13.3673759 37.1683891 12.4895644 36.860385 11.6117528 36.5138805 10.7878419 36.1211753 9.95623101 35.7284701 9.56352583 35.4666667 9.17082066 35.2510638 8.38541035 34.7659575 7.63850049 34.2423506 6.89929076 33.6802432 6.5527862 33.3722391 6.24478218 33.0642351 5.89827762 32.756231 5.59027355 32.4482269 4.93576493 31.7937184 4.31975684 31.1007092 4.06565351 30.7465046 3.79614994 30.3537994 3.23404255 29.6145897 3.01073963 29.260385 2.74893618 28.8676798 2.53333335 28.4749747 2.31003039 28.0360689 1.87882472 27.2583586 1.48611955 26.3805471 1.17811548 25.5489362 0.870111457 24.6326241 0.608308008 23.7625127 0.477406283 23.2774063 0.392705174 22.8462006 0.308004064 22.3610942 0.215602834 21.8836879 0.0847011094 20.9673759 0.0385004941 19.9586626 0 19.4812563 0 18.9961499 0.0385004941 18.0413374 0.0847011094 17.0711246 0.215602834 16.1163121 0.392705174 15.1537994 0.608308008 14.2374873 0.870111457 13.3596758 1.17811548 12.4895644 1.48611955 11.6194529 1.87882472 10.7878419 2.31003039 9.95623101 2.53333335 9.56352583 2.74893618 9.17082066 3.23404255 8.38541035 3.79614994 7.63850049 4.31975684 6.89929076 4.6277609 6.5527862 4.93576493 6.24478218 5.24376899 5.89827762 5.59027355 5.59027355 6.24478218 4.93576493 6.89929076 4.31975684 7.29199594 4.05795339 7.63850049 3.79614994 8.38541035 3.23404255 8.77811548 3.01073963 9.17082066 2.74893618 9.56352583 2.52563322 9.95623101 2.31003039 10.7878419 1.87882472 11.6117528 1.48611955 12.4895644 1.13191491 13.3673759 0.870111457 14.2374873 0.608308008 14.7148936 0.477406283 15.1537994 0.392705174 15.6312057 0.308004064 16.1163121 0.215602834 17.0788247 0.0847011094 18.0413374 0.0385004941 18.5187437 0"></polygon>
            </g>
        </g>
    </g>
</svg>