<?xml version="1.0" encoding="UTF-8"?>
<svg width="39px" height="40px" viewBox="0 0 39 40" version="1.1" xmlns="http://www.w3.org/2000/svg" xmlns:xlink="http://www.w3.org/1999/xlink">
    <!-- Generator: Sketch 43 (38999) - http://www.bohemiancoding.com/sketch -->
    <title>建设银行</title>
    <desc>Created with Sketch.</desc>
    <defs></defs>
    <g id="Page-1" stroke="none" stroke-width="1" fill="none" fill-rule="evenodd">
        <g id="银行卡管理" transform="translate(-27.000000, -95.000000)" fill="#0066B3">
            <path d="M44.6823821,96.4094632 C44.6823821,96.4094632 48.0851299,93.7842616 53.9214915,95.6993686 C53.9214915,95.6993686 55.8812643,96.4094632 58.1641344,98.4536449 L65.2064979,105.834175 L61.4376433,109.578286 L50.6910447,98.6688219 C50.6910447,98.6688219 48.9035203,96.4524881 44.6823821,96.4094632 Z M60.1885267,110.890834 L55.7735827,115.172889 C55.7735827,115.172889 55.0629265,116.18421 54.4598993,115.237452 L46.3407202,107.318927 C46.3407202,107.318927 45.6300114,106.372117 45.0916036,107.211339 L36.9078051,115.560218 C36.9078051,115.560218 36.3693973,116.399387 37.0154867,116.743691 L45.0269842,124.726727 C45.0269842,124.726727 45.6946309,125.802612 46.2761008,124.963443 L54.5675808,116.614564 C54.5675808,116.614564 54.8044487,115.904469 56.1181848,116.076622 L64.5819658,116.076622 C64.5819658,116.076622 64.9480726,124.662164 58.3794975,130.020103 C58.3794975,130.020103 49.851097,138.541081 38.1569217,133.290783 C38.1569217,133.290783 26.8718627,129.353033 27.0011016,114.742535 C27.0011016,114.742535 27.302589,104.973466 36.1970963,99.7877319 C36.1970963,99.7877319 42.701052,94.9677352 47.8913241,98.5396947 L60.1885267,110.890834 L60.1885267,110.890834 Z" id="建设银行"></path>
        </g>
    </g>
</svg>