<?xml version="1.0" standalone="no"?><!DOCTYPE svg PUBLIC "-//W3C//DTD SVG 1.1//EN" "http://www.w3.org/Graphics/SVG/1.1/DTD/svg11.dtd"><svg t="1501056227157" class="icon" style="" viewBox="0 0 1024 1024" version="1.1" xmlns="http://www.w3.org/2000/svg" p-id="27985" xmlns:xlink="http://www.w3.org/1999/xlink" width="32" height="32"><defs><style type="text/css"></style></defs><path d="M601.073736 434.767543c0-50.338292-40.802284-91.137396-91.137396-91.137396-50.338292 0-91.137396 40.799104-91.137396 91.137396 0 50.335112 40.799104 91.137396 91.137396 91.137396C560.271452 525.90494 601.073736 485.102655 601.073736 434.767543L601.073736 434.767543zM439.050638 434.767543c0-39.142466 31.736876-70.885701 70.885701-70.885701 39.152005 0 70.882522 31.746416 70.882522 70.885701 0 39.152005-31.733697 70.882522-70.882522 70.882522C470.784335 505.653245 439.050638 473.919548 439.050638 434.767543L439.050638 434.767543zM671.956258 434.767543c0-89.477578-72.535981-162.023098-162.019918-162.023098-89.487117 0-162.023098 72.54552-162.023098 162.023098s162.023098 283.539626 162.023098 283.539626S671.956258 524.241941 671.956258 434.767543L671.956258 434.767543zM509.93634 292.99932c78.291291 0 141.771403 63.467393 141.771403 141.768223s-141.771403 253.160494-141.771403 253.160494-141.768223-174.859664-141.768223-253.160494S431.64187 292.99932 509.93634 292.99932L509.93634 292.99932zM581.556559 653.396179c-4.435722 6.086002-8.763333 11.923984-12.922419 17.463072 43.241136 4.979456 72.942986 15.291317 72.942986 27.196223 0 16.773071-58.939459 30.382312-131.643966 30.382312-72.707686 0-131.643966-13.609241-131.643966-30.382312 0-11.904906 29.70503-22.213588 72.942986-27.196223-4.159086-5.539088-8.486697-11.377071-12.919239-17.463072-47.77543 8.528034-80.275442 25.326543-80.275442 44.656116 0 27.965718 68.004867 50.630827 151.89566 50.630827 83.887614 0 151.89566-22.665109 151.89566-50.630827C661.832 678.722721 629.331989 661.927392 581.556559 653.396179L581.556559 653.396179zM581.556559 653.396179" p-id="27986"></path><path d="M1023.999968 511.999984c0 282.770132-229.229853 511.999984-511.999984 511.999984S0 794.770116 0 511.999984 229.229853 0 511.999984 0 1023.999968 229.229853 1023.999968 511.999984zM1001.468408 511.999984c0-269.892229-219.576195-489.468424-489.468424-489.468424S22.53474 242.107755 22.53474 511.999984c0 269.892229 219.576195 489.468424 489.468424 489.468424S1001.468408 781.892213 1001.468408 511.999984z" p-id="27987"></path></svg>