<?xml version="1.0" encoding="UTF-8"?>
<svg width="22px" height="15px" viewBox="0 0 22 15" version="1.1" xmlns="http://www.w3.org/2000/svg" xmlns:xlink="http://www.w3.org/1999/xlink">
    <!-- Generator: Sketch 48.2 (47327) - http://www.bohemiancoding.com/sketch -->
    <title>银行卡wechat@xhdpi</title>
    <desc>Created with Sketch.</desc>
    <defs></defs>
    <g id="我的微信" stroke="none" stroke-width="1" fill="none" fill-rule="evenodd" transform="translate(-63.000000, -153.000000)">
        <path d="M85,157 L63,157 L63,154.007484 C63,153.451066 63.4394583,153 64.0024617,153 L83.9975383,153 C84.5511826,153 85,153.44892 85,154.007484 L85,157 Z M85,158 L85,166.992516 C85,167.548934 84.5605417,168 83.9975383,168 L64.0024617,168 C63.4488174,168 63,167.55108 63,166.992516 L63,158 L85,158 Z M65.9664186,161 L65,165 L66.0335814,165 L67,161 L65.9664186,161 Z M67.9664186,161 L67,165 L68.0335814,165 L69,161 L67.9664186,161 Z" id="银行卡wechat" fill="#FFB83F"></path>
    </g>
</svg>