<?xml version="1.0" standalone="no"?><!DOCTYPE svg PUBLIC "-//W3C//DTD SVG 1.1//EN" "http://www.w3.org/Graphics/SVG/1.1/DTD/svg11.dtd"><svg t="1496657832536" class="icon" style="" viewBox="0 0 1484 1024" version="1.1" xmlns="http://www.w3.org/2000/svg" p-id="1005" xmlns:xlink="http://www.w3.org/1999/xlink" width="289.84375" height="200"><defs><style type="text/css"></style></defs><path d="M197.9904 682.6496h494.8992v-48.7424H197.9904v48.7424z m1237.2992 103.6288c0 104.3456-85.8624 188.928-191.744 188.928H241.2544c-105.8816 0-191.744-84.5824-191.744-188.928v-444.928h1385.7792v444.928zM241.3056 48.7424h1002.24c90.9824 0 167.0144 62.464 186.6752 146.3296H54.5792C74.24 111.104 150.272 48.7424 241.2544 48.7424z m0-48.7424C108.032 0 0 106.5472 0 237.7216v548.5568C0 917.504 108.032 1024 241.2544 1024h1002.2912C1376.768 1024 1484.8 917.4528 1484.8 786.2784V237.7216C1484.8 106.496 1376.768 0 1243.5456 0H241.2544z m-43.3152 533.9648H445.44v-48.7936H197.9904v48.7936z" p-id="1006" fill="#FB7280"></path></svg>