<?xml version="1.0" encoding="UTF-8"?>
<svg width="20px" height="16px" viewBox="0 0 20 16" version="1.1" xmlns="http://www.w3.org/2000/svg" xmlns:xlink="http://www.w3.org/1999/xlink">
    <!-- Generator: Sketch 48.2 (47327) - http://www.bohemiancoding.com/sketch -->
    <title>相机</title>
    <desc>Created with Sketch.</desc>
    <defs>
        <polygon id="path-1" points="0 0 20 0 20 16 0 16"></polygon>
    </defs>
    <g id="添加银行卡" stroke="none" stroke-width="1" fill="none" fill-rule="evenodd" transform="translate(-340.000000, -254.000000)">
        <g id="Group-2-Copy" transform="translate(0.000000, 187.000000)">
            <g id="相机" transform="translate(340.000000, 67.000000)">
                <mask id="mask-2" fill="white">
                    <use xlink:href="#path-1"></use>
                </mask>
                <g id="Clip-2"></g>
                <path d="M5.38886255,3.19996425 L1.60275032,3.19996425 C1.3907018,3.19910878 1.18685149,3.28265987 1.03632521,3.43204667 C0.885691983,3.58161169 0.800751384,3.78475064 0.800038496,3.99680076 L0.800038496,14.4032254 C0.800038496,14.8408706 1.1591558,15.2000975 1.60232259,15.2000975 L18.3975348,15.2000975 C18.6095834,15.2007748 18.8132911,15.1172593 18.9637817,14.9678369 C19.1141654,14.8184501 19.1992486,14.6153111 19.1999259,14.4032254 L19.1999259,3.99680076 C19.1975733,3.55555544 18.8387768,3.19939393 18.3975348,3.19996425 L14.5207789,3.19996425 C14.524379,3.0813388 14.5088024,2.96282029 14.4744055,2.84922074 L14.0975017,1.56644049 C13.9727463,1.14244719 13.5135395,0.800080174 13.0707648,0.800080174 L6.83869841,0.800080174 C6.39442664,0.800080174 5.93632485,1.14316008 5.81199719,1.56644049 L5.43520027,2.84922074 C5.39916378,2.97158887 5.384407,3.08925192 5.38886255,3.19996425 Z M4.70520301,2.40002665 L5.07237595,1.15078804 C5.25922388,0.515172358 5.94480822,0 6.60800787,0 L13.301491,0 C13.9627302,0 14.6504176,0.514067374 14.8375507,1.15078804 L15.2040107,2.40002665 L18.3966794,2.40002665 C18.8214893,2.39963456 19.2290473,2.56794868 19.5296365,2.86800547 C19.830404,3.16806227 19.9995723,3.57519565 20,4.00000878 L20,14.400053 C20,15.2836486 19.2823714,15.9999995 18.3971071,15.9999995 L1.60275032,15.9999995 C0.718448471,16.0007124 0.000819821136,15.2844684 0,14.400053 L0,4.00000878 C0,3.11641315 0.71762865,2.40002665 1.60275032,2.40002665 L4.70520301,2.40002665 Z M9.99992871,13.2000753 C7.56997886,13.2000753 5.59991303,11.2300303 5.59991303,8.80006209 C5.59991303,6.37009391 7.56997886,4.40004887 9.99992871,4.40004887 C12.4300211,4.40004887 14.3999088,6.37009391 14.3999088,8.80006209 C14.3999088,11.2300303 12.4300211,13.2000753 9.99992871,13.2000753 Z M9.99992871,12.4000308 C11.9882088,12.4000308 13.6000128,10.7882146 13.6000128,8.80006209 C13.6000128,6.81176697 11.9882088,5.20009339 9.99992871,5.20009339 C8.01179117,5.20009339 6.39998717,6.81176697 6.39998717,8.80006209 C6.39998717,10.7882146 8.01179117,12.4000308 9.99992871,12.4000308 Z M14.7999458,4.80005331 C14.7999458,4.5792346 14.9775975,4.40004887 15.1999829,4.40004887 L16.3999159,4.40004887 C16.6207329,4.40004887 16.7999173,4.5775593 16.7999173,4.80005331 C16.7999173,5.02090766 16.6224082,5.20009339 16.3999159,5.20009339 L15.1999829,5.20009339 C14.9791302,5.20009339 14.7999458,5.02244038 14.7999458,4.80005331 Z" id="Fill-1" fill="#1B88EE" mask="url(#mask-2)"></path>
            </g>
        </g>
    </g>
</svg>