<?xml version="1.0" encoding="UTF-8"?>
<svg width="64px" height="64px" viewBox="0 0 64 64" version="1.1" xmlns="http://www.w3.org/2000/svg" xmlns:xlink="http://www.w3.org/1999/xlink">
    <!-- Generator: Sketch 43 (38999) - http://www.bohemiancoding.com/sketch -->
    <title>订单</title>
    <desc>Created with Sketch.</desc>
    <defs></defs>
    <g id="Page-1" stroke="none" stroke-width="1" fill="none" fill-rule="evenodd" opacity="0.900000036">
        <g id="微信_关于我们" transform="translate(-247.000000, -1283.000000)" fill="#1B98F4">
            <g id="Group-3" transform="translate(40.000000, 1191.000000)">
                <g id="订单" transform="translate(207.000000, 92.000000)">
                    <path d="M34.376674,63.9447415 C33.9622759,63.9447415 33.5378755,63.932878 33.1014408,63.9093073 C31.7357167,63.8356293 30.6884298,62.6702829 30.7622759,61.3062244 C30.8361221,59.942322 32.0026569,58.896 33.3686935,58.9700683 C36.9122149,59.1612878 39.0155409,58.449639 40.8686496,56.4315317 C43.0319121,54.0757073 44.90737,49.8137756 47.0576606,44.1390829 C51.7066862,31.868878 56.4145543,17.4983805 58.2849328,11.6933463 L26.5152234,5.37576585 L15.3286642,36.0266927 C14.8602686,37.3100488 13.438906,37.9710439 12.1539048,37.5032976 C10.8689817,37.0355512 10.2070232,35.6158439 10.6754188,34.3325659 L22.589265,1.68889756 C23.0077265,0.542282927 24.2013773,-0.127843902 25.3994823,0.110282927 L61.9705201,7.3827122 C62.6604542,7.5198439 63.2593504,7.94349268 63.6177973,8.54805854 C63.9762442,9.15254634 64.0603272,9.88074146 63.8491038,10.5508683 C63.7883077,10.743961 57.6958046,30.0376976 51.6898071,45.8898732 C49.2695287,52.2764488 47.2257485,56.8267707 44.5186813,59.7749073 C41.8941343,62.6330537 38.7295336,63.9445073 34.376674,63.9447415" id="Fill-1"></path>
                    <path d="M34.615873,63.9708098 C31.5977924,64.2414049 28.0524737,62.5409561 28.0524737,62.5409561 L7.42540659,53.1890732 C7.42540659,53.1890732 -2.3277558,50.1385366 0.600849817,37.4644293 L28.7755409,48.8342634 C28.7755409,48.8342634 27.6897289,60.0676683 36.5118046,58.8311415 C38.0836728,60.4299707 37.4403907,63.4684878 34.615873,63.9708098 Z M47.6797656,23.9516098 C47.4633065,23.9516098 47.243409,23.9230439 47.0246838,23.8632585 L36.2113407,20.9081756 C34.8921123,20.5476683 34.1155165,19.1873561 34.4763858,17.8698927 C34.8374115,16.5524293 36.1993065,15.7766244 37.5185348,16.1370537 L48.3320342,19.0922146 C49.6512625,19.4526439 50.4278584,20.8130341 50.066989,22.1304976 C49.7658999,23.2294244 48.7682344,23.9516098 47.6797656,23.9516098 Z M43.2943199,34.6850341 C43.0319121,34.684878 42.7711453,34.643122 42.5218657,34.5611707 L31.7470476,31.0300878 C30.4475116,30.6042537 29.7398388,29.2067902 30.1661148,27.9089951 C30.592547,26.611122 31.9917167,25.904078 33.2911746,26.3301463 L44.0660708,29.8612293 C45.3655287,30.2870634 46.0732796,31.6845268 45.6470037,32.9822439 C45.3046545,34.024039 44.3354335,34.6850341 43.294398,34.6850341 L43.2943199,34.6850341 Z M39.2448938,44.6673951 C38.9889719,44.6673951 38.7288303,44.6274341 38.4723614,44.5435317 L27.6986374,41.0123707 C26.3991013,40.5864585 25.6914286,39.1890732 26.1178608,37.891278 C26.544293,36.5934829 27.9433065,35.886361 29.2429988,36.3125073 L40.0166447,39.8435902 C41.3161807,40.2695805 42.0237753,41.6668878 41.5974994,42.9646829 C41.255072,44.0064 40.2860855,44.6673951 39.2448938,44.6673951 Z M29.5881612,18.7550439 C29.4183541,18.7550439 29.2462027,18.737561 29.073348,18.7010341 L28.9507399,18.675122 C28.8618901,18.6564683 28.7730403,18.6378146 28.6863785,18.619161 C27.3494115,18.3313171 26.4994383,17.0153366 26.7876337,15.6801561 C27.0760635,14.3448976 28.3939634,13.4961171 29.7304615,13.7838829 C29.8086838,13.8007415 29.8890159,13.8176 29.9692698,13.8344585 L30.0981294,13.8613854 C31.4361123,14.144 32.2914774,15.4565463 32.0085958,16.7928976 C31.7620513,17.956761 30.7334408,18.7550439 29.5881612,18.7550439 Z M25.7212796,28.9993366 C25.5482686,28.9992585 25.3757265,28.9812293 25.2064664,28.9453268 L25.0865153,28.9201171 C24.9972747,28.9014634 24.9080342,28.8825756 24.8189499,28.8634537 C23.4820611,28.5753756 22.6322442,27.259161 22.9209866,25.9240585 C23.2094945,24.588878 24.5270037,23.7400976 25.8642051,24.0284878 C25.9431306,24.0454244 26.0243223,24.0625951 26.1053578,24.0795317 L26.2312479,24.1059902 C27.5692308,24.3885268 28.4245958,25.7009951 28.1417143,27.0374244 C27.8950916,28.2011317 26.8664811,28.9993366 25.7212796,28.9993366 Z M21.7842247,38.4961561 C21.6139487,38.4961561 21.4413284,38.4786732 21.2682393,38.4419902 L21.1369573,38.4145171 C21.0516239,38.3965659 20.9663687,38.3784585 20.8811136,38.3601951 C19.544381,38.0715707 18.6951111,36.7552 18.9840098,35.4200976 C19.2729866,34.0849951 20.5904957,33.236761 21.9276972,33.5254634 C22.0024029,33.5416195 22.078906,33.5575415 22.1555653,33.5736976 L22.2952869,33.603122 C23.6331917,33.886439 24.4877753,35.1992195 24.2041905,36.5354927 C23.9573333,37.6987317 22.9289573,38.4962341 21.7842247,38.4962341 L21.7842247,38.4961561 L21.7842247,38.4961561 Z" id="Fill-2"></path>
                </g>
            </g>
        </g>
    </g>
</svg>