<?xml version="1.0" encoding="UTF-8"?>
<svg width="63px" height="63px" viewBox="0 0 63 63" version="1.1" xmlns="http://www.w3.org/2000/svg" xmlns:xlink="http://www.w3.org/1999/xlink">
    <!-- Generator: Sketch 43 (38999) - http://www.bohemiancoding.com/sketch -->
    <title>快捷</title>
    <desc>Created with Sketch.</desc>
    <defs></defs>
    <g id="Page-1" stroke="none" stroke-width="1" fill="none" fill-rule="evenodd" opacity="0.900000036">
        <g id="微信_关于我们" transform="translate(-71.000000, -1425.000000)">
            <g id="快捷" transform="translate(72.000000, 1425.000000)">
                <path d="M59.7595251,2.25133907 C59.9354123,3.40522439 60.0015918,4.21058174 59.9662582,4.98828426 L59.9651532,5.01722646 C59.8007313,10.3331249 58.6692044,15.5960458 56.6066026,20.8889109 C54.1543024,27.1817886 50.63205,32.4565635 45.9213377,36.7437237 C45.0399888,37.5461623 44.6703813,38.5705858 44.7901895,39.7356946 C44.8610119,40.4243638 44.9144043,40.9846251 45.0294658,42.225104 C45.0300365,42.2312558 45.0300365,42.2312558 45.0306071,42.2374079 C45.1529279,43.556152 45.2090366,44.1437942 45.285486,44.8812578 C45.6289717,48.1946726 44.5056947,50.75149 41.8718541,52.6356894 C39.4866932,54.342016 37.4528463,55.6926414 33.0820412,58.5199737 C32.9801531,58.5858811 32.9801531,58.5858811 32.8782399,58.6518039 C32.104882,59.1520552 31.7106494,59.4073086 31.2550448,59.7030581 C30.2495836,60.355734 29.1484966,59.8291793 29.0382321,58.6626288 C28.7863727,55.9983362 28.576517,53.3141526 28.3108988,49.5149674 C28.2974424,49.3201101 28.2905586,49.2209433 28.2842654,49.1354319 C28.1415051,47.1956006 27.3940184,46.2753208 25.4772795,45.9903816 C25.3526348,45.9718522 25.2325749,45.9555699 25.0134174,45.9268792 C21.558041,45.4744298 19.0085587,43.8894232 17.2269944,41.0529657 C16.3614142,39.674744 15.8656841,38.0803171 15.6898838,36.2122482 C15.536819,34.585654 14.4750173,33.6906515 12.9252351,33.6054126 C9.00009515,33.389674 6.13888307,33.2126548 3.32353009,33.0015221 C2.17030575,32.9149911 1.623278,31.7890053 2.28498415,30.7103029 C2.83464613,29.8142005 3.29281262,29.0987754 4.33601272,27.4928132 C4.33706152,27.4911986 4.33706152,27.4911986 4.33811035,27.489584 C4.85862074,26.6882804 5.09042162,26.3302052 5.37876469,25.880167 C5.7678819,25.2728912 6.08122167,24.7824859 6.77463098,23.696197 C6.78405263,23.6814371 6.78405263,23.6814371 6.79347406,23.6666775 C7.75086925,22.1668311 8.18820587,21.4829829 8.72776813,20.6439138 C10.4424907,17.977562 12.7960453,16.6425647 15.8576779,16.6182362 C16.6694154,16.6117747 17.5344372,16.6658658 18.6027571,16.7799477 C19.078362,16.8307359 19.4658778,16.8775108 20.3355413,16.9865434 C21.2329825,17.0990585 21.630543,17.1470859 22.1361986,17.201193 C23.1773005,17.3126663 24.0846398,17.0403574 24.8196739,16.224567 C29.4051166,11.1353874 35.2037992,7.43774662 42.3143616,4.89398357 C46.1496274,3.52195493 50.091835,2.62803339 54.1360838,2.2138331 C56.3977573,1.98219839 58.1392063,1.97620467 59.7595251,2.25133907 Z" id="Fill-1" stroke="#1B98F4" stroke-width="4"></path>
                <path d="M9.92008732,42.0816112 C11.2577155,45.8654322 13.6916958,48.7363357 17.2207183,50.6810545 C17.9995606,51.1101986 18.8197944,51.4586993 19.6678845,51.745807 C21.1927352,52.2620112 21.5403718,53.7370042 20.4089155,54.8716476 C18.7343042,56.5508503 17.0413549,58.2120168 15.3663944,59.890786 C14.8127606,60.445751 14.2035887,60.708579 13.4241352,60.4210378 C12.6330676,60.1292476 12.251462,59.547228 12.2116423,58.7337706 C12.1863183,58.2178266 12.1992423,57.7001483 12.1869296,57.1834238 C12.1643127,56.2337399 12.155493,56.2261091 11.2753549,56.515558 C9.39378592,57.1344308 7.51413803,57.7594601 5.63256901,58.3786797 C5.0774507,58.5613846 4.52093521,58.637172 3.97830423,58.3319413 C3.18252113,57.8845007 2.88221408,57.0843972 3.20243099,56.1002881 C3.8272338,54.1805427 4.48356056,52.2708559 5.12259718,50.3557063 C5.3998507,49.5249063 5.38290986,49.5064364 4.47919437,49.4924755 C3.93385634,49.4839776 3.38781972,49.4932559 2.84344225,49.4671552 C2.05045352,49.4291748 1.48564225,49.0477231 1.19197183,48.3028559 C0.905549296,47.5762853 1.08849296,46.9435385 1.62378873,46.4088643 C3.37140282,44.6630657 5.12678873,42.9247245 6.88130141,41.1856028 C7.23077183,40.8392699 7.64529859,40.6430378 8.09990704,40.6863944 C9.05191268,40.6994014 9.57891268,41.1164923 9.92008732,42.0816112 Z" id="Fill-2" stroke="#1B98F4" stroke-width="4"></path>
                <polygon id="快速-2" fill="#1B98F4" transform="translate(40.012402, 21.162045) rotate(17.000000) translate(-40.012402, -21.162045) " points="45.9467773 9 32 22.7603124 39.7047488 23.813288 34.5945717 33.3240898 48.0248036 19.7764508 41.6148927 18.4548907"></polygon>
            </g>
        </g>
    </g>
</svg>