<?xml version="1.0" encoding="UTF-8"?>
<svg width="71px" height="63px" viewBox="0 0 71 63" version="1.1" xmlns="http://www.w3.org/2000/svg" xmlns:xlink="http://www.w3.org/1999/xlink">
    <!-- Generator: Sketch 43 (38999) - http://www.bohemiancoding.com/sketch -->
    <title>担保</title>
    <desc>Created with Sketch.</desc>
    <defs>
        <ellipse id="path-1" cx="15.474359" cy="47.4782609" rx="15.474359" ry="15.5217391"></ellipse>
    </defs>
    <g id="Page-1" stroke="none" stroke-width="1" fill="none" fill-rule="evenodd" opacity="0.900000036">
        <g id="微信_关于我们" transform="translate(-65.000000, -1282.000000)">
            <g id="Group-3" transform="translate(40.000000, 1191.000000)">
                <g id="担保" transform="translate(25.000000, 91.000000)">
                    <g id="房子-6" transform="translate(11.833333, 0.000000)" fill="#1B98F4">
                        <polygon id="Fill-1" points="18 34.288056 24.2659004 34.288056 24.2659004 28 18 28"></polygon>
                        <path d="M57.9567585,23.1908451 L31.6573423,0.774522921 C30.4528661,-0.251219362 28.6896492,-0.251219362 27.4852566,0.774522921 L1.18684322,23.1908451 C-0.172820151,24.3487594 -0.342631827,25.4866115 0.809613936,26.8558664 C1.96027189,28.2252054 3.99675847,26.5706645 5.35792608,25.4086277 L5.7783604,25.0508126 L5.7783604,59.9972758 C5.7783604,61.119518 6.6805685,62.0273066 7.79520833,62.0273066 L51.3474741,62.0273066 C52.4620304,62.0273066 53.3653249,61.119518 53.3653249,59.9972758 L53.3653249,25.0508126 L53.7871798,25.4086277 C54.3921339,25.9258737 57.1879969,28.2187711 58.3341549,26.8558664 C59.4857399,25.4865084 59.3155026,24.3487594 57.9567585,23.1908451 Z M41.6946999,57.9670768 L41.6946999,40.9454403 L30.5930108,40.9454403 L30.5930108,57.9670768 L9.81155485,57.9670768 L9.81155485,22.5272997 L29.5720516,5.68609549 L49.331044,22.5248598 L49.331044,57.9670768 L41.6946999,57.9670768 Z" id="Fill-2"></path>
                    </g>
                    <g id="Oval-6">
                        <use fill="#FFFFFF" fill-rule="evenodd" xlink:href="#path-1"></use>
                        <ellipse stroke="#1B98F4" stroke-width="4" cx="15.474359" cy="47.4782609" rx="13.474359" ry="13.5217391"></ellipse>
                    </g>
                    <path d="M17.2948718,46.1142698 L17.2948718,42 L13.6538462,42 L13.6538462,46.1142698 L9.53957637,46.1142698 L9.53957637,49.7552954 L13.6538462,49.7552954 L13.6538462,53.8695652 L17.2948718,53.8695652 L17.2948718,49.7552954 L21.4091416,49.7552954 L21.4091416,46.1142698 L17.2948718,46.1142698 Z" id="Combined-Shape" fill="#1B98F4" transform="translate(15.474359, 47.934783) rotate(45.000000) translate(-15.474359, -47.934783) "></path>
                </g>
            </g>
        </g>
    </g>
</svg>