<?xml version="1.0" encoding="UTF-8"?>
<svg width="52px" height="65px" viewBox="0 0 52 65" version="1.1" xmlns="http://www.w3.org/2000/svg" xmlns:xlink="http://www.w3.org/1999/xlink">
    <!-- Generator: Sketch 43 (38999) - http://www.bohemiancoding.com/sketch -->
    <title>安全</title>
    <desc>Created with Sketch.</desc>
    <defs>
        <path d="M33.5989922,40.9656976 L18.3866667,40.9656976 C17.7304651,40.9656976 17.1935659,40.4250537 17.1935659,39.7643707 L17.1935659,28.3523122 C17.1935659,27.6916293 17.7304651,26.9939108 18.3866667,26.9939108 L20.3255039,26.9939108 L20.3255039,24.7484878 C20.3255039,21.8654439 22.8609302,19.4929951 25.9928682,19.4929951 C29.1248062,19.4929951 31.660155,21.8354732 31.660155,24.7484878 L31.660155,26.9939108 L33.5989922,26.9939108 C34.2551938,26.9939108 34.792093,27.6916293 34.792093,28.3523122 L34.792093,39.7643707 C34.792093,40.4250537 34.2551938,40.9656976 33.5989922,40.9656976 Z" id="path-1"></path>
    </defs>
    <g id="Page-1" stroke="none" stroke-width="1" fill="none" fill-rule="evenodd" opacity="0.900000036">
        <g id="微信_关于我们" transform="translate(-249.000000, -1422.000000)">
            <g id="Group-3" transform="translate(40.000000, 1191.000000)">
                <g id="安全" transform="translate(209.000000, 231.000000)">
                    <g id="Path">
                        <use fill="#1B98F4" fill-rule="evenodd" xlink:href="#path-1"></use>
                        <path stroke="#1B98F4" stroke-width="4" d="M32.792093,38.9656976 L19.1935659,38.9656976 L19.1935659,28.9939108 L20.3255039,28.9939108 L22.3255039,28.9939108 L22.3255039,26.9939108 L22.3255039,24.7484878 C22.3255039,22.9964354 23.9422449,21.4929951 25.9928682,21.4929951 C28.056222,21.4929951 29.660155,22.9786927 29.660155,24.7484878 L29.660155,26.9939108 L29.660155,28.9939108 L31.660155,28.9939108 L32.792093,28.9939108 L32.792093,38.9656976 Z"></path>
                    </g>
                    <path d="M26.6925191,34.0231362 L26.6925191,31.4165201 C26.6925191,31.029107 26.3776535,30.7120911 25.9928682,30.7120911 C25.607992,30.7120911 25.2931264,31.029107 25.2931264,31.4165201 L25.2931264,34.0231362 C24.6633952,34.3049077 24.2436047,34.9037868 24.2436047,35.6434601 C24.2436047,36.6297522 25.0132661,37.4046699 25.9928682,37.4046699 C26.9723794,37.4046699 27.7421318,36.6297522 27.7421318,35.6434601 C27.7421318,34.9037868 27.3222503,34.3049077 26.6925191,34.0231362" id="Fill-1" fill="#FFFFFF"></path>
                    <path d="M22.6119137,24.8040378 L22.6119137,27 L29.4334351,27 L29.4334351,24.8040378 C29.4334351,23.0747613 27.885479,21.6474537 26.0226403,21.6474537 C24.1336183,21.6474537 22.6119137,23.0472966 22.6119137,24.8040378 Z" id="Fill-2" fill="#FFFFFF"></path>
                    <path d="M26.3860262,64.1407471 C25.9984862,64.1407471 25.6109461,64 25.6109461,64 C22.1230859,62.81875 11.6595051,56.9125 7.00902475,51.79375 C2.3585444,46.28125 0.0333042213,41.1625 0.0333042213,35.25625 L0.0333042213,11.63125 C0.0333042213,10.84375 0.42084425,10.05625 1.19592431,9.6625 L25.6109461,1 C25.6109461,1 25.9024346,0.927154541 26.1935272,0.927154541 C26.4846199,0.927154541 26.7735662,1 26.7735662,1 L50.801048,9.6625 C51.5761281,10.05625 51.9636681,10.84375 51.9636681,11.63125 L51.9636681,34.46875 C51.9636681,40.76875 50.025968,45.8875 44.9879476,51.00625 C40.7250073,56.9125 30.2614265,62.81875 27.1611063,64 C27.1611063,64 26.7735662,64.1407471 26.3860262,64.1407471 Z M26.3365345,60.1043243 C26.6745827,60.1043243 27.012631,59.9815517 27.012631,59.9815517 C29.7170173,58.9511561 38.8443211,53.7991781 42.5628523,48.6472001 C46.95748,44.1821525 48.6477215,39.717105 48.6477215,34.2216618 L48.6477215,14.3006802 C48.6477215,13.6137498 48.3096732,12.9268194 47.6335766,12.5833542 L26.6745827,5.02711982 C26.6745827,5.02711982 26.422537,4.96357727 26.168619,4.96357727 C25.9147011,4.96357727 25.6604379,5.02711982 25.6604379,5.02711982 L4.36339575,12.5833542 C3.68729917,12.9268194 3.34925088,13.6137498 3.34925088,14.3006802 L3.34925088,34.9085922 C3.34925088,40.0605702 5.37754061,44.5256177 9.43412007,49.3341305 C13.4906995,53.7991781 22.6180033,58.9511561 25.6604379,59.9815517 C25.6604379,59.9815517 25.9984862,60.1043243 26.3365345,60.1043243 Z" id="Combined-Shape" fill="#1B98F4"></path>
                </g>
            </g>
        </g>
    </g>
</svg>