<?xml version="1.0" standalone="no"?><!DOCTYPE svg PUBLIC "-//W3C//DTD SVG 1.1//EN" "http://www.w3.org/Graphics/SVG/1.1/DTD/svg11.dtd"><svg t="1501054889496" class="icon" style="" viewBox="0 0 1024 1024" version="1.1" xmlns="http://www.w3.org/2000/svg" p-id="5532" xmlns:xlink="http://www.w3.org/1999/xlink" width="32" height="32"><defs><style type="text/css"></style></defs><path d="M782.448619 0l-98.400559 198.846868L698.163732 0H360.819611l-84.284887 184.731196L290.650397 0H93.849278S51.706835 38.357806 51.706835 324.660473v257.76446h843.155729V312.59055c0-153.124363 56.258116-312.488263 56.258116-312.488263h-168.774348z m56.258116 610.860853H107.964951a56.564979 56.564979 0 0 0-56.258116 56.871841v85.205474c0 31.402258 25.162721 56.871841 56.258116 56.871841h225.032464l-0.204575 85.205474c7.773849 72.624113 68.532614 127.859355 140.440716 127.859355a142.179602 142.179602 0 0 0 140.543002-127.859355v-85.205474h224.82789c31.095395 0 56.258116-25.469583 56.258116-56.871841v-85.205474a56.564979 56.564979 0 0 0-56.258116-56.871841zM473.131268 965.900709a28.129058 28.129058 0 0 1-27.924483-28.333633c0-15.649985 12.479073-28.231346 27.924483-28.231345 15.44541 0 28.026771 12.581361 28.026771 28.231345a28.129058 28.129058 0 0 1-28.026771 28.333633z" p-id="5533" fill="#37dca1"></path></svg>