<?xml version="1.0" encoding="UTF-8"?>
<svg width="28px" height="28px" viewBox="0 0 28 28" version="1.1" xmlns="http://www.w3.org/2000/svg" xmlns:xlink="http://www.w3.org/1999/xlink">
    <!-- Generator: Sketch 43 (38999) - http://www.bohemiancoding.com/sketch -->
    <title>delete</title>
    <desc>Created with Sketch.</desc>
    <defs></defs>
    <g id="Page-1" stroke="none" stroke-width="1" fill="none" fill-rule="evenodd">
        <g id="银行卡管理" transform="translate(-321.000000, -91.000000)">
            <g id="Group-3" transform="translate(9.000000, 74.000000)">
                <g id="delete" transform="translate(312.000000, 17.000000)">
                    <path d="M20,9 L15,9 L15,8.59088018 C15,8.26454409 14.6217833,8 14.2954287,8 L13.7045113,8 C13.3781938,8 13,8.2645255 13,8.59088018 L13,9 L8.09091734,9 C7.76456267,9 7.5,9.17364533 7.5,9.5 C7.5,9.82633609 7.76454409,10 8.09091734,10 L8.97726548,10 L8.97726548,19.8176407 C8.97726548,20.4703314 9.50640941,20.9994196 10.1590816,20.9994196 L17.840877,20.9994196 C18.4936049,20.9994196 19.0226931,20.4703314 19.0226931,19.8176407 L19.0226931,10 L19.9090598,10 C20.2354145,10 20.4999585,9.82635467 20.4999585,9.5 C20.4999585,9.17364533 20.3263547,9 20,9 Z M18,19.3750012 C18,19.7201806 17.7244976,20 17.3846243,20 L10.615395,20 C10.2755604,20 10,19.7202003 10,19.3750012 L10,10 L18,10 L18,19.3750012 Z M16,18.5 L16,11.5 C16,11.1844442 15.7761703,11 15.5000079,11 C15.2238611,11 15,11.1844262 15,11.5 L15,18.5 C15,18.8155918 15.2238611,19 15.5000079,19 C15.7761546,19 16,18.8156098 16,18.5 Z M13,18.5 L13,11.5 C13,11.1844442 12.7761703,11 12.5000079,11 C12.2238611,11 12,11.1844262 12,11.5 L12,18.5 C12,18.8155918 12.2238611,19 12.5000079,19 C12.7761546,19 13,18.8156098 13,18.5 Z" id="删除" fill="#B7C0C9"></path>
                    <circle id="Oval-2" stroke="#B7C0C9" stroke-width="0.5" cx="14" cy="14" r="13.75"></circle>
                </g>
            </g>
        </g>
    </g>
</svg>