<?xml version="1.0" encoding="UTF-8"?>
<svg width="50px" height="35px" viewBox="0 0 50 35" version="1.1" xmlns="http://www.w3.org/2000/svg" xmlns:xlink="http://www.w3.org/1999/xlink">
    <!-- Generator: Sketch 48.2 (47327) - http://www.bohemiancoding.com/sketch -->
    <title>银行卡空</title>
    <desc>Created with Sketch.</desc>
    <defs></defs>
    <g id="选择银行卡-空-" stroke="none" stroke-width="1" fill="none" fill-rule="evenodd" transform="translate(-162.000000, -143.000000)">
        <g id="银行卡空" transform="translate(152.000000, 125.000000)">
            <path d="M58.1515339,52 L22.8488577,52 C21.8303851,52 21,51.1488706 21,50.1053565 L21,26.8946435 C21,25.851029 21.8303851,25 22.8488577,25 L58.1515339,25 C59.1697128,25 60,25.851029 60,26.8946435 L60,50.1131843 C60,51.1488706 59.1697128,52 58.1515339,52 Z" id="Fill-5" fill="#88C9F9"></path>
            <path d="M50,24.9471128 L49.0371954,19.3467018 C48.8861107,18.4654608 48.0667322,17.8695313 47.199114,18.0245342 L11.3126628,24.5142476 C10.4535984,24.6693525 9.87283234,25.5103887 10.0239171,26.4000992 L10.9867216,32 L50,24.9471128 Z" id="Fill-6" fill="#88C9F9"></path>
            <path d="M51.2088125,29 L53.9757267,44.740097 C54.1275671,45.607072 53.5515931,46.4418403 52.6801351,46.594346 L16.6141892,52.9756074 C15.7504281,53.1281131 14.9187545,52.549996 14.7668142,51.675195 L12,35.9351984 L51.2088125,29 Z" id="Fill-7" fill="#1B98F4"></path>
            <path d="M17.2189591,40.582383 L14.9171791,41 L14.3770841,37.8462477 L16.678864,37.4286307 L17.2189591,40.582383 Z M21.8221282,39.7443328 L19.5203482,40.1619498 L18.9801554,37.0081974 L21.2819354,36.5905805 L21.8221282,39.7443328 Z M26.4194341,38.9145303 L24.1177519,39.3318456 L23.5775591,36.178395 L25.8793391,35.7603757 L26.4194341,38.9145303 Z M51,28.9463394 L11.6756318,35.8997825 L11,31.9535436 L50.3239773,25 L51,28.9463394 Z" id="Fill-8" fill="#F2F2F2"></path>
        </g>
    </g>
</svg>