<?xml version="1.0" standalone="no"?><!DOCTYPE svg PUBLIC "-//W3C//DTD SVG 1.1//EN" "http://www.w3.org/Graphics/SVG/1.1/DTD/svg11.dtd"><svg t="1499139233187" class="icon" style="" viewBox="0 0 1024 1024" version="1.1" xmlns="http://www.w3.org/2000/svg" p-id="4970" xmlns:xlink="http://www.w3.org/1999/xlink" width="32" height="32"><defs><style type="text/css"></style></defs><path d="M960 449.6a16 16 0 0 0-32 0C928 492.8 752.32 595.2 512 595.2S96 499.2 96 449.6a16 16 0 0 0-32 0c0 33.664 35.136 70.4 94.144 101.504l-27.776 45.376a16 16 0 1 0 27.264 16.704l29.44-48.064a684.8 684.8 0 0 0 130.752 41.664l-16.256 50.752a16 16 0 1 0 30.464 9.792l17.408-54.336A925.376 925.376 0 0 0 496 627.2v54.592a16 16 0 0 0 32 0V627.2a880.448 880.448 0 0 0 146.176-15.104l17.792 55.36a16 16 0 1 0 30.464-9.792l-16.704-52.16a713.152 713.152 0 0 0 129.92-42.304l30.72 50.112a16 16 0 1 0 27.264-16.704l-29.056-47.36C923.776 518.016 960 481.984 960 449.6z" p-id="4971"></path></svg>