<?xml version="1.0" encoding="UTF-8"?>
<svg width="50px" height="50px" viewBox="0 0 50 50" version="1.1" xmlns="http://www.w3.org/2000/svg" xmlns:xlink="http://www.w3.org/1999/xlink">
    <!-- Generator: Sketch 43 (38999) - http://www.bohemiancoding.com/sketch -->
    <title>failure</title>
    <desc>Created with Sketch.</desc>
    <defs></defs>
    <g id="Page-1" stroke="none" stroke-width="1" fill="none" fill-rule="evenodd">
        <g id="授信失败" transform="translate(-163.000000, -213.000000)" fill="#1B88EE">
            <path d="M188,213 C174.191442,213 163,224.191442 163,238 C163,251.808619 174.191442,263 188,263 C201.808619,263 213,251.808619 213,238 C213,224.191442 201.808619,213 188,213 Z M186.764685,224.2891 L189.616243,224.2891 C190.31932,224.2891 190.841791,224.528362 190.783196,225.583009 L190.128887,242.511746 C190.09965,242.985388 189.713901,243.361311 189.25979,243.361311 L187.125959,243.361311 C186.67191,243.361311 186.28616,242.985388 186.256863,242.511746 L185.602553,225.583009 C185.539075,224.528362 186.061547,224.2891 186.764685,224.2891 Z M185.280281,249.181676 C185.280281,247.575199 186.584018,246.271463 188.190433,246.271463 C189.79691,246.271463 191.100585,247.575199 191.100585,249.181676 C191.100585,250.788092 189.79691,252.091828 188.190433,252.091828 C186.584018,252.091828 185.280281,250.788092 185.280281,249.181676 Z" id="failure"></path>
        </g>
    </g>
</svg>