<?xml version="1.0" standalone="no"?><!DOCTYPE svg PUBLIC "-//W3C//DTD SVG 1.1//EN" "http://www.w3.org/Graphics/SVG/1.1/DTD/svg11.dtd"><svg t="1500881969618" class="icon" style="" viewBox="0 0 1024 1024" version="1.1" xmlns="http://www.w3.org/2000/svg" p-id="73965" xmlns:xlink="http://www.w3.org/1999/xlink" width="32" height="32"><defs><style type="text/css"></style></defs><path d="M874.613734 115.916458l-29.94152 0 0 735.600067c0 48.867769-39.779449 88.646149-88.647218 88.646149L452.652164 940.162673 211.409056 940.162673l0 27.26817c0 31.225798 25.343358 56.568087 56.568087 56.568087l303.264829 0L874.5068 1023.998931c31.224728 0 56.567018-25.342289 56.567018-56.568087L931.073818 172.484545C931.074887 141.259816 905.838463 115.916458 874.613734 115.916458z" p-id="73966" fill="#4BA3F6"></path><path d="M452.652164 908.082473l303.264829 0c31.224728 0 56.568087-25.342289 56.568087-56.565948L812.485079 115.916458 812.485079 56.568087c0-31.224728-25.343358-56.568087-56.568087-56.568087L452.652164 0 351.8134 0l0 18.71345c0.212799 1.924812 0.320802 3.956558 0.320802 5.988304l0 123.294904L352.134202 179.649123c0 43.949875-35.715957 79.665831-79.665831 79.665831l-31.652464 0L117.521003 259.314954c-1.60401 0-3.314954-0.106934-4.918964-0.213868L92.926182 259.101086l0 592.415439c0 31.223659 25.343358 56.565948 56.568087 56.565948l62.021721 0L452.652164 908.082473 452.652164 908.082473zM464.094102 715.816207 266.373133 715.816207c-14.756892 0-26.7335-11.977678-26.7335-26.7335 0-14.757962 11.976608-26.7335 26.7335-26.7335l197.827903 0c14.756892 0 26.7335 11.975539 26.7335 26.7335C490.934536 703.83853 478.850994 715.816207 464.094102 715.816207zM661.922005 579.36949 266.373133 579.36949c-14.756892 0-26.7335-11.977678-26.7335-26.7335 0-14.757962 11.976608-26.7335 26.7335-26.7335L661.922005 525.90249c14.756892 0 26.7335 11.975539 26.7335 26.7335C688.655505 567.391813 676.678897 579.36949 661.922005 579.36949zM266.373133 381.005848 661.922005 381.005848c14.756892 0 26.7335 11.976608 26.7335 26.7335 0 14.756892-11.976608 26.7335-26.7335 26.7335L266.373133 434.472849c-14.756892 0-26.7335-11.976608-26.7335-26.7335C239.639632 392.982456 251.616241 381.005848 266.373133 381.005848z" p-id="73967" fill="#4BA3F6"></path><path d="M117.521003 227.234754l154.947368 0c0.106934 0 0.320802 0 0.427736 0 25.878028-0.213868 46.837093-21.172932 47.050961-47.050961 0-0.106934 0-0.320802 0-0.427736l0-155.054302c0-14.329156-11.76274-23.846282-23.952147-23.846282-5.88137 0-11.76274 2.13868-16.681704 7.057644L100.62543 186.599833C85.65467 201.570593 96.241136 227.234754 117.521003 227.234754z" p-id="73968" fill="#4BA3F6"></path></svg>