<?xml version="1.0" encoding="UTF-8"?>
<svg width="23px" height="22px" viewBox="0 0 23 22" version="1.1" xmlns="http://www.w3.org/2000/svg" xmlns:xlink="http://www.w3.org/1999/xlink">
    <!-- Generator: Sketch 49.3 (51167) - http://www.bohemiancoding.com/sketch -->
    <title>ico_成功</title>
    <desc>Created with Sketch.</desc>
    <defs></defs>
    <g id="确认分期" stroke="none" stroke-width="1" fill="none" fill-rule="evenodd">
        <g id="鉴权成功" transform="translate(-175.000000, -308.000000)" fill="#FFFFFF">
            <g id="提示信息" transform="translate(108.000000, 284.000000)">
                <g id="ico_成功" transform="translate(67.000000, 24.000000)">
                    <g id="check-circle">
                        <path d="M20.0000058,10.0756869 C20.0000058,9.52340215 20.4477211,9.0756869 21.0000058,9.0756869 C21.5522906,9.0756869 22.0000058,9.52340215 22.0000058,10.0756869 L22.0000057,11.0061973 C21.9972202,15.8774743 18.7905205,20.1666942 14.118897,21.54786 C9.44729327,22.9290201 4.42360409,21.0731439 1.77212388,16.9866352 C-0.879375119,12.9000976 -0.526990632,7.55639056 2.63817725,3.85338244 C5.80332088,0.150402699 11.0272141,-1.02979229 15.4770009,0.952791461 C15.9814787,1.1775594 16.2082283,1.76872986 15.9834604,2.27320762 C15.7586924,2.77768539 15.167522,3.004435 14.6630442,2.77966706 C11.0222791,1.15753952 6.74814378,2.12316283 4.15848215,5.15287196 C1.56884479,8.1825527 1.28053744,12.5545669 3.44990176,15.89803 C5.61928486,19.241522 9.72960453,20.7599766 13.5518599,19.6299266 C17.3740955,18.4998823 19.997727,14.9905632 20.0000058,11.0056255 L20.0000058,10.0756869 Z" id="Shape" fill-rule="nonzero"></path>
                        <path d="M11,11.5857864 L21.2928932,1.29289322 C21.6834175,0.902368927 22.3165825,0.902368927 22.7071068,1.29289322 C23.0976311,1.68341751 23.0976311,2.31658249 22.7071068,2.70710678 L11.7071068,13.7071068 C11.3165825,14.0976311 10.6834175,14.0976311 10.2928932,13.7071068 L7.29289322,10.7071068 C6.90236893,10.3165825 6.90236893,9.68341751 7.29289322,9.29289322 C7.68341751,8.90236893 8.31658249,8.90236893 8.70710678,9.29289322 L11,11.5857864 Z" id="Shape" fill-rule="nonzero"></path>
                    </g>
                </g>
            </g>
        </g>
    </g>
</svg>