<?xml version="1.0" standalone="no"?><!DOCTYPE svg PUBLIC "-//W3C//DTD SVG 1.1//EN" "http://www.w3.org/Graphics/SVG/1.1/DTD/svg11.dtd"><svg t="1496657994013" class="icon" style="" viewBox="0 0 1024 1024" version="1.1" xmlns="http://www.w3.org/2000/svg" p-id="1826" xmlns:xlink="http://www.w3.org/1999/xlink" width="200" height="200"><defs><style type="text/css"></style></defs><path d="M890.88 128h-757.76c-71.68 0-133.12 61.44-133.12 133.12v496.64c0 71.68 61.44 133.12 133.12 133.12h757.76c71.68 0 133.12-61.44 133.12-133.12v-496.64c0-71.68-61.44-133.12-133.12-133.12z m0 696.32h-757.76c-35.84 0-66.56-30.72-66.56-66.56v-496.64c0-35.84 30.72-66.56 66.56-66.56h757.76c35.84 0 66.56 30.72 66.56 66.56v496.64c-5.12 35.84-30.72 66.56-66.56 66.56z" fill="#ffcb00" p-id="1827"></path><path d="M747.52 578.56c0-15.36 10.24-30.72 25.6-46.08 20.48-25.6 46.08-56.32 46.08-112.64 0-40.96-10.24-128-117.76-128-107.52 0-117.76 97.28-117.76 128 0 56.32 25.6 87.04 46.08 112.64 15.36 15.36 25.6 30.72 25.6 46.08 0 35.84-76.8 61.44-107.52 66.56h-5.12v87.04h317.44v-87.04h-5.12c-30.72-5.12-107.52-30.72-107.52-66.56M435.2 307.2h-230.4c-20.48 0-35.84 15.36-35.84 35.84 0 20.48 15.36 35.84 35.84 35.84h230.4c20.48 0 35.84-15.36 35.84-35.84 0-20.48-15.36-35.84-35.84-35.84M435.2 481.28h-230.4c-20.48 0-35.84 15.36-35.84 35.84s15.36 35.84 35.84 35.84h230.4c20.48 0 35.84-15.36 35.84-35.84s-15.36-35.84-35.84-35.84M435.2 650.24h-230.4c-20.48 0-35.84 15.36-35.84 35.84 0 20.48 15.36 35.84 35.84 35.84h230.4c20.48 0 35.84-15.36 35.84-35.84 0-20.48-15.36-35.84-35.84-35.84" fill="#ffcb00" p-id="1828"></path></svg>