<?xml version="1.0" encoding="UTF-8"?>
<svg width="169px" height="102px" viewBox="0 0 169 102" version="1.1" xmlns="http://www.w3.org/2000/svg" xmlns:xlink="http://www.w3.org/1999/xlink">
    <!-- Generator: Sketch 48.2 (47327) - http://www.bohemiancoding.com/sketch -->
    <title>反面</title>
    <desc>Created with Sketch.</desc>
    <defs></defs>
    <g id="实名认证_身份认证2" stroke="none" stroke-width="1" fill="none" fill-rule="evenodd" transform="translate(-194.000000, -124.000000)">
        <g id="Group-3" transform="translate(0.000000, 74.000000)">
            <g id="Rectangle-Copy" transform="translate(194.000000, 50.000000)">
                <g id="反面">
                    <rect id="Mask" fill="#1B98F4" x="0" y="0" width="168.305389" height="102" rx="4"></rect>
                    <g id="Group-8" transform="translate(17.000000, 16.000000)" fill="#FFFFFF" opacity="0.200000003">
                        <g id="国徽">
                            <path d="M17.8959846,8.76079878 L20.1174769,7.13235976 L17.3719192,7.13235976 L16.5234808,4.49818293 L15.6751692,7.13235976 L12.9294423,7.13235976 L15.1507654,8.76079878 L14.3021577,11.3948049 L16.5234808,9.76683537 L18.7444654,11.3948049 L17.8959846,8.76079878 Z M10.5908,10.3420732 L10.08095,9.11592073 L9.77921154,10.4104512 L8.46585385,10.5207866 L9.59276154,11.2100732 L9.29098077,12.5040488 L10.2890192,11.635878 L11.4159692,12.3258476 L10.90595,11.0996951 L11.9041577,10.2315244 L10.5908,10.3420732 Z M14.6913462,12.9799207 L13.8402423,13.9947927 L12.6205962,13.4916037 L13.3143577,14.6220183 L12.4627462,15.6369329 L13.7428923,15.3204817 L14.4368231,16.4508963 L14.5340038,15.1247378 L15.8138115,14.8087561 L14.5941654,14.3055671 L14.6913462,12.9799207 Z M20.4889808,13.4484085 L19.2741154,13.9626098 L18.4137462,12.9558902 L18.5231538,14.2805549 L17.3079923,14.795439 L18.5907615,15.0995549 L18.7,16.4243902 L19.3835231,15.2879573 L20.6664615,15.5920732 L19.8057962,14.5851829 L20.4889808,13.4484085 Z M23.2641115,10.4577866 L22.9502731,9.16662805 L22.4520154,10.3969207 L21.1376423,10.298878 L22.1434654,11.157872 L21.6448269,12.3883354 L22.7651769,11.6887622 L23.7711269,12.5472439 L23.4576269,11.2560854 L24.5781462,10.556 L23.2641115,10.4577866 Z" id="Fill-1"></path>
                            <path d="M32.9667885,16.6633293 C32.9667885,7.47962805 25.5872269,0.0341463415 16.4834577,0.0341463415 C7.3799,0.0341463415 0,7.47962805 0,16.6633293 C0,21.326439 1.90287308,25.5403537 4.96734615,28.5601707 L4.28103077,31.896439 C4.28103077,33.3248232 5.42892308,34.9999573 6.84458077,34.9999573 L26.1223769,34.9999573 C27.5375269,34.9999573 28.6855885,33.3248232 28.6855885,31.896439 L27.9480385,28.6103659 C31.0427615,25.5873902 32.9667885,21.3520915 32.9667885,16.6633293 Z M16.4834577,28.9998476 C13.2624885,28.9998476 10.3329769,27.7430488 8.14918077,25.6897439 L24.8174385,25.6897439 C22.6334731,27.742878 19.7041308,28.9998476 16.4834577,28.9998476 Z M26.0801962,24.3085671 L25.7690231,22.896189 L21.1743231,22.896189 L21.1743231,21.8105915 L21.5909692,21.8105915 L20.9756885,20.5689878 L20.4103308,20.5689878 L20.1234423,19.4825366 L12.8433462,19.4825366 L12.5562885,20.5689878 L11.9909308,20.5689878 L11.37565,21.8105915 L11.7924231,21.8105915 L11.7924231,22.896189 L7.19742692,22.896189 L6.88642308,24.3085671 C5.23921538,22.2069451 4.25539231,19.5509146 4.25539231,16.6633293 C4.25539231,9.85053659 9.72992308,4.32745122 16.4834577,4.32745122 C23.2368231,4.32745122 28.7115654,9.85053659 28.7115654,16.6633293 C28.7117346,19.5509146 27.72825,22.2069451 26.0801962,24.3085671 Z" id="Fill-2"></path>
                        </g>
                        <path d="M63,13 L125,13 L125,18 L63,18 L63,13 Z M63,27 L125,27 L125,32 L63,32 L63,27 Z M37,57 L125,57 L125,62 L37,62 L37,57 Z" id="Combined-Shape"></path>
                    </g>
                    <g id="相机" transform="translate(71.000000, 41.000000)">
                        <polygon id="Clip-2" points="0.00276901315 0.00541378062 0.00276901315 19.7624126 25.8947957 19.7624126 25.8947957 0.00541378062 0.00276901315 0.00541378062"></polygon>
                        <path d="M6.09201354,2.96899652 L6.56740695,1.42642116 C6.8093264,0.641555011 7.69697971,0.00541378062 8.55565069,0.00541378062 L17.2219696,0.00541378062 C18.0781023,0.00541378062 18.9684785,0.640190562 19.2107672,1.42642116 L19.6852376,2.96899652 L23.8189127,2.96899652 C24.368931,2.96851236 24.8966126,3.17634872 25.2857974,3.54686258 C25.675213,3.91737645 25.8942419,4.4201098 25.8947957,4.94467433 L25.8947957,17.7867782 C25.8947957,18.877853 24.9656533,19.762412 23.8194665,19.762412 L2.07514461,19.762412 C0.930203819,19.7632923 0.00106145504,18.8788654 0,17.7867782 L0,4.94467433 C0,3.85359947 0.929142364,2.96899652 2.07514461,2.96899652 L6.09201354,2.96899652 Z M6.97717474,3.9567694 L2.07514461,3.9567694 C1.80059695,3.95571306 1.53666385,4.05888299 1.34177147,4.24334766 C1.14674065,4.42803241 1.03676467,4.67887091 1.03584167,4.94071303 L1.03584167,17.7906955 C1.03584167,18.3311052 1.50080513,18.7746831 2.0745908,18.7746831 L23.8200203,18.7746831 C24.094568,18.7755194 24.3583165,18.6723935 24.5531627,18.4878848 C24.7478705,18.3034201 24.858031,18.0525816 24.8589079,17.7906955 L24.8589079,4.94071303 C24.855862,4.39585782 24.3913139,3.95606517 23.8200203,3.9567694 L18.8006302,3.9567694 C18.8052913,3.81028923 18.7851237,3.66394109 18.7405887,3.52366695 L18.2525963,1.93967397 C18.0910705,1.41612177 17.4965173,0.993362723 16.9232392,0.993362723 L8.85433491,0.993362723 C8.27911858,0.993362723 7.68599596,1.41700206 7.525024,1.93967397 L7.03717003,3.52366695 C6.99051216,3.67476865 6.97140597,3.82006044 6.97717474,3.9567694 Z M12.9473056,16.3050308 C9.80115281,16.3050308 7.25043019,13.8723947 7.25043019,10.8718398 C7.25043019,7.87128491 9.80115281,5.4386488 12.9473056,5.4386488 C16.0936429,5.4386488 18.6441348,7.87128491 18.6441348,10.8718398 C18.6441348,13.8723947 16.0936429,16.3050308 12.9473056,16.3050308 Z M12.9473056,15.3171259 C15.5216109,15.3171259 17.6084777,13.3268353 17.6084777,10.8718398 C17.6084777,8.41666829 15.5216109,6.42655373 12.9473056,6.42655373 C10.3731848,6.42655373 8.28631801,8.41666829 8.28631801,10.8718398 C8.28631801,13.3268353 10.3731848,15.3171259 12.9473056,15.3171259 Z M19.1620787,5.93257926 C19.1620787,5.65990958 19.3920914,5.4386488 19.6800226,5.4386488 L21.2336236,5.4386488 C21.5195242,5.4386488 21.7515213,5.6578409 21.7515213,5.93257926 C21.7515213,6.20529296 21.5216932,6.42655373 21.2336236,6.42655373 L19.6800226,6.42655373 C19.3940758,6.42655373 19.1620787,6.20718558 19.1620787,5.93257926 Z" id="Fill-1" fill="#FFFFFF"></path>
                    </g>
                </g>
            </g>
        </g>
    </g>
</svg>