<?xml version="1.0" encoding="UTF-8"?>
<svg width="22px" height="15px" viewBox="0 0 22 15" version="1.1" xmlns="http://www.w3.org/2000/svg" xmlns:xlink="http://www.w3.org/1999/xlink">
    <!-- Generator: Sketch 48.2 (47327) - http://www.bohemiancoding.com/sketch -->
    <title>身份证wechat@xhdpi</title>
    <desc>Created with Sketch.</desc>
    <defs></defs>
    <g id="我的微信" stroke="none" stroke-width="1" fill="none" fill-rule="evenodd" transform="translate(-176.000000, -153.000000)">
        <g id="Group-7" transform="translate(176.000000, 153.000000)">
            <g id="身份证wechat">
                <rect id="Combined-Shape" fill="#4AC6AA" x="0" y="0" width="22" height="15" rx="1"></rect>
                <rect id="Rectangle-16" fill="#FFFFFF" x="13.0079115" y="4" width="5" height="1" rx="0.5"></rect>
                <rect id="Rectangle-16-Copy" fill="#FFFFFF" x="13.0079115" y="7" width="5" height="1" rx="0.5"></rect>
                <rect id="Rectangle-16-Copy-2" fill="#FFFFFF" x="13.0079115" y="10" width="5" height="1" rx="0.5"></rect>
                <path d="M3.12601749,11 C3.57006028,9.27477279 5.13616057,8 7,8 C8.86383943,8 10.4299397,9.27477279 10.8739825,11 L9.82929429,11 C9.41745788,9.83480763 8.30621883,9 7,9 C5.69378117,9 4.58254212,9.83480763 4.17070571,11 L3.12601749,11 Z M7,8 C5.8954305,8 5,7.1045695 5,6 C5,4.8954305 5.8954305,4 7,4 C8.1045695,4 9,4.8954305 9,6 C9,7.1045695 8.1045695,8 7,8 Z M7,7 C7.55228475,7 8,6.55228475 8,6 C8,5.44771525 7.55228475,5 7,5 C6.44771525,5 6,5.44771525 6,6 C6,6.55228475 6.44771525,7 7,7 Z" id="Combined-Shape" fill="#FFFFFF"></path>
            </g>
        </g>
    </g>
</svg>