<?xml version="1.0" encoding="UTF-8"?>
<svg width="169px" height="102px" viewBox="0 0 169 102" version="1.1" xmlns="http://www.w3.org/2000/svg" xmlns:xlink="http://www.w3.org/1999/xlink">
    <!-- Generator: Sketch 48.2 (47327) - http://www.bohemiancoding.com/sketch -->
    <title>正面</title>
    <desc>Created with Sketch.</desc>
    <defs></defs>
    <g id="实名认证_身份认证2" stroke="none" stroke-width="1" fill="none" fill-rule="evenodd" transform="translate(-12.000000, -124.000000)">
        <g id="Group-3" transform="translate(0.000000, 74.000000)">
            <g id="Rectangle" transform="translate(12.000000, 50.000000)">
                <g id="正面">
                    <rect id="ss" fill="#1B98F4" x="0" y="0" width="168.305389" height="102" rx="4"></rect>
                    <path d="M20,27 L62,27 L62,32 L20,32 L20,27 Z M20,38 L62,38 L62,43 L20,43 L20,38 Z M20,49 L62,49 L62,54 L20,54 L20,49 Z M20,60 L62,60 L62,65 L20,65 L20,60 Z M20,83 L148,83 L148,88 L20,88 L20,83 Z M119.693063,22.5971322 L123.444343,22 C125.254082,22 126.413266,24.5011375 127.387885,24.6381842 C128.359938,24.7751615 128.592274,24.2180881 130.584082,24.5851429 C133.505303,25.1370788 133.097346,29.0781789 133.239341,30.4573939 C133.376205,31.8352897 133.470429,35.713004 133.194205,36.9551722 C132.916663,38.1973405 133.784093,38.0577944 133.784093,38.0577944 C135.870125,38.0577944 135.21437,43.3547824 135.21437,43.3547824 C134.894258,44.757255 134.15461,44.9265848 132.213138,46.1402884 C130.977757,49.6276903 128.38573,51.7669105 128.38573,51.7669105 C128.38573,51.7669105 128.103058,54.4283525 128.090162,55.056518 C128.145629,55.3060347 126.717917,59.3905688 134.769042,60.5668518 C142.817533,61.7443845 144.468567,64.3320961 145.986621,65.7720587 C147.504674,67.2120214 147.833869,73.8546222 147.833869,73.8546222 L96.0019326,73.8546222 C96.0019326,73.8546222 95.8882953,67.2120214 97.4037833,65.7720587 C98.9205193,64.3334152 100.464434,61.7456342 108.512925,60.5668518 C116.561485,59.3905688 115.452637,55.1883578 115.715965,55.3201976 C115.668194,53.7277757 115.510669,51.4928865 115.510669,51.4928865 C115.510669,51.4928865 112.370007,49.7310654 111.134695,46.2463017 C108.545234,45.2122029 108.887255,44.5477971 108.634258,43.2151669 C108.634258,43.2151669 107.849405,37.8095968 109.601111,37.9181789 C109.601111,37.9181789 110.573165,37.9181789 110.294306,36.6785794 C110.203965,34.6104513 110.236205,30.7339866 110.375634,29.3547717 C110.515063,27.9768758 111.545149,24.2529399 114.46637,23.701004 C117.387591,23.1490681 116.218077,23.4257303 117.19013,23.2886836 C118.164679,23.1490681 117.88589,22.5971322 119.693063,22.5971322 Z" id="人像" fill="#FFFFFF" opacity="0.200000003"></path>
                    <g id="相机" transform="translate(71.000000, 41.000000)">
                        <polygon id="Clip-2" points="0.00276901315 0.00541378062 0.00276901315 19.7624126 25.8947957 19.7624126 25.8947957 0.00541378062 0.00276901315 0.00541378062"></polygon>
                        <path d="M6.09201354,2.96899652 L6.56740695,1.42642116 C6.8093264,0.641555011 7.69697971,0.00541378062 8.55565069,0.00541378062 L17.2219696,0.00541378062 C18.0781023,0.00541378062 18.9684785,0.640190562 19.2107672,1.42642116 L19.6852376,2.96899652 L23.8189127,2.96899652 C24.368931,2.96851236 24.8966126,3.17634872 25.2857974,3.54686258 C25.675213,3.91737645 25.8942419,4.4201098 25.8947957,4.94467433 L25.8947957,17.7867782 C25.8947957,18.877853 24.9656533,19.762412 23.8194665,19.762412 L2.07514461,19.762412 C0.930203819,19.7632923 0.00106145504,18.8788654 0,17.7867782 L0,4.94467433 C0,3.85359947 0.929142364,2.96899652 2.07514461,2.96899652 L6.09201354,2.96899652 Z M6.97717474,3.9567694 L2.07514461,3.9567694 C1.80059695,3.95571306 1.53666385,4.05888299 1.34177147,4.24334766 C1.14674065,4.42803241 1.03676467,4.67887091 1.03584167,4.94071303 L1.03584167,17.7906955 C1.03584167,18.3311052 1.50080513,18.7746831 2.0745908,18.7746831 L23.8200203,18.7746831 C24.094568,18.7755194 24.3583165,18.6723935 24.5531627,18.4878848 C24.7478705,18.3034201 24.858031,18.0525816 24.8589079,17.7906955 L24.8589079,4.94071303 C24.855862,4.39585782 24.3913139,3.95606517 23.8200203,3.9567694 L18.8006302,3.9567694 C18.8052913,3.81028923 18.7851237,3.66394109 18.7405887,3.52366695 L18.2525963,1.93967397 C18.0910705,1.41612177 17.4965173,0.993362723 16.9232392,0.993362723 L8.85433491,0.993362723 C8.27911858,0.993362723 7.68599596,1.41700206 7.525024,1.93967397 L7.03717003,3.52366695 C6.99051216,3.67476865 6.97140597,3.82006044 6.97717474,3.9567694 Z M12.9473056,16.3050308 C9.80115281,16.3050308 7.25043019,13.8723947 7.25043019,10.8718398 C7.25043019,7.87128491 9.80115281,5.4386488 12.9473056,5.4386488 C16.0936429,5.4386488 18.6441348,7.87128491 18.6441348,10.8718398 C18.6441348,13.8723947 16.0936429,16.3050308 12.9473056,16.3050308 Z M12.9473056,15.3171259 C15.5216109,15.3171259 17.6084777,13.3268353 17.6084777,10.8718398 C17.6084777,8.41666829 15.5216109,6.42655373 12.9473056,6.42655373 C10.3731848,6.42655373 8.28631801,8.41666829 8.28631801,10.8718398 C8.28631801,13.3268353 10.3731848,15.3171259 12.9473056,15.3171259 Z M19.1620787,5.93257926 C19.1620787,5.65990958 19.3920914,5.4386488 19.6800226,5.4386488 L21.2336236,5.4386488 C21.5195242,5.4386488 21.7515213,5.6578409 21.7515213,5.93257926 C21.7515213,6.20529296 21.5216932,6.42655373 21.2336236,6.42655373 L19.6800226,6.42655373 C19.3940758,6.42655373 19.1620787,6.20718558 19.1620787,5.93257926 Z" id="Fill-1" fill="#FFFFFF"></path>
                    </g>
                </g>
            </g>
        </g>
    </g>
</svg>