<?xml version="1.0" standalone="no"?><!DOCTYPE svg PUBLIC "-//W3C//DTD SVG 1.1//EN" "http://www.w3.org/Graphics/SVG/1.1/DTD/svg11.dtd"><svg t="1499420706418" class="icon" style="" viewBox="0 0 1024 1024" version="1.1" xmlns="http://www.w3.org/2000/svg" p-id="6944" xmlns:xlink="http://www.w3.org/1999/xlink" width="32" height="32"><defs><style type="text/css"></style></defs><path d="M510.82064 911.283846c-16.229636 0-31.275307-8.083096-40.285518-21.606087l-78.730109-118.430296L125.555066 771.247462c-33.540907 0-60.830437-27.367301-60.830437-61.010539L64.724629 222.174102c0-33.644261 27.28953-61.010539 60.830437-61.010539l770.521938 0c33.540907 0 60.829414 27.366278 60.829414 61.010539l0 488.060775c0 33.643238-27.288506 61.010539-60.829414 61.010539L629.826034 771.245416l-78.749552 118.430296c-8.989745 13.528108-24.040533 21.606087-40.260959 21.606087L510.82064 911.281799zM125.555066 201.838961c-11.190877 0-20.276812 9.124821-20.276812 20.335141l0 488.060775c0 11.229762 9.091052 20.335141 20.276812 20.335141l287.954271 0 90.7734 136.551002c2.039449 3.052522 4.973268 3.485381 6.538927 3.485381 1.561565 0 4.494361-0.432859 6.53381-3.485381L608.10329 730.571041l287.973714 0c11.18576 0 20.275789-9.105379 20.275789-20.335141L916.352793 222.174102c0-11.210319-9.091052-20.335141-20.275789-20.335141L125.555066 201.838961 125.555066 201.838961zM249.125429 393.186987c39.802518 0 72.049966 32.269961 72.049966 72.049966 0 39.773865-32.253588 72.048943-72.049966 72.048943-39.802518 0-72.048943-32.275077-72.048943-72.048943C177.075463 425.456948 209.322911 393.186987 249.125429 393.186987L249.125429 393.186987zM513.31546 393.186987c39.797401 0 72.042803 32.269961 72.042803 72.049966 0 39.773865-32.246425 72.048943-72.042803 72.048943-39.810704 0-72.058153-32.275077-72.058153-72.048943C441.257308 425.456948 473.504756 393.186987 513.31546 393.186987L513.31546 393.186987zM777.496282 393.186987c39.797401 0 72.049966 32.269961 72.049966 72.049966 0 39.773865-32.253588 72.048943-72.049966 72.048943-39.802518 0-72.048943-32.275077-72.048943-72.048943C705.447339 425.456948 737.694787 393.186987 777.496282 393.186987L777.496282 393.186987zM733.863529 404.406516" p-id="6945" fill="#1B88EE"></path></svg>