<?xml version="1.0" standalone="no"?><!DOCTYPE svg PUBLIC "-//W3C//DTD SVG 1.1//EN" "http://www.w3.org/Graphics/SVG/1.1/DTD/svg11.dtd"><svg t="1501055974241" class="icon" style="" viewBox="0 0 1024 1024" version="1.1" xmlns="http://www.w3.org/2000/svg" p-id="21414" xmlns:xlink="http://www.w3.org/1999/xlink" width="32" height="32"><defs><style type="text/css"></style></defs><path d="M924.627834 337.790008c-22.551074-53.320876-54.80551-101.1783-95.888909-142.260675-41.083399-41.126402-88.983826-73.380837-142.260675-95.932936-55.20073-23.338442-113.808949-35.139744-174.209992-35.139744-60.400019 0-119.009263 11.800278-174.209993 35.13872-53.276849 22.552098-101.177276 54.806534-142.260674 95.932936-41.082375 41.082375-73.337834 88.939799-95.888909 142.260675-23.338442 55.155679-35.182748 113.807926-35.182747 174.209992 0 60.400019 11.844305 118.965236 35.182747 174.209993 22.551074 53.275825 54.806534 101.133249 95.888909 142.216647 41.083399 41.082375 88.983826 73.337834 142.260674 95.888909 55.199706 23.338442 113.808949 35.225751 174.209993 35.22575 60.401043 0 119.009263-11.887309 174.209992-35.22575 53.276849-22.508071 101.177276-54.806534 142.260675-95.888909 41.083399-41.083399 73.337834-88.940823 95.888909-142.216647 23.339466-55.243733 35.182748-113.808949 35.182747-174.209993 0-60.400019-11.843282-119.052266-35.182747-174.208968z m-412.359576 571.491832c-219.094053 0-397.28184-178.23079-397.28184-397.28184S293.173181 114.71816 512.268258 114.71816c219.05105 0 397.28184 178.229766 397.28184 397.28184 0 219.050026-178.23079 397.28184-397.28184 397.28184z m23.906698-437.40381l150.346298-164.8568s11.451133-16.783528-3.933768-29.545235c-15.25282-12.674676-32.298463 3.759707-32.298462 3.759707L512.224231 430.707601 376.91369 283.070504s-24.082807-19.972931-38.461229-6.642968c-16.301278 15.122786-1.659718 33.653063-1.659718 33.653063l147.155871 161.797431v40.12197H333.251124v44.754028h150.696466v44.754027H333.251124v44.754028h150.696466v113.895979h52.22839V646.262083h155.109412v-44.754028H536.174956v-44.754027h155.109412v-44.754028H536.174956v-40.12197z" fill="#bec6ce" p-id="21415"></path></svg>