<?xml version="1.0" encoding="UTF-8"?>
<svg width="86px" height="66px" viewBox="0 0 86 66" version="1.1" xmlns="http://www.w3.org/2000/svg" xmlns:xlink="http://www.w3.org/1999/xlink">
    <!-- Generator: Sketch 48.2 (47327) - http://www.bohemiancoding.com/sketch -->
    <title>通过_icon</title>
    <desc>Created with Sketch.</desc>
    <defs></defs>
    <g id="实名信息展示" stroke="none" stroke-width="1" fill="none" fill-rule="evenodd" transform="translate(-283.000000, -202.000000)">
        <g id="Group-3" transform="translate(0.000000, 75.000000)" fill="#FF7A7A">
            <g id="通过_icon" transform="translate(283.000000, 127.000000)">
                <path d="M55.8464748,11.9175315 L57.2104157,13.045609 L57.6306839,11.3549855 L59.1589028,10.4439935 L57.6306839,9.53342811 L57.2104157,7.84280452 L55.8464748,8.97088207 L54.0587749,8.83642973 L54.7433899,10.4439935 L54.0587749,12.052517 L55.8464748,11.9175315 Z M43.0105781,64.206378 C28.8510431,64.206378 16.9406248,54.3912504 13.4514367,41.067567 L11.5705437,40.5531082 C14.9206298,55.1058417 27.7257442,65.9401842 43.0105781,65.9401842 C52.2797491,65.9401842 60.6346544,61.9572601 66.5246494,55.5770113 L64.6450258,55.0634055 C59.1086568,60.7116834 51.4590996,64.206378 43.0105781,64.206378 L43.0105781,64.206378 Z" id="Fill-1"></path>
                <path d="M21.5181943,49.3221519 L22.9046667,50.4633441 L23.2318475,48.7465977 L24.6772399,47.819399 L23.1429914,46.9000905 L22.650369,45.1859031 L21.3743321,46.3335994 L19.6247134,46.2012795 L20.370893,47.8302746 L19.7815867,49.4640679 L21.5181943,49.3221519 Z M43.0105781,13.045609 C49.4504231,13.045609 55.1636581,16.2237383 58.7247774,21.1263974 L61.2161328,21.8072956 C57.4968708,15.5174637 50.7355572,11.3113764 43.0105781,11.3113764 C39.4078868,11.3072181 35.8650677,12.2395347 32.7241107,14.0182294 L35.210706,14.6977415 C37.6682116,13.6057027 40.3249028,13.0429435 43.0105781,13.045609 Z M45.3148069,5.69583199 L44.2752964,4.31143134 L43.4577146,5.89724394 L41.763631,6.49294992 L43.0140689,7.69523748 L43.0070873,9.44738288 L44.597294,8.60452342 L46.2874637,9.09232633 L46.0197319,7.36896931 L47.0713014,5.91814216 L45.3148069,5.69583199 L45.3148069,5.69583199 Z" id="Fill-2"></path>
                <path d="M43.0105781,1.77315024 C57.1701132,1.77315024 69.0805314,11.5874249 72.5701427,24.9115347 L74.4514588,25.425567 C71.1001033,10.8733667 58.2962583,0.038917609 43.0105781,0.038917609 C33.7422534,0.038917609 25.386925,4.0223748 19.497353,10.402517 L21.3761304,10.9161228 C26.9129225,5.26741842 34.5616335,1.77315024 43.0105781,1.77315024" id="Fill-3"></path>
                <path d="M64.3326544,16.5844459 L62.8595474,15.5432666 L62.6493604,17.2832569 L61.2616187,18.3147334 L62.8682214,19.1231535 L63.483444,20.8015153 L64.6853284,19.5621228 L66.4548339,19.5677738 L65.5913432,17.9924103 L66.0688389,16.317567 L64.3326544,16.5844459 Z M32.1769053,8.13367367 L30.773508,7.137063 L30.4671661,8.90147011 L29.0303419,9.99414863 L30.5798229,10.7519225 L31.0949766,12.4236737 L32.3588487,11.1274507 L34.1140738,11.0684879 L33.3458918,9.5094378 L33.9152054,7.80047496 L32.1769053,8.13367367 Z M83.4723616,29.6872052 L9.58831242,9.48885945 C7.77501353,8.99359289 5.91062239,10.0911761 5.42487577,11.9415218 L0.145872079,32.0429467 C-0.339874539,33.892546 0.736341943,35.7949241 2.54964084,36.2914701 L76.4328438,56.4893893 C78.2469889,56.9850824 80.1101107,55.8870727 80.5962804,54.0371535 L85.8744379,33.9357286 C86.3623001,32.0848498 85.2848143,30.1828982 83.4723616,29.6872052 Z M84.0139606,34.3243716 L79.1746888,52.7501002 C78.8098499,54.1384459 77.4116359,54.9612601 76.052032,54.5904233 L3.81097417,34.840643 C2.4504182,34.4676737 1.64320295,33.0422229 2.0076187,31.6547302 L6.84689053,13.2277221 C7.21088315,11.8398029 8.6095203,11.0165622 9.96954736,11.3886785 L82.210182,31.1384588 C83.5703149,31.5097221 84.3787995,32.9364523 84.0139606,34.3243716 Z M32.5737958,54.8808659 L31.2206445,53.755454 L30.8033383,55.4420258 L29.2886593,56.3500323 L30.8033383,57.2584653 L31.2206445,58.9459968 L32.5737958,57.8196252 L34.3462632,57.9546107 L33.6677835,56.3500323 L34.3462632,54.7464136 L32.5737958,54.8808659 Z M55.2978942,57.8419095 L56.6931464,58.8376672 L56.9929299,57.0789111 L58.4175892,55.9914572 L56.8781574,55.23379 L56.3634268,53.5658772 L55.1120369,54.8555961 L53.370246,54.9135994 L54.1350431,56.468811 L53.5730283,58.1715897 L55.2978942,57.8419095 Z M43.0049717,60.2224943 L44.0369717,61.604336 L44.8481009,60.021189 L46.5279041,59.4277221 L45.2879385,58.2279935 L45.2943911,56.4792601 L43.7177245,57.3208401 L42.0417294,56.8348498 L42.3069225,58.5528756 L41.2640271,60.0019968 L43.0049717,60.2224943 Z M50.8108733,51.2800808 C48.3534736,52.3729725 45.6965707,52.9360517 43.0105781,52.9330662 C36.57031,52.9330662 30.8579213,49.754937 27.2963788,44.8513183 L24.8050234,44.1701002 C28.5242854,50.4598255 35.2851759,54.6660194 43.0105781,54.6660194 C46.6133752,54.6706042 50.1565117,53.7385008 53.2974686,51.9595929 L50.8108733,51.2800808 L50.8108733,51.2800808 Z" id="Fill-4"></path>
                <text id="实名通过" transform="translate(43.792385, 33.394274) rotate(16.000000) translate(-43.792385, -33.394274) " font-family="PingFangSC-Semibold, PingFang SC" font-size="16" font-weight="500">
                    <tspan x="11.7923852" y="39.394274">实名通过</tspan>
                </text>
            </g>
        </g>
    </g>
</svg>