<?xml version="1.0" standalone="no"?><!DOCTYPE svg PUBLIC "-//W3C//DTD SVG 1.1//EN" "http://www.w3.org/Graphics/SVG/1.1/DTD/svg11.dtd"><svg t="1496714460171" class="icon" style="" viewBox="0 0 1024 1024" version="1.1" xmlns="http://www.w3.org/2000/svg" p-id="4686" xmlns:xlink="http://www.w3.org/1999/xlink" width="64" height="64"><defs><style type="text/css"></style></defs><path d="M744.69676 239.102656c0-49.172933-39.86187-89.034802-89.038896-89.034802L367.722012 150.067854c-49.172933 0-89.035826 39.86187-89.035826 89.034802L278.686187 786.209222c0 49.172933 39.86187 89.035826 89.035826 89.035826L655.656841 875.245048c49.177026 0 89.038896-39.86187 89.038896-89.035826L744.695736 239.102656 744.69676 239.102656zM311.080991 289.61919l401.215848 0 0 429.461145L311.080991 719.080336 311.080991 289.61919 311.080991 289.61919zM367.741455 182.462658l287.899012 0c31.289634 0 56.656371 25.367761 56.656371 56.660464l0 18.101263L311.085084 257.224386l0-18.101263C311.080991 207.833489 336.448752 182.462658 367.741455 182.462658L367.741455 182.462658zM655.641491 842.84922 367.741455 842.84922c-31.292704 0-56.660464-25.367761-56.660464-56.660464l0-35.545564 401.215848 0 0 35.545564C712.297862 817.482483 686.930101 842.84922 655.641491 842.84922L655.641491 842.84922zM655.641491 842.84922" p-id="4687"></path><path d="M512.898463 770.933307c-13.563924 0-24.598234 11.035334-24.598234 24.598234 0 13.558807 11.034311 24.594141 24.598234 24.594141 13.563924 0 24.595164-11.035334 24.595164-24.594141C537.493627 781.967618 526.462387 770.933307 512.898463 770.933307L512.898463 770.933307zM512.898463 770.933307" p-id="4688"></path></svg>