<?xml version="1.0" encoding="UTF-8"?>
<svg width="32px" height="32px" viewBox="0 0 32 32" version="1.1" xmlns="http://www.w3.org/2000/svg" xmlns:xlink="http://www.w3.org/1999/xlink">
    <!-- Generator: Sketch 43 (38999) - http://www.bohemiancoding.com/sketch -->
    <title>add photo</title>
    <desc>Created with Sketch.</desc>
    <defs></defs>
    <g id="Page-1" stroke="none" stroke-width="1" fill="none" fill-rule="evenodd">
        <g id="家装用户完善身份证信息" transform="translate(-170.000000, -305.000000)">
            <g id="Group" transform="translate(10.000000, 270.000000)">
                <g id="add-photo" transform="translate(161.000000, 36.000000)">
                    <ellipse id="Oval" stroke="#B7C0C9" stroke-width="0.5" cx="15" cy="15" rx="15" ry="15"></ellipse>
                    <path d="M14.3,14.3 L8.69426218,14.3 C8.3187139,14.3 8,14.6134007 8,15 C8,15.3892946 8.31083176,15.7 8.69426218,15.7 L14.3,15.7 L14.3,21.3057378 C14.3,21.6812861 14.6134007,22 15,22 C15.3892946,22 15.7,21.6891682 15.7,21.3057378 L15.7,15.7 L21.3057378,15.7 C21.6812861,15.7 22,15.3865993 22,15 C22,14.6107054 21.6891682,14.3 21.3057378,14.3 L15.7,14.3 L15.7,8.69426218 C15.7,8.3187139 15.3865993,8 15,8 C14.6107054,8 14.3,8.31083176 14.3,8.69426218 L14.3,14.3 Z" id="Combined-Shape" fill="#B7C0C9"></path>
                </g>
            </g>
        </g>
    </g>
</svg>