<?xml version="1.0" encoding="UTF-8"?>
<svg width="20px" height="15px" viewBox="0 0 20 15" version="1.1" xmlns="http://www.w3.org/2000/svg" xmlns:xlink="http://www.w3.org/1999/xlink">
    <!-- Generator: Sketch 48.2 (47327) - http://www.bohemiancoding.com/sketch -->
    <title>preferential wechat@xhdpi</title>
    <desc>Created with Sketch.</desc>
    <defs></defs>
    <g id="我的微信" stroke="none" stroke-width="1" fill="none" fill-rule="evenodd" transform="translate(-291.000000, -153.000000)">
        <g id="preferential-wechat" transform="translate(291.000000, 153.000000)" fill="#FD8171">
            <path d="M9.51799662,6 L8.10791737,2.9760753 L7.20160958,3.39869356 L8.4146187,6 L7,6 L7,7 L8.88092636,7 L8.89208263,7.0239247 L8.94338933,7 L11.0566107,7 L11.1079174,7.0239247 L11.1190736,7 L13,7 L13,6 L11.5853813,6 L12.7983904,3.39869356 L11.8920826,2.9760753 L10.4820034,6 L9.51799662,6 Z M9.5,8 L7,8 L7,9 L9.5,9 L9.5,12 L10.5,12 L10.5,9 L13,9 L13,8 L10.5,8 L10.5,7 L9.5,7 L9.5,8 Z M20,9.79197816 L20,13.992516 C20,14.5489341 19.5446944,15 19.0081969,15 L0.99180311,15 C0.444045377,15 0,14.5510798 0,13.992516 L0,9.79197816 C0.882952391,9.40619985 1.5,8.52515952 1.5,7.5 C1.5,6.47484048 0.882952391,5.59380015 -5.55111512e-17,5.20802184 L0,1.00748397 C0,0.45106594 0.455305576,0 0.99180311,0 L19.0081969,0 C19.5559546,0 20,0.448920205 20,1.00748397 L20,5.20802184 C19.1170476,5.59380015 18.5,6.47484048 18.5,7.5 C18.5,8.52515952 19.1170476,9.40619985 20,9.79197816 Z" id="Fill-1"></path>
        </g>
    </g>
</svg>