<?xml version="1.0" encoding="UTF-8"?>
<svg width="308px" height="46px" viewBox="0 0 308 46" version="1.1" xmlns="http://www.w3.org/2000/svg" xmlns:xlink="http://www.w3.org/1999/xlink">
    <!-- Generator: Sketch 43 (38999) - http://www.bohemiancoding.com/sketch -->
    <title>流程总</title>
    <desc>Created with Sketch.</desc>
    <defs></defs>
    <g id="Page-1" stroke="none" stroke-width="1" fill="none" fill-rule="evenodd">
        <g id="分期申请流程" transform="translate(-34.000000, -388.000000)">
            <g id="申请流程" transform="translate(11.000000, 327.000000)">
                <g id="流程总" transform="translate(22.000000, 62.000000)">
                    <text id="用户完善" font-family=".PingFangSC-Regular, .PingFang SC" font-size="13" font-weight="normal" fill="#1B88EE">
                        <tspan x="89.48" y="43">用户完善</tspan>
                    </text>
                    <text id="商户创建" font-family=".PingFangSC-Regular, .PingFang SC" font-size="13" font-weight="normal" fill="#1B88EE">
                        <tspan x="0.48" y="43">商户创建</tspan>
                    </text>
                    <g id="提交审核" transform="translate(19.000000, 0.000000)" fill="#1B88EE">
                        <path d="M4.89855775,10.0101301 L12.1084954,10.0101301 C12.41,10.0101301 12.6621064,9.74923217 12.6621064,9.43571888 C12.6621064,9.12265734 12.41,8.86202517 12.1084954,8.86202517 L4.89855775,8.86202517 C4.59679483,8.86202517 4.34494681,9.12265734 4.34494681,9.43571888 C4.34494681,9.74923217 4.59679483,10.0101301 4.89855775,10.0101301" id="Fill-2"></path>
                        <path d="M4.89855775,14.4959105 L7.78243465,14.4959105 C8.08443009,14.4959105 8.33653647,14.2347469 8.33653647,13.9220042 C8.33653647,13.6089692 8.08445593,13.347779 7.78243465,13.347779 L4.89855775,13.347779 C4.59679483,13.347779 4.34494681,13.6084378 4.34494681,13.9220042 C4.34494681,14.2344811 4.59679483,14.4959105 4.89855775,14.4959105" id="Fill-3"></path>
                        <path d="M7.71373708,5.52434965 L12.1084954,5.52434965 C12.4104909,5.52434965 12.6621064,5.26345175 12.6621064,4.95041678 C12.6621064,4.63740839 12.4104909,4.37597902 12.1084954,4.37597902 L4.89855775,4.37597902 C4.59679483,4.37597902 4.34494681,4.63687692 4.34494681,4.95041678 C4.34494681,5.26345175 4.59679483,5.52434965 4.89855775,5.52434965 L7.71373708,5.52434965" id="Fill-4"></path>
                        <path d="M16.042962,13.5150587 C15.3246733,14.292172 14.606152,15.0682755 13.8881991,15.8451231 C13.342804,16.4333259 12.7978997,17.021821 12.2530213,17.6110601 C11.8553298,17.2424601 11.4562948,16.8744182 11.0578024,16.5063497 C10.8332371,16.2975622 10.4974742,16.2756392 10.2754924,16.5063497 C10.0714666,16.7177678 10.0501261,17.1099119 10.2754924,17.3184336 C10.8149711,17.816951 11.3536489,18.3154154 11.8923526,18.8134545 C12.1141277,19.0182559 12.4577964,19.0484168 12.675696,18.8134545 C13.3936748,18.0368462 14.1124802,17.2602378 14.8302264,16.4844 C15.4960167,15.7657748 16.1612644,15.046565 16.8265638,14.3279133 C17.0349559,14.102172 17.0433784,13.7404811 16.8265638,13.5160951 C16.6155881,13.2975552 16.2518191,13.2901413 16.042962,13.5150587" id="Fill-5"></path>
                        <path d="M16.6084058,1.35925734 C16.2865942,0.800152448 15.7851717,0.402481119 15.204304,0.173577622 C14.8163009,0.0195846154 14.4072933,0.0156251748 13.99981,0.0156251748 L3.06793161,0.0156251748 C2.7087614,0.0156251748 2.3619924,0.0134993007 2.00879027,0.106107692 C0.849302432,0.408566434 0.0194027356,1.55348252 0.0194027356,2.78335385 L0.0194027356,16.1309203 C0.0194027356,16.9347664 0.307007599,17.7100727 0.888392097,18.2561832 C1.36049088,18.6996671 1.95678267,18.9441427 2.59144073,18.9785818 C2.71547872,18.9853846 2.84153191,18.9806811 2.96551824,18.9806811 L7.78292553,18.9806811 C8.08494681,18.9806811 8.33653647,18.7200224 8.33653647,18.4065091 C8.33653647,18.0936867 8.08494681,17.8327888 7.78292553,17.8327888 L2.69437082,17.8327888 C2.63776444,17.8327888 2.5829924,17.8304769 2.52690274,17.8264909 C2.51429483,17.825986 2.50091185,17.823807 2.48832979,17.8227441 C2.53023556,17.8291217 2.56886018,17.8327888 2.43244681,17.816951 C2.45048024,17.8185189 2.46900456,17.8211497 2.48832979,17.8227441 C2.47569605,17.8211762 2.4633465,17.8190503 2.45510486,17.8175091 C2.3831003,17.8047538 2.31311094,17.7862853 2.24286322,17.7661161 C2.18731611,17.749242 2.13329331,17.7291259 2.0784696,17.7085049 C2.08208663,17.7095678 2.08570365,17.7113483 2.08903647,17.7132615 C2.19274164,17.7619175 1.96169149,17.6629846 2.06872948,17.7042531 C2.07208815,17.7056084 2.07544681,17.7063524 2.07906383,17.7085049 C2.05482979,17.6966 2.03067325,17.6841371 2.00698176,17.6717007 C1.9529848,17.6428951 1.89999544,17.6110867 1.84902128,17.5785874 C1.82127356,17.5613413 1.73071884,17.4920378 1.71271125,17.4798937 C1.72916869,17.4946685 1.74640122,17.5100545 1.76440881,17.5243776 C1.71271125,17.4817538 1.70266109,17.4729846 1.71271125,17.4798937 C1.63758055,17.4137259 1.56813374,17.342828 1.50225228,17.2682364 C1.48501976,17.2470042 1.46781307,17.2266755 1.45081307,17.2057622 C1.4528541,17.208951 1.45517933,17.2118476 1.45698784,17.2147706 C1.52359271,17.3089469 1.37209119,17.1073343 1.44357903,17.1975776 C1.44618845,17.2004741 1.44928875,17.2033706 1.4518465,17.2062937 C1.41174924,17.1499049 1.37570821,17.0914434 1.34175988,17.032158 C1.31034347,16.978214 1.28308663,16.9220909 1.25686322,16.8649315 C1.25453799,16.8590853 1.25068845,16.851193 1.24632219,16.8427161 C1.25221277,16.8575175 1.25787082,16.8723189 1.26303799,16.8860839 C1.20878267,16.7501077 1.22857295,16.8011552 1.24632219,16.8427161 C1.24092249,16.8278881 1.2362462,16.8130867 1.2308465,16.7977007 C1.19379787,16.6919119 1.16682523,16.5823231 1.1467766,16.4717245 C1.1467766,16.4796699 1.14367629,16.4616797 1.13336778,16.3918448 C1.13750152,16.418551 1.14261702,16.4452839 1.1467766,16.4717245 C1.1467766,16.4569231 1.13336778,16.3479455 1.13155927,16.3156322 C1.13000912,16.2817245 1.12925988,16.2478965 1.12925988,16.2145469 L1.12925988,2.78226434 C1.12925988,2.73783357 1.13101672,2.69337622 1.13336778,2.64838741 C1.13155927,2.62061818 1.13440122,2.59258322 1.13750152,2.56425594 C1.13644225,2.56717902 1.13644225,2.57007552 1.13491793,2.57297203 C1.11714286,2.69390769 1.14933435,2.4276951 1.13850912,2.54969371 C1.13801824,2.55447692 1.13750152,2.5594993 1.13750152,2.56425594 C1.15809271,2.42984755 1.19459878,2.29806993 1.2393465,2.16948112 C1.2406383,2.16472448 1.24296353,2.15813427 1.24552128,2.15095944 C1.24012158,2.16366154 1.234231,2.17636364 1.22958055,2.1895972 C1.2882538,2.0491035 1.26252128,2.10836224 1.24552128,2.15095944 C1.2532462,2.1356 1.26017021,2.11973566 1.26766261,2.10357902 C1.29417021,2.04671189 1.32401064,1.99218322 1.35462614,1.93821259 C1.38394985,1.8874042 1.41583131,1.83872168 1.44928875,1.79001259 C1.44748024,1.79373287 1.44466413,1.79636364 1.44208055,1.79955245 C1.3716003,1.89056643 1.52134498,1.68682797 1.45546353,1.78262517 C1.45368085,1.78472448 1.4518465,1.78738182 1.44980547,1.79057063 C1.47246353,1.76144615 1.49713678,1.73287972 1.52131915,1.70508392 C1.56167477,1.65932448 1.60466565,1.61593007 1.64837994,1.57304056 C1.66690426,1.55558182 1.72813526,1.50426853 1.75079331,1.48412587 C1.73405167,1.49735944 1.71606991,1.50955664 1.69883739,1.5232951 C1.76394377,1.47142378 1.76828419,1.46879301 1.75079331,1.48412587 C1.84057295,1.41851608 1.9349772,1.36082517 2.03299848,1.31054825 C2.04508967,1.3041972 2.05769757,1.29784615 2.07030547,1.2914951 C2.06361398,1.29441818 2.05718085,1.29784615 2.050231,1.30047692 C2.02090729,1.3140028 2.03118997,1.30921958 2.050231,1.30047692 C2.06361398,1.29441818 2.08417933,1.28514406 2.11608663,1.27034266 C2.10117933,1.2771986 2.08601368,1.28410769 2.07110638,1.2914951 C2.08087234,1.28726993 2.08988906,1.28331049 2.09707143,1.28038741 C2.15473708,1.25710909 2.21335866,1.23858741 2.27332371,1.22112867 C2.33326292,1.20311189 2.39395137,1.19017063 2.45518237,1.17823916 C2.46029787,1.1772028 2.4680228,1.17587413 2.47678116,1.17451888 C2.46135714,1.17587413 2.44694073,1.17770769 2.43252432,1.1793021 C2.58146809,1.15998322 2.52103799,1.1671049 2.47678116,1.17451888 C2.50380547,1.17188811 2.53132067,1.16923077 2.55912006,1.16768951 C2.61084347,1.16423497 2.66305775,1.16423497 2.71478116,1.16423497 L14.3129149,1.16423497 L14.3522888,1.16423497 C14.4125122,1.1645007 14.4719088,1.16875245 14.5313571,1.17454545 C14.5282568,1.17454545 14.5256733,1.17350909 14.5220821,1.17350909 C14.4063374,1.15445594 14.662035,1.18831049 14.5444818,1.17640559 C14.5401155,1.17587413 14.5352325,1.17587413 14.531383,1.17560839 C14.5694392,1.18195944 14.6075213,1.19017063 14.6450866,1.19891329 C14.7055167,1.21267832 14.7652234,1.23117343 14.8241033,1.24998741 C14.8488283,1.25817203 14.9226672,1.2885986 14.9514742,1.29973287 C14.9326657,1.29045874 14.9128754,1.28041399 14.892,1.27140559 C14.9687067,1.30581818 14.973848,1.30898042 14.9514742,1.29973287 C15.050503,1.34921259 15.1456824,1.40634545 15.2359529,1.46985594 C15.2470365,1.4778014 15.257345,1.48521538 15.2679119,1.49313427 C15.2588693,1.48598601 15.2506793,1.47883776 15.2441945,1.47410769 C15.2326459,1.4650993 15.235772,1.46775664 15.2441945,1.47410769 C15.2539863,1.48178741 15.274345,1.49738601 15.3093009,1.52438462 C15.2959179,1.51380839 15.2815015,1.50320559 15.2679119,1.49313427 C15.2771611,1.50001678 15.2858936,1.50743077 15.2920684,1.51271888 C15.3381337,1.55239301 15.3818222,1.59554825 15.4246064,1.63944755 C15.4672872,1.6834 15.5076429,1.72969091 15.5467325,1.77704476 C15.5500912,1.78103077 15.5542249,1.78631888 15.5588495,1.79187273 C15.5505821,1.78052587 15.5434255,1.76912587 15.5351581,1.75799161 C15.6234392,1.8783958 15.5863647,1.82655105 15.5588495,1.79187273 C15.5742994,1.81438042 15.5897492,1.83763217 15.6051474,1.85987413 C15.6586793,1.94246434 15.7049772,2.02949231 15.7466246,2.1192042 C15.7455912,2.11495245 15.754117,2.13217203 15.7795653,2.19066014 C15.7685334,2.16629231 15.7584574,2.14248252 15.7466246,2.1192042 C15.748459,2.12792028 15.789848,2.23033427 15.799614,2.26129231 C15.8222462,2.33245594 15.8400213,2.40524056 15.8556778,2.4779986 C15.8618526,2.5070965 15.8670198,2.53622098 15.8719286,2.56478741 C15.8711277,2.56003077 15.8703526,2.55527413 15.8701201,2.55051748 C15.8572796,2.42825315 15.8930106,2.69390769 15.8726778,2.57353007 C15.8721869,2.57060699 15.8719286,2.56797622 15.8719286,2.56478741 C15.8773283,2.62643776 15.8803769,2.68808811 15.8819787,2.74973846 L15.8819787,2.7962951 L15.8819787,10.9314839 C15.8819787,11.244758 16.1345502,11.5054168 16.4360805,11.5054168 C16.738076,11.5054168 16.9897173,11.2447846 16.9897173,10.9314839 L16.9897173,2.7933986 C16.9886581,2.29012448 16.8564043,1.79107552 16.6084058,1.35925734" id="Fill-6"></path>
                    </g>
                    <path d="M124.91806,0.93187308 L117.714408,8.2144807 C117.533266,8.39685026 117.240136,8.39685026 117.059516,8.2144807 L116.928447,8.0817752 C116.747305,7.89890027 116.747305,7.60263875 116.928447,7.41976382 L124.132099,0.137156198 C124.312719,-0.0457187326 124.605849,-0.0457187326 124.786968,0.137156198 L124.91806,0.269333355 C125.09868,0.452208286 125.09868,0.748998149 124.91806,0.93187308 Z M109.520421,8.3681131 C109.268605,8.3681131 109.064231,8.16118716 109.064231,7.90622813 L109.064231,7.78498534 C109.064231,7.5300263 109.268605,7.32310037 109.520421,7.32310037 L114.284671,7.32310037 C114.536509,7.32310037 114.740883,7.5300263 114.740883,7.78498534 L114.740883,7.90622813 C114.740883,8.16118716 114.536509,8.3681131 114.284671,8.3681131 L109.520421,8.3681131 Z M120.933576,11.9650133 L120.933576,12.0862331 C120.933576,12.3412151 120.729202,12.5481181 120.477387,12.5481181 L109.520421,12.5481181 C109.268605,12.5481181 109.064231,12.3412151 109.064231,12.0862331 L109.064231,11.9650133 C109.064231,11.7100313 109.268605,11.5031053 109.520421,11.5031053 L120.477387,11.5031053 C120.729202,11.5031053 120.933576,11.7100313 120.933576,11.9650133 Z M118.929197,1.57559927 L109.064231,1.57559927 C108.493988,1.57559927 108.032127,2.04322707 108.032127,2.62058903 L108.032127,16.7281231 C108.032127,17.305485 108.493988,17.7731128 109.064231,17.7731128 L121.965681,17.7731128 C122.535923,17.7731128 122.997807,17.305485 122.997807,16.7281231 L122.997807,5.69185874 C122.997807,5.43843879 123.200616,5.23309788 123.450911,5.23309788 L123.57683,5.23309788 C123.827103,5.23309788 124.029912,5.43843879 124.029912,5.69185874 L124.029912,16.7281231 C124.029912,17.8823186 123.105667,18.8181255 121.965681,18.8181255 L109.064231,18.8181255 C107.924268,18.8181255 107,17.8823186 107,16.7281231 L107,2.62058903 C107,1.46639346 107.924268,0.530586538 109.064231,0.530586538 L118.929197,0.530586538 C119.181034,0.530586538 119.385386,0.737512474 119.385386,0.992494477 L119.385386,1.1137143 C119.385386,1.3686963 119.181034,1.57559927 118.929197,1.57559927 L118.929197,1.57559927 Z" id="完善度" fill="#1B88EE"></path>
                    <text id="风控审核" font-family=".PingFangSC-Regular, .PingFang SC" font-size="13" font-weight="normal" fill="#1B88EE">
                        <tspan x="177.48" y="43">风控审核</tspan>
                    </text>
                    <text id="申请成功" font-family=".PingFangSC-Regular, .PingFang SC" font-size="13" font-weight="normal" fill="#1B88EE">
                        <tspan x="256.48" y="43">申请成功</tspan>
                    </text>
                    <g id="Group" transform="translate(59.000000, 7.000000)" fill="#1B88EE">
                        <ellipse id="Oval-2" opacity="0.300000012" cx="1.13043478" cy="3.5" rx="1.13043478" ry="1.16666667"></ellipse>
                        <ellipse id="Oval-2-Copy" opacity="0.400000006" cx="4.52173913" cy="3.5" rx="1.13043478" ry="1.16666667"></ellipse>
                        <ellipse id="Oval-2-Copy-2" opacity="0.5" cx="7.91304348" cy="3.5" rx="1.13043478" ry="1.16666667"></ellipse>
                        <ellipse id="Oval-2-Copy-3" opacity="0.600000024" cx="11.3043478" cy="3.5" rx="1.13043478" ry="1.16666667"></ellipse>
                        <ellipse id="Oval-2-Copy-4" opacity="0.699999988" cx="14.6956522" cy="3.5" rx="1.13043478" ry="1.16666667"></ellipse>
                        <ellipse id="Oval-2-Copy-5" cx="18.0869565" cy="3.5" rx="1.13043478" ry="1.16666667"></ellipse>
                        <polygon id="Triangle" transform="translate(23.173913, 3.500000) rotate(90.000000) translate(-23.173913, -3.500000) " points="23.173913 1.3125 26 5.6875 20.3478261 5.6875"></polygon>
                    </g>
                    <g id="Group-Copy" transform="translate(146.000000, 7.000000)" fill="#1B88EE">
                        <ellipse id="Oval-2" opacity="0.300000012" cx="1.13043478" cy="3.5" rx="1.13043478" ry="1.16666667"></ellipse>
                        <ellipse id="Oval-2-Copy" opacity="0.400000006" cx="4.52173913" cy="3.5" rx="1.13043478" ry="1.16666667"></ellipse>
                        <ellipse id="Oval-2-Copy-2" opacity="0.5" cx="7.91304348" cy="3.5" rx="1.13043478" ry="1.16666667"></ellipse>
                        <ellipse id="Oval-2-Copy-3" opacity="0.600000024" cx="11.3043478" cy="3.5" rx="1.13043478" ry="1.16666667"></ellipse>
                        <ellipse id="Oval-2-Copy-4" opacity="0.699999988" cx="14.6956522" cy="3.5" rx="1.13043478" ry="1.16666667"></ellipse>
                        <ellipse id="Oval-2-Copy-5" cx="18.0869565" cy="3.5" rx="1.13043478" ry="1.16666667"></ellipse>
                        <polygon id="Triangle" transform="translate(23.173913, 3.500000) rotate(90.000000) translate(-23.173913, -3.500000) " points="23.173913 1.3125 26 5.6875 20.3478261 5.6875"></polygon>
                    </g>
                    <g id="Group-Copy-2" transform="translate(232.000000, 7.000000)" fill="#1B88EE">
                        <ellipse id="Oval-2" opacity="0.300000012" cx="1.13043478" cy="3.5" rx="1.13043478" ry="1.16666667"></ellipse>
                        <ellipse id="Oval-2-Copy" opacity="0.400000006" cx="4.52173913" cy="3.5" rx="1.13043478" ry="1.16666667"></ellipse>
                        <ellipse id="Oval-2-Copy-2" opacity="0.5" cx="7.91304348" cy="3.5" rx="1.13043478" ry="1.16666667"></ellipse>
                        <ellipse id="Oval-2-Copy-3" opacity="0.600000024" cx="11.3043478" cy="3.5" rx="1.13043478" ry="1.16666667"></ellipse>
                        <ellipse id="Oval-2-Copy-4" opacity="0.699999988" cx="14.6956522" cy="3.5" rx="1.13043478" ry="1.16666667"></ellipse>
                        <ellipse id="Oval-2-Copy-5" cx="18.0869565" cy="3.5" rx="1.13043478" ry="1.16666667"></ellipse>
                        <polygon id="Triangle" transform="translate(23.173913, 3.500000) rotate(90.000000) translate(-23.173913, -3.500000) " points="23.173913 1.3125 26 5.6875 20.3478261 5.6875"></polygon>
                    </g>
                    <text id="¥" font-family=".SFNSText, .SF NS Text" font-size="14" font-weight="normal" fill="#1B88EE">
                        <tspan x="279.460938" y="14">¥</tspan>
                    </text>
                    <circle id="Oval" stroke="#1B88EE" cx="284" cy="9" r="9"></circle>
                    <path d="M195.778501,18.8239626 C195.0498,18.6271981 194.404467,18.0066392 194.136494,17.2449987 C194.019056,16.9112264 194.00014,15.9003626 194.00014,9.95694244 C194.00014,2.24251747 193.97402,2.5763147 194.635927,1.82227185 C194.830178,1.60096498 195.180397,1.3254498 195.414275,1.20998535 L195.839438,1 L208.951642,1 L209.483675,1.27261607 C209.894881,1.48330121 210.097206,1.66394559 210.3746,2.06792122 L210.733492,2.59056032 L210.762428,3.88086307 C210.795825,5.3700296 210.746178,5.54357617 210.286771,5.54357617 C209.790926,5.54357617 209.701652,5.3229441 209.701652,4.09729644 C209.701652,2.95024958 209.606521,2.68543111 209.04458,2.26785967 C208.793181,2.08104218 208.743634,2.07964261 202.449934,2.07964261 C196.248002,2.07964261 196.101678,2.08366637 195.794576,2.26166157 C195.6086,2.36945339 195.398225,2.60650541 195.278669,2.84303259 L195.076792,3.24243462 L195.076792,16.6620032 L195.278669,17.0614052 C195.633872,17.7641138 195.816234,17.8178973 198.018687,17.8697813 C200.086454,17.9184913 200.097047,17.9213155 200.099913,18.4270098 C200.102555,18.8986396 199.888565,18.9501237 197.950372,18.9433758 C196.842218,18.939552 196.044006,18.8956405 195.778451,18.8239626 L195.778501,18.8239626 Z M211.226969,18.887343 C211.152973,18.8610261 210.504424,18.2548628 209.785817,17.5403577 L208.47925,16.2412827 L207.706385,16.7278579 C207.257346,17.0105458 206.601795,17.3234745 206.141839,17.474653 C205.414135,17.7138043 205.244933,17.7346729 204.049148,17.7326235 C202.824703,17.7304992 202.701957,17.7139043 201.96209,17.4505854 C200.846758,17.0535826 200.255557,16.6750241 199.383549,15.7994437 C198.522282,14.9346849 198.053828,14.1954875 197.702114,13.1462605 C197.482865,12.4921369 197.460858,12.3033451 197.460858,11.0768976 C197.460858,9.85045022 197.482865,9.66165834 197.702114,9.00753473 C198.053579,7.95903253 198.521883,7.21968515 199.383549,6.35290201 C200.243245,5.48816823 200.97561,5.02211172 202.030379,4.66862055 C202.681096,4.45053769 202.873951,4.42804461 204.09401,4.42804461 C205.314094,4.42804461 205.506924,4.45053769 206.157641,4.66862055 C207.214703,5.02288648 207.944775,5.48789332 208.804471,6.35457649 C210.115001,7.67569476 210.68736,8.95969946 210.759836,10.741126 C210.824686,12.3351603 210.497197,13.5558095 209.67324,14.7911541 L209.230307,15.4552247 L210.587543,16.8265275 C211.474306,17.7224767 211.944754,18.2634351 211.944754,18.387147 C211.944754,18.491315 211.838382,18.6604129 211.708358,18.7629813 C211.459676,18.9591209 211.441706,18.9637945 211.226969,18.887343 Z M205.260385,16.5652579 C207.142476,16.1703795 208.685264,14.8096984 209.391958,12.9213298 C209.617537,12.3185654 209.645151,12.1264995 209.650659,11.1218838 C209.656192,10.1147439 209.630497,9.9203537 209.404993,9.26178145 C208.949499,7.93161597 207.974034,6.78446914 206.749913,6.13944273 C205.902279,5.69280523 205.405612,5.54824974 204.49749,5.48391954 C203.404713,5.40649338 202.581055,5.56894336 201.619722,6.05156978 C200.669829,6.52839798 199.986538,7.13106244 199.401768,8.00779252 C198.748484,8.98719099 198.531155,9.75338011 198.531155,11.0768726 C198.531155,12.0253556 198.56176,12.2459127 198.783002,12.8919888 C199.258011,14.2791618 200.263209,15.4265835 201.570175,16.0735593 C202.778196,16.6715502 203.986392,16.8325257 205.26041,16.5652579 L205.260385,16.5652579 Z M203.799968,15.3904696 C203.568233,15.2277197 203.530898,14.8034753 203.730632,14.603162 C203.802186,14.5314091 204.094184,14.4434612 204.379554,14.4077222 C205.180207,14.3074031 205.791197,14.0357617 206.332825,13.5393895 C206.928885,12.9931077 207.250044,12.3663257 207.411446,11.4343376 C207.541594,10.682794 207.6287,10.5674545 208.039059,10.6035934 C208.4793,10.6423314 208.597784,10.9668315 208.464196,11.7678349 C208.160833,13.586525 206.810899,15.0263317 205.060352,15.3983172 C204.28031,15.5640662 204.045111,15.5626416 203.799992,15.3904696 L203.799968,15.3904696 Z M200.207954,9.94871997 C199.956132,9.71346739 199.960842,9.59680331 200.245015,9.03447643 C200.681443,8.17084232 201.933229,7.07647924 202.487494,7.07398001 C202.757535,7.07275539 202.991289,7.37001387 202.956745,7.67067131 C202.934439,7.86483653 202.808802,8.00289403 202.420376,8.26011484 C201.897166,8.60668314 201.399651,9.15089059 201.143367,9.65715973 C200.897451,10.1428602 200.536266,10.2554755 200.207929,9.94874496 L200.207954,9.94871997 L200.207954,9.94871997 Z" id="审核" fill="#1B88EE"></path>
                </g>
            </g>
        </g>
    </g>
</svg>