<?xml version="1.0" encoding="UTF-8"?>
<svg width="140px" height="190px" viewBox="0 0 140 190" version="1.1" xmlns="http://www.w3.org/2000/svg" xmlns:xlink="http://www.w3.org/1999/xlink">
    <!-- Generator: Sketch 43 (38999) - http://www.bohemiancoding.com/sketch -->
    <title>步骤三</title>
    <desc>Created with Sketch.</desc>
    <defs>
        <filter x="-7.8%" y="-34.2%" width="150.8%" height="141.8%" filterUnits="objectBoundingBox" id="filter-1">
            <feOffset dx="0" dy="2" in="SourceAlpha" result="shadowOffsetOuter1"></feOffset>
            <feGaussianBlur stdDeviation="3" in="shadowOffsetOuter1" result="shadowBlurOuter1"></feGaussianBlur>
            <feColorMatrix values="0 0 0 0 0.678431373   0 0 0 0 0.729411765   0 0 0 0 0.768627451  0 0 0 0.4 0" type="matrix" in="shadowBlurOuter1" result="shadowMatrixOuter1"></feColorMatrix>
            <feMerge>
                <feMergeNode in="shadowMatrixOuter1"></feMergeNode>
                <feMergeNode in="SourceGraphic"></feMergeNode>
            </feMerge>
        </filter>
        <path d="M90.4267846,0 L3.99495017,0 C1.79198684,0 0,1.78832423 0,3.99433396 L0,153.603299 C0,155.800586 1.78860011,157.597633 3.99495017,157.597633 L123.632957,157.597633 C125.83592,157.597633 127.627907,155.809309 127.627907,153.603299 L127.627907,37.2011224 L90.4267846,6.66133815e-15 Z" id="path-2"></path>
        <filter x="-20.3%" y="-10.0%" width="139.0%" height="122.0%" filterUnits="objectBoundingBox" id="filter-4">
            <feOffset dx="0" dy="2" in="SourceAlpha" result="shadowOffsetOuter1"></feOffset>
            <feGaussianBlur stdDeviation="3" in="shadowOffsetOuter1" result="shadowBlurOuter1"></feGaussianBlur>
            <feColorMatrix values="0 0 0 0 0.678431373   0 0 0 0 0.729411765   0 0 0 0 0.768627451  0 0 0 0.4 0" type="matrix" in="shadowBlurOuter1" result="shadowMatrixOuter1"></feColorMatrix>
            <feMerge>
                <feMergeNode in="shadowMatrixOuter1"></feMergeNode>
                <feMergeNode in="SourceGraphic"></feMergeNode>
            </feMerge>
        </filter>
    </defs>
    <g id="Page-1" stroke="none" stroke-width="1" fill="none" fill-rule="evenodd">
        <g id="分期申请流程" transform="translate(-110.000000, -1153.000000)">
            <g id="申请流程" transform="translate(11.000000, 327.000000)">
                <g id="第三步" transform="translate(0.000000, 737.000000)">
                    <g id="步骤三" transform="translate(105.000000, 93.000000)">
                        <g id="Group-9">
                            <g id="Rectangle-12" filter="url(#filter-1)">
                                <mask id="mask-3" fill="white">
                                    <use xlink:href="#path-2"></use>
                                </mask>
                                <use id="Mask" fill="#FFFFFF" xlink:href="#path-2"></use>
                                <polygon id="Path" fill="#FAFAFA" mask="url(#mask-3)" points="91.4543514 34.824681 140.765943 82.2293246 144.498365 19.9673747"></polygon>
                                <rect fill="#EFF2F3" mask="url(#mask-3)" x="89.7262861" y="-12.4214883" width="51.8246653" height="52.0149824" rx="8"></rect>
                                <rect id="Rectangle-10" fill="#B3BCC7" mask="url(#mask-3)" x="33.2606061" y="55.3060017" width="61.8801973" height="3.10537208"></rect>
                                <rect id="Rectangle-10-Copy" fill="#B3BCC7" mask="url(#mask-3)" x="33.2606061" y="78.2756289" width="61.8801973" height="3.10537208"></rect>
                                <rect id="Rectangle-10-Copy-2" fill="#B3BCC7" mask="url(#mask-3)" x="33.2606061" y="101.245256" width="61.8801973" height="3.10537208"></rect>
                                <rect id="Rectangle-10-Copy-3" fill="#B3BCC7" mask="url(#mask-3)" x="33.2606061" y="124.214883" width="61.8801973" height="3.10537208"></rect>
                            </g>
                            <g id="默认头像" transform="translate(51.279070, 14.846154)">
                                <path d="M0,13.1459489 C0,20.3920446 5.86148673,26.2662722 13.0918661,26.2662722 C20.3222455,26.2662722 26.1837323,20.3920446 26.1837323,13.1459489 C26.1837323,5.89985318 20.3222455,0.0256256314 13.0918661,0.0256256314 C5.86148673,0.0256256314 0,5.89985318 0,13.1459489" id="Fill-1" fill="#ECF0F6"></path>
                                <path d="M10.1461963,11.8339166 L10.1461963,15.1139974 C10.1461963,15.1139974 10.2607501,17.2493172 8.83700964,17.574058 C8.83700964,17.574058 8.79117533,21.0181429 13.4191628,21.0181429 L13.4191628,11.8339166 L10.1461963,11.8339166 Z M16.6921293,11.8339166 L16.6921293,15.1139974 C16.6921293,15.1139974 16.5775755,17.2493172 18.0013159,17.574058 C18.0013159,17.574058 18.0471503,21.0181429 13.4191628,21.0181429 L13.4191628,11.8339166 L16.6921293,11.8339166 L16.6921293,11.8339166 Z" id="Fill-2" fill="#F3EEED"></path>
                                <path d="M10.0490626,14.1299732 C10.0490626,14.1299732 12.5850218,18.2283223 17.4944716,17.4443702 C16.3177405,16.6347255 16.8127299,13.473957 16.6921293,13.473957 L9.8188996,14.1299732 L10.0490626,14.1299732 Z" id="Fill-3" fill="#E8E2E1"></path>
                                <path d="M13.0918661,26.2662722 C8.64887799,26.2655675 4.50947028,24.0067001 2.09795876,20.2669916 C4.08129977,18.570863 6.56175454,17.568004 9.1643063,17.410054 C9.81081307,19.2015739 11.5183811,20.3863109 13.4191628,20.3621267 C16.1717149,20.3621267 17.3467226,17.410054 17.3467226,17.410054 C17.3467226,17.410054 21.9288758,17.8954995 24.2985163,19.9291496 C21.9279489,23.8624278 17.6769598,26.2662722 13.0918661,26.2662722" id="Fill-4" fill="#5897D6"></path>
                                <path d="M17.3467226,10.4464488 C17.3467226,10.4464488 18.1289744,8.99337941 18.5348031,9.77073293 C18.9406637,10.5481185 18.4890007,12.5128997 17.019426,13.1459489 L17.3467226,10.4464488" id="Fill-5" fill="#E8E1E0"></path>
                                <path d="M13.2555145,6.25777919 C14.2374044,6.25777919 17.019426,6.58578727 17.019426,6.58578727 C17.019426,6.58578727 17.3467226,9.73466486 17.3467226,11.1779004 C17.3467226,13.8938009 15.3338482,16.0980216 13.2555145,16.0980216 C11.1771807,16.0980216 9.1643063,13.8938009 9.1643063,11.1779004 C9.1643063,9.47225839 9.49160295,6.58578727 9.49160295,6.58578727 C9.49160295,6.58578727 12.4831071,6.25777919 13.2555145,6.25777919" id="Fill-6" fill="#FFF4F3"></path>
                                <path d="M9.49160295,4.61773878 C10.3753039,3.08593463 12.2277902,2.97769837 13.0918661,2.97769837 C16.1717149,2.97769837 18.0864003,3.98795686 18.3286126,6.58578727 C18.5544601,9.02618021 17.8213028,9.90850273 17.6740193,9.86586809 C17.6740193,9.86586809 16.6921293,8.28816203 16.6921293,7.24180343 C16.6921293,7.24180343 13.0918661,8.59320314 10.8007896,5.92977111 C9.75344027,6.19544484 9.49160295,8.88184384 9.49160295,9.53786001 C9.49160295,9.53786001 7.73730567,7.65838011 9.49160295,4.61773878 Z" id="Fill-7" fill="#5897D5"></path>
                            </g>
                        </g>
                        <g id="Group-7" filter="url(#filter-4)" transform="translate(96.074033, 133.013772) rotate(-30.000000) translate(-96.074033, -133.013772) translate(66.574033, 83.013772)">
                            <rect id="Rectangle-13" fill="#D6DFE5" x="27.3488372" y="58.2426036" width="3.41860465" height="13.704142"></rect>
                            <rect id="Rectangle-14" fill="#FFD070" x="25.0697674" y="67.3786982" width="7.97674419" height="32"></rect>
                            <ellipse id="Oval-3" stroke="#C3E6FF" stroke-width="3" fill-opacity="0.9" fill="#62BCFF" cx="29.0581395" cy="29.1213018" rx="29.0581395" ry="29.1213018"></ellipse>
                        </g>
                        <polygon id="Path" fill="#FFFFFF" points="84.3623146 124.705465 82.7291514 126.342178 72.9302326 116.52196 76.196559 113.248594 82.729091 119.795386 97.427439 105.065089 100.693705 108.338454"></polygon>
                    </g>
                </g>
            </g>
        </g>
    </g>
</svg>