<?xml version="1.0" encoding="UTF-8"?>
<svg width="198px" height="177px" viewBox="0 0 198 177" version="1.1" xmlns="http://www.w3.org/2000/svg" xmlns:xlink="http://www.w3.org/1999/xlink">
    <!-- Generator: Sketch 43 (38999) - http://www.bohemiancoding.com/sketch -->
    <title>步骤四</title>
    <desc>Created with Sketch.</desc>
    <defs>
        <filter x="-7.8%" y="-34.2%" width="150.8%" height="141.8%" filterUnits="objectBoundingBox" id="filter-1">
            <feOffset dx="0" dy="2" in="SourceAlpha" result="shadowOffsetOuter1"></feOffset>
            <feGaussianBlur stdDeviation="3" in="shadowOffsetOuter1" result="shadowBlurOuter1"></feGaussianBlur>
            <feColorMatrix values="0 0 0 0 0.678431373   0 0 0 0 0.729411765   0 0 0 0 0.768627451  0 0 0 0.4 0" type="matrix" in="shadowBlurOuter1" result="shadowMatrixOuter1"></feColorMatrix>
            <feMerge>
                <feMergeNode in="shadowMatrixOuter1"></feMergeNode>
                <feMergeNode in="SourceGraphic"></feMergeNode>
            </feMerge>
        </filter>
        <path d="M90.4267846,0 L3.99495017,0 C1.79198684,0 0,1.78832423 0,3.99433396 L0,153.603299 C0,155.800586 1.78860011,157.597633 3.99495017,157.597633 L123.632957,157.597633 C125.83592,157.597633 127.627907,155.809309 127.627907,153.603299 L127.627907,37.2011224 L90.4267846,-4.88498131e-15 Z" id="path-2"></path>
        <path d="M51.5,-9.9475983e-14 C23.0573762,-9.9475983e-14 0,23.0573762 0,51.5 C0,79.9426238 23.0573762,103 51.5,103 C79.942768,103 103,79.9426238 103,51.5 C103,23.0573762 79.9426238,-9.9475983e-14 51.5,-9.9475983e-14 Z" id="path-4"></path>
        <filter x="-9.7%" y="-7.8%" width="119.4%" height="119.4%" filterUnits="objectBoundingBox" id="filter-5">
            <feOffset dx="0" dy="2" in="SourceAlpha" result="shadowOffsetOuter1"></feOffset>
            <feGaussianBlur stdDeviation="3" in="shadowOffsetOuter1" result="shadowBlurOuter1"></feGaussianBlur>
            <feColorMatrix values="0 0 0 0 0.678431373   0 0 0 0 0.729411765   0 0 0 0 0.768627451  0 0 0 0.5 0" type="matrix" in="shadowBlurOuter1"></feColorMatrix>
        </filter>
    </defs>
    <g id="Page-1" stroke="none" stroke-width="1" fill="none" fill-rule="evenodd">
        <g id="分期申请流程" transform="translate(-102.000000, -1448.000000)">
            <g id="申请流程" transform="translate(11.000000, 327.000000)">
                <g id="第四部" transform="translate(28.000000, 1052.000000)">
                    <g id="步骤四" transform="translate(69.000000, 73.000000)">
                        <g id="Group-9">
                            <g id="Rectangle-12" filter="url(#filter-1)">
                                <mask id="mask-3" fill="white">
                                    <use xlink:href="#path-2"></use>
                                </mask>
                                <use id="Mask" fill="#FFFFFF" xlink:href="#path-2"></use>
                                <polygon id="Path" fill="#FAFAFA" mask="url(#mask-3)" points="91.4543514 34.824681 140.765943 82.2293246 144.498365 19.9673747"></polygon>
                                <rect fill="#EFF2F3" mask="url(#mask-3)" x="89.7262861" y="-12.4214883" width="51.8246653" height="52.0149824" rx="8"></rect>
                                <rect id="Rectangle-10" fill="#B3BCC7" mask="url(#mask-3)" x="38.2606061" y="55.3060017" width="61.8801973" height="3.10537208"></rect>
                                <polygon id="Path" fill="#8BBFFF" mask="url(#mask-3)" points="27.1176701 60.0741785 26.5294284 60.6636988 23 57.1265987 24.1764834 55.9475798 26.5294066 58.3056393 31.8235384 53 33 54.1790188"></polygon>
                                <polygon id="Path-Copy" fill="#8BBFFF" mask="url(#mask-3)" points="27.1176701 83.0741785 26.5294284 83.6636988 23 80.1265987 24.1764834 78.9475798 26.5294066 81.3056393 31.8235384 76 33 77.1790188"></polygon>
                                <polygon id="Path-Copy-2" fill="#8BBFFF" mask="url(#mask-3)" points="27.1176701 106.074178 26.5294284 106.663699 23 103.126599 24.1764834 101.94758 26.5294066 104.305639 31.8235384 99 33 100.179019"></polygon>
                                <polygon id="Path-Copy-3" fill="#8BBFFF" mask="url(#mask-3)" points="27.1176701 129.074178 26.5294284 129.663699 23 126.126599 24.1764834 124.94758 26.5294066 127.305639 31.8235384 122 33 123.179019"></polygon>
                                <rect id="Rectangle-10-Copy" fill="#B3BCC7" mask="url(#mask-3)" x="38.2606061" y="78.2756289" width="61.8801973" height="3.10537208"></rect>
                                <rect id="Rectangle-10-Copy-2" fill="#B3BCC7" mask="url(#mask-3)" x="38.2606061" y="101.245256" width="61.8801973" height="3.10537208"></rect>
                                <rect id="Rectangle-10-Copy-3" fill="#B3BCC7" mask="url(#mask-3)" x="38.2606061" y="124.214883" width="61.8801973" height="3.10537208"></rect>
                            </g>
                            <g id="默认头像" transform="translate(51.279070, 14.846154)">
                                <path d="M0,13.1459489 C0,20.3920446 5.86148673,26.2662722 13.0918661,26.2662722 C20.3222455,26.2662722 26.1837323,20.3920446 26.1837323,13.1459489 C26.1837323,5.89985318 20.3222455,0.0256256314 13.0918661,0.0256256314 C5.86148673,0.0256256314 0,5.89985318 0,13.1459489" id="Fill-1" fill="#ECF0F6"></path>
                                <path d="M10.1461963,11.8339166 L10.1461963,15.1139974 C10.1461963,15.1139974 10.2607501,17.2493172 8.83700964,17.574058 C8.83700964,17.574058 8.79117533,21.0181429 13.4191628,21.0181429 L13.4191628,11.8339166 L10.1461963,11.8339166 Z M16.6921293,11.8339166 L16.6921293,15.1139974 C16.6921293,15.1139974 16.5775755,17.2493172 18.0013159,17.574058 C18.0013159,17.574058 18.0471503,21.0181429 13.4191628,21.0181429 L13.4191628,11.8339166 L16.6921293,11.8339166 L16.6921293,11.8339166 Z" id="Fill-2" fill="#F3EEED"></path>
                                <path d="M10.0490626,14.1299732 C10.0490626,14.1299732 12.5850218,18.2283223 17.4944716,17.4443702 C16.3177405,16.6347255 16.8127299,13.473957 16.6921293,13.473957 L9.8188996,14.1299732 L10.0490626,14.1299732 Z" id="Fill-3" fill="#E8E2E1"></path>
                                <path d="M13.0918661,26.2662722 C8.64887799,26.2655675 4.50947028,24.0067001 2.09795876,20.2669916 C4.08129977,18.570863 6.56175454,17.568004 9.1643063,17.410054 C9.81081307,19.2015739 11.5183811,20.3863109 13.4191628,20.3621267 C16.1717149,20.3621267 17.3467226,17.410054 17.3467226,17.410054 C17.3467226,17.410054 21.9288758,17.8954995 24.2985163,19.9291496 C21.9279489,23.8624278 17.6769598,26.2662722 13.0918661,26.2662722" id="Fill-4" fill="#5897D6"></path>
                                <path d="M17.3467226,10.4464488 C17.3467226,10.4464488 18.1289744,8.99337941 18.5348031,9.77073293 C18.9406637,10.5481185 18.4890007,12.5128997 17.019426,13.1459489 L17.3467226,10.4464488" id="Fill-5" fill="#E8E1E0"></path>
                                <path d="M13.2555145,6.25777919 C14.2374044,6.25777919 17.019426,6.58578727 17.019426,6.58578727 C17.019426,6.58578727 17.3467226,9.73466486 17.3467226,11.1779004 C17.3467226,13.8938009 15.3338482,16.0980216 13.2555145,16.0980216 C11.1771807,16.0980216 9.1643063,13.8938009 9.1643063,11.1779004 C9.1643063,9.47225839 9.49160295,6.58578727 9.49160295,6.58578727 C9.49160295,6.58578727 12.4831071,6.25777919 13.2555145,6.25777919" id="Fill-6" fill="#FFF4F3"></path>
                                <path d="M9.49160295,4.61773878 C10.3753039,3.08593463 12.2277902,2.97769837 13.0918661,2.97769837 C16.1717149,2.97769837 18.0864003,3.98795686 18.3286126,6.58578727 C18.5544601,9.02618021 17.8213028,9.90850273 17.6740193,9.86586809 C17.6740193,9.86586809 16.6921293,8.28816203 16.6921293,7.24180343 C16.6921293,7.24180343 13.0918661,8.59320314 10.8007896,5.92977111 C9.75344027,6.19544484 9.49160295,8.88184384 9.49160295,9.53786001 C9.49160295,9.53786001 7.73730567,7.65838011 9.49160295,4.61773878 Z" id="Fill-7" fill="#5897D5"></path>
                            </g>
                        </g>
                        <g id="Group-6" transform="translate(83.000000, 62.000000)">
                            <g id="成功-2">
                                <use fill="black" fill-opacity="1" filter="url(#filter-5)" xlink:href="#path-4"></use>
                                <use fill="#FFFFFF" fill-rule="evenodd" xlink:href="#path-4"></use>
                            </g>
                            <g id="通过" transform="translate(9.000000, 18.000000)" fill="#1B98F4">
                                <path d="M55.8464748,11.9175315 L57.2104157,13.045609 L57.6306839,11.3549855 L59.1589028,10.4439935 L57.6306839,9.53342811 L57.2104157,7.84280452 L55.8464748,8.97088207 L54.0587749,8.83642973 L54.7433899,10.4439935 L54.0587749,12.052517 L55.8464748,11.9175315 Z M43.0105781,64.206378 C28.8510431,64.206378 16.9406248,54.3912504 13.4514367,41.067567 L11.5705437,40.5531082 C14.9206298,55.1058417 27.7257442,65.9401842 43.0105781,65.9401842 C52.2797491,65.9401842 60.6346544,61.9572601 66.5246494,55.5770113 L64.6450258,55.0634055 C59.1086568,60.7116834 51.4590996,64.206378 43.0105781,64.206378 L43.0105781,64.206378 Z" id="Fill-1"></path>
                                <path d="M21.5181943,49.3221519 L22.9046667,50.4633441 L23.2318475,48.7465977 L24.6772399,47.819399 L23.1429914,46.9000905 L22.650369,45.1859031 L21.3743321,46.3335994 L19.6247134,46.2012795 L20.370893,47.8302746 L19.7815867,49.4640679 L21.5181943,49.3221519 Z M43.0105781,13.045609 C49.4504231,13.045609 55.1636581,16.2237383 58.7247774,21.1263974 L61.2161328,21.8072956 C57.4968708,15.5174637 50.7355572,11.3113764 43.0105781,11.3113764 C39.4078868,11.3072181 35.8650677,12.2395347 32.7241107,14.0182294 L35.210706,14.6977415 C37.6682116,13.6057027 40.3249028,13.0429435 43.0105781,13.045609 Z M45.3148069,5.69583199 L44.2752964,4.31143134 L43.4577146,5.89724394 L41.763631,6.49294992 L43.0140689,7.69523748 L43.0070873,9.44738288 L44.597294,8.60452342 L46.2874637,9.09232633 L46.0197319,7.36896931 L47.0713014,5.91814216 L45.3148069,5.69583199 L45.3148069,5.69583199 Z" id="Fill-2"></path>
                                <path d="M43.0105781,1.77315024 C57.1701132,1.77315024 69.0805314,11.5874249 72.5701427,24.9115347 L74.4514588,25.425567 C71.1001033,10.8733667 58.2962583,0.038917609 43.0105781,0.038917609 C33.7422534,0.038917609 25.386925,4.0223748 19.497353,10.402517 L21.3761304,10.9161228 C26.9129225,5.26741842 34.5616335,1.77315024 43.0105781,1.77315024" id="Fill-3"></path>
                                <path d="M64.3326544,16.5844459 L62.8595474,15.5432666 L62.6493604,17.2832569 L61.2616187,18.3147334 L62.8682214,19.1231535 L63.483444,20.8015153 L64.6853284,19.5621228 L66.4548339,19.5677738 L65.5913432,17.9924103 L66.0688389,16.317567 L64.3326544,16.5844459 Z M32.1769053,8.13367367 L30.773508,7.137063 L30.4671661,8.90147011 L29.0303419,9.99414863 L30.5798229,10.7519225 L31.0949766,12.4236737 L32.3588487,11.1274507 L34.1140738,11.0684879 L33.3458918,9.5094378 L33.9152054,7.80047496 L32.1769053,8.13367367 Z M83.4723616,29.6872052 L9.58831242,9.48885945 C7.77501353,8.99359289 5.91062239,10.0911761 5.42487577,11.9415218 L0.145872079,32.0429467 C-0.339874539,33.892546 0.736341943,35.7949241 2.54964084,36.2914701 L76.4328438,56.4893893 C78.2469889,56.9850824 80.1101107,55.8870727 80.5962804,54.0371535 L85.8744379,33.9357286 C86.3623001,32.0848498 85.2848143,30.1828982 83.4723616,29.6872052 Z M84.0139606,34.3243716 L79.1746888,52.7501002 C78.8098499,54.1384459 77.4116359,54.9612601 76.052032,54.5904233 L3.81097417,34.840643 C2.4504182,34.4676737 1.64320295,33.0422229 2.0076187,31.6547302 L6.84689053,13.2277221 C7.21088315,11.8398029 8.6095203,11.0165622 9.96954736,11.3886785 L82.210182,31.1384588 C83.5703149,31.5097221 84.3787995,32.9364523 84.0139606,34.3243716 Z M32.5737958,54.8808659 L31.2206445,53.755454 L30.8033383,55.4420258 L29.2886593,56.3500323 L30.8033383,57.2584653 L31.2206445,58.9459968 L32.5737958,57.8196252 L34.3462632,57.9546107 L33.6677835,56.3500323 L34.3462632,54.7464136 L32.5737958,54.8808659 Z M55.2978942,57.8419095 L56.6931464,58.8376672 L56.9929299,57.0789111 L58.4175892,55.9914572 L56.8781574,55.23379 L56.3634268,53.5658772 L55.1120369,54.8555961 L53.370246,54.9135994 L54.1350431,56.468811 L53.5730283,58.1715897 L55.2978942,57.8419095 Z M43.0049717,60.2224943 L44.0369717,61.604336 L44.8481009,60.021189 L46.5279041,59.4277221 L45.2879385,58.2279935 L45.2943911,56.4792601 L43.7177245,57.3208401 L42.0417294,56.8348498 L42.3069225,58.5528756 L41.2640271,60.0019968 L43.0049717,60.2224943 Z M50.8108733,51.2800808 C48.3534736,52.3729725 45.6965707,52.9360517 43.0105781,52.9330662 C36.57031,52.9330662 30.8579213,49.754937 27.2963788,44.8513183 L24.8050234,44.1701002 C28.5242854,50.4598255 35.2851759,54.6660194 43.0105781,54.6660194 C46.6133752,54.6706042 50.1565117,53.7385008 53.2974686,51.9595929 L50.8108733,51.2800808 L50.8108733,51.2800808 Z" id="Fill-4"></path>
                                <path d="M29.3280098,24.3368336 C29.2487798,24.0564136 29.1053407,23.6293861 28.8994908,23.0554313 C28.4775301,21.7505719 28.1625141,20.810685 27.95677,20.2364103 L25.491754,20.810685 C25.9016556,22.1645913 26.2664945,23.5839645 26.5901845,25.069231 L29.3280098,24.3368336 Z M26.0775695,33.6304653 L27.9718967,26.5323199 L23.8760541,25.421622 L23.1992669,27.9569176 L24.7799533,28.3853312 L23.5624133,32.9482876 L21.4848733,34.0934249 L21.7759828,37.0461519 C22.9081574,36.2660937 23.7959779,35.7297771 24.4393383,35.4384814 C24.9918327,36.8307722 26.1972079,37.8042456 28.0520787,38.3593279 C29.3070652,38.7549015 30.5704084,39.1232859 31.8410504,39.4642682 L37.6617589,41.0421906 C37.8858032,40.5845622 38.2323419,40.0574152 38.7003173,39.4594701 C38.7991169,39.2800226 38.89231,39.1231793 38.9793678,38.9917124 C35.2301697,38.0274087 31.9719016,37.1443522 29.2067847,36.3425428 C27.4212005,35.9101842 26.3774588,35.0061228 26.0775695,33.6304653 L26.0775695,33.6304653 Z" id="Fill-5"></path>
                                <path d="M29.9390012,23.492588 L32.0945018,24.0769919 L30.9476236,24.6206656 C31.0654637,24.757357 31.2899311,24.9731632 31.6227183,25.2696834 C32.2019754,25.7897932 32.6106076,26.1854733 32.8471341,26.4558708 L29.4701796,25.5400808 L26.9190578,35.1004847 L29.2903518,35.7433183 L29.9281058,33.3535638 L32.0117811,33.9186688 L31.4125314,36.1639483 L33.7839311,36.8067819 L34.383075,34.561609 L36.6106125,35.1650985 L36.5720025,35.3101066 C36.5035621,35.7572859 36.2063173,35.9101842 35.6799508,35.7674152 C35.104925,35.6114249 34.6803198,35.4703619 34.4056064,35.3442262 C34.4421009,35.9752246 34.4493998,36.6255218 34.425599,37.2911729 C34.7600787,37.3820162 35.1747405,37.4684879 35.6665166,37.5501616 L36.3133678,37.724811 C37.7630972,38.0667528 38.6526101,37.4269047 38.9824354,35.8080388 L40.8956974,28.6377092 L37.3736113,27.6831082 L41.1813063,26.6960937 L41.7224822,24.6678998 L30.441567,21.6095089 L29.9390012,23.492588 Z M32.4749963,32.1800646 L30.391321,31.6153861 L30.6621205,30.6012892 L32.7457958,31.1659677 L32.4749963,32.1800646 Z M37.0734047,33.4264943 L34.8458672,32.8228982 L35.1166667,31.8089079 L37.3442042,32.4128239 L37.0734047,33.4264943 Z M38.0590726,29.7326268 L37.7882731,30.7467237 L35.5607355,30.1427011 L35.8315351,29.1290307 L38.0590726,29.7326268 Z M37.6270627,25.5771858 L35.3060148,26.1908045 L33.6751882,24.505832 L37.6270627,25.5771858 Z M33.1898647,29.500294 L31.1061894,28.9356155 L31.3769889,27.9215186 L33.4606642,28.4861971 L33.1898647,29.500294 Z M48.6795966,39.3690533 L50.4963862,32.5609241 L45.9689569,31.3332601 L45.2926986,33.8684491 L47.2329348,34.3943166 L46.0925092,38.6676834 C45.2199213,39.0520614 44.6539926,39.339412 44.3992718,39.5288821 C44.1264625,39.6523522 43.8589422,39.7871244 43.5972399,39.9328788 L43.8303813,43.1026914 C44.0985363,42.8651341 44.7198942,42.4628433 45.692551,41.8990178 C46.1171562,41.6514378 46.4521648,41.4580226 46.695567,41.3164265 C47.3316285,42.7826074 48.5591119,43.7634378 50.3802386,44.2569984 C51.5167503,44.616 52.7727946,45.0090145 54.1497466,45.4344426 L59.6827306,46.9341034 C60.166679,46.0816478 60.6433284,45.357567 61.1107749,44.758769 C57.3131292,43.7813506 54.1749225,42.9301745 51.6974244,42.2065202 C50.1510111,41.8396284 49.1457737,40.8937706 48.6795966,39.3690533 Z M52.048829,30.4964782 C51.5812768,29.1030145 51.0759606,27.7227722 50.5336212,26.3571373 L48.0153973,26.8397157 C48.4868635,28.2906494 48.9186617,29.754378 49.3100517,31.2293021 L52.048829,30.4964782 L52.048829,30.4964782 Z" id="Fill-6"></path>
                                <path d="M62.4808512,29.5190598 L59.7503247,28.7787722 L58.9968462,31.6035509 L52.5297097,29.8505525 L51.9109963,32.168336 L58.3781328,33.9217609 L57.0640148,38.846811 C56.9145461,39.7901099 56.3672349,40.1080614 55.4227159,39.799706 C54.5598598,39.5658805 53.7036679,39.3080646 52.8550923,39.0262585 C52.9140123,39.7678255 52.8737097,40.6893732 52.7347134,41.7894087 C54.1714317,42.1790113 55.2316753,42.4406656 55.9153383,42.5742649 C57.9400935,43.0720905 59.1878868,42.2454378 59.659353,40.0940937 L61.1090824,34.6620485 L63.3370431,35.2659645 L63.9557565,32.9482876 L61.7277958,32.3442649 L62.4808512,29.5190598" id="Fill-7"></path>
                                <path d="M53.2307208,38.1951276 L55.7923149,37.2588659 C55.1764576,35.8844879 54.538492,34.5204523 53.878524,33.1670792 L51.5713333,34.0174023 C51.6284551,34.1882132 51.7377269,34.4506139 51.9006298,34.8056704 C52.4881378,36.2600162 52.9313604,37.3897997 53.2307208,38.1951276" id="Fill-8"></path>
                            </g>
                        </g>
                    </g>
                </g>
            </g>
        </g>
    </g>
</svg>