<?xml version="1.0" encoding="UTF-8"?>
<svg width="50px" height="50px" viewBox="0 0 50 50" version="1.1" xmlns="http://www.w3.org/2000/svg" xmlns:xlink="http://www.w3.org/1999/xlink">
    <!-- Generator: Sketch 43 (38999) - http://www.bohemiancoding.com/sketch -->
    <title>处理中</title>
    <desc>Created with Sketch.</desc>
    <defs>
        <polygon id="path-1" points="0.00365853659 49.999939 49.9511585 49.999939 49.9511585 0.0487804878 0.00365853659 0.0487804878"></polygon>
    </defs>
    <g id="Page-1" stroke="none" stroke-width="1" fill="none" fill-rule="evenodd">
        <g id="授信失败" transform="translate(-224.000000, -213.000000)">
            <g id="处理中" transform="translate(224.000000, 213.000000)">
                <mask id="mask-2" fill="white">
                    <use xlink:href="#path-1"></use>
                </mask>
                <g id="Clip-2"></g>
                <path d="M24.9757317,0.0487804878 C11.1830488,0.0487804878 0,11.2301829 0,25.0245122 C0,38.8185366 11.1814024,49.999939 24.9757317,49.999939 C38.7697561,49.999939 49.9511585,38.8185366 49.9511585,25.0245122 C49.9511585,11.2301829 38.7681098,0.0487804878 24.9757317,0.0487804878 Z" id="Fill-1" fill="#1B88EE" mask="url(#mask-2)"></path>
                <path d="M26,25.4715759 L26,9.99079514 C26,8.89821238 25.1045695,8 24,8 C22.8877296,8 22,8.89130934 22,9.99079514 L22,26.0092049 C22,26.1153396 22.0084496,26.2196402 22.0247198,26.3214614 C22.0224789,26.8340367 22.2176701,27.3461003 22.6084718,27.7369019 L30.3981239,35.526554 C31.1748714,36.3033015 32.4397636,36.3018639 33.2208122,35.5208153 C34.0073061,34.7343214 34.0044301,33.4760061 33.226551,32.6981269 L26,25.4715759 Z" id="Combined-Shape" fill="#FFFFFF" mask="url(#mask-2)"></path>
            </g>
        </g>
    </g>
</svg>