<?xml version="1.0" encoding="UTF-8"?>
<svg width="17px" height="17px" viewBox="0 0 17 17" version="1.1" xmlns="http://www.w3.org/2000/svg" xmlns:xlink="http://www.w3.org/1999/xlink">
    <!-- Generator: Sketch 43 (38999) - http://www.bohemiancoding.com/sketch -->
    <title>问号</title>
    <desc>Created with Sketch.</desc>
    <defs></defs>
    <g id="Page-1" stroke="none" stroke-width="1" fill="none" fill-rule="evenodd">
        <g id="ocr租房绑定银行卡" transform="translate(-68.000000, -256.000000)">
            <g id="Group-2-Copy" transform="translate(0.000000, 187.000000)">
                <g id="问号" transform="translate(68.000000, 68.000000)">
                    <circle id="Oval" fill="#DADEE4" cx="8.5" cy="9.5" r="8.5"></circle>
                    <path d="M8.56724488,5.06912016 C9.51380924,5.06912016 9.93246939,5.21537675 10.5010276,5.72703022 C11.0664063,6.24218929 11.3473972,6.86754354 11.3473972,7.59670681 C11.3473972,8.01813883 11.2469579,8.40932492 11.049748,8.76396045 C10.8521847,9.12169395 10.464314,9.55331665 9.888962,10.0649701 C9.5010641,10.4094422 9.24684069,10.6602958 9.12974303,10.8241891 C9.00873215,10.9942511 8.91924442,11.1845858 8.86543765,11.3861709 C8.80535342,11.5969685 8.77518902,11.9414405 8.76521575,12.4162717 L7.95868486,12.4162717 C7.95528797,12.2557753 7.95197261,12.1387863 7.95197261,12.0584295 C7.95197261,11.5934629 8.01885062,11.1887164 8.14931845,10.8509294 C8.24625216,10.5968147 8.40346033,10.339276 8.61746453,10.0783675 C8.77478139,9.88770671 9.0590605,9.61340088 9.47041054,9.24887359 C9.88173341,8.8875258 10.1494629,8.59656161 10.2731369,8.38255741 C10.3934956,8.16844451 10.4570854,7.93109686 10.4570854,7.67684628 C10.4570854,7.21530376 10.2765338,6.80716038 9.91537623,6.45929146 C9.55405562,6.11153123 9.11256834,5.93424064 8.58740883,5.93424064 C8.08244044,5.93424064 7.65761152,6.09158468 7.31985175,6.40928921 C6.97866791,6.72699373 6.75786992,7.21870065 6.65088141,7.89435608 L5.65260276,7.75051808 C5.76290664,6.84748829 6.09080184,6.15843552 6.63261972,5.67683775 C7.17769861,5.19850099 7.67429706,5.06912016 8.56724488,5.06912016 Z M8.44590789,13.2000026 C8.77573252,13.2001113 9.04248367,13.4695256 9.04514683,13.7993231 C9.04525553,13.9582433 8.98220921,14.1107773 8.86978567,14.2232008 C8.75736213,14.3355157 8.60493679,14.3986707 8.44590789,14.398562 C8.28701487,14.3986707 8.13445365,14.3356244 8.02205728,14.2232008 C7.90974244,14.1107773 7.84658743,13.9582433 7.84669613,13.7993231 C7.84658743,13.6403213 7.90963374,13.4877601 8.02205728,13.3753638 C8.13445365,13.2629402 8.28701487,13.1998939 8.44590789,13.2000026 Z" id="Combined-Shape" fill="#FFFFFF"></path>
                </g>
            </g>
        </g>
    </g>
</svg>