<?xml version="1.0" standalone="no"?><!DOCTYPE svg PUBLIC "-//W3C//DTD SVG 1.1//EN" "http://www.w3.org/Graphics/SVG/1.1/DTD/svg11.dtd"><svg t="1501055183774" class="icon" style="" viewBox="0 0 1024 1024" version="1.1" xmlns="http://www.w3.org/2000/svg" p-id="20699" xmlns:xlink="http://www.w3.org/1999/xlink" width="32" height="32"><defs><style type="text/css"></style></defs><path d="M808.407579 902.736842 673.684211 902.736842l-323.368421 0-134.723368 0c-14.901895 0-26.947368-12.058947-26.947368-26.933895l0-660.210526c0-14.901895 12.058947-26.947368 26.947368-26.947368L350.315789 188.645053l0-67.368421 323.368421 0 0 67.368421 134.723368 0c14.901895 0 26.960842 12.058947 26.960842 26.947368l0 660.210526C835.368421 890.677895 823.309474 902.736842 808.407579 902.736842L808.407579 902.736842zM498.526316 781.473684c0 7.437474 6.036211 13.473684 13.473684 13.473684s13.473684-6.036211 13.473684-13.473684l0-458.105263c0-7.437474-6.036211-13.473684-13.473684-13.473684s-13.473684 6.036211-13.473684 13.473684L498.526316 781.473684 498.526316 781.473684zM363.789474 323.368421c0-7.437474-6.036211-13.473684-13.473684-13.473684s-13.473684 6.036211-13.473684 13.473684l0 458.105263c0 7.437474 6.036211 13.473684 13.473684 13.473684s13.473684-6.036211 13.473684-13.473684L363.789474 323.368421 363.789474 323.368421zM633.276632 161.684211 390.736842 161.684211l0 26.947368 242.539789 0L633.276632 161.684211 633.276632 161.684211zM687.157895 323.368421c0-7.437474-6.036211-13.473684-13.473684-13.473684s-13.473684 6.036211-13.473684 13.473684l0 458.105263c0 7.437474 6.036211 13.473684 13.473684 13.473684s13.473684-6.036211 13.473684-13.473684L687.157895 323.368421 687.157895 323.368421z" p-id="20700" fill="#1d99f4"></path></svg>