<?xml version="1.0" standalone="no"?><!DOCTYPE svg PUBLIC "-//W3C//DTD SVG 1.1//EN" "http://www.w3.org/Graphics/SVG/1.1/DTD/svg11.dtd"><svg t="1504690120565" class="icon" style="" viewBox="0 0 1024 1024" version="1.1" xmlns="http://www.w3.org/2000/svg" p-id="3819" xmlns:xlink="http://www.w3.org/1999/xlink" width="32" height="32"><defs><style type="text/css"></style></defs><path d="M520.397 74.008C280.862 74.008 86 268.869 86 508.406c0 239.541 194.862 434.402 434.396 434.402 239.543 0 434.404-194.861 434.404-434.402C954.801 268.869 759.94 74.008 520.397 74.008zM520.397 880.474c-205.157 0-372.061-166.938-372.061-372.068 0-205.159 166.903-372.062 372.061-372.062 205.132 0 372.069 166.904 372.069 372.062C892.466 713.537 725.529 880.474 520.397 880.474z" p-id="3820" fill="#1B98F4"></path><path d="M524.03 553.788c-95.776 0-184.243 41.024-242.688 112.576-11.458 13.984-8.636 34.08 6.256 44.864s36.21 8.128 47.668-5.889c45.457-55.647 114.272-87.552 188.765-87.552 73.713 0 142.085 31.36 187.543 86.048 11.593 13.952 32.98 16.385 47.734 5.473 14.79-10.88 17.374-30.977 5.815-44.896C706.676 594.108 618.787 553.788 524.03 553.788z" p-id="3821" fill="#1B98F4"></path><path d="M356.01 477.714c26.496 0 48-21.504 48-48l0-64c0-26.527-21.473-48-48-48-26.528 0-48 21.473-48 48l0 64C308.01 456.242 329.482 477.714 356.01 477.714z" p-id="3822" fill="#1B98F4"></path><path d="M690.837 483.937c26.495 0 48-21.504 48-48l0-64c0-26.527-21.505-48-48-48-26.496 0-48 21.473-48 48l0 64C642.837 462.465 664.341 483.937 690.837 483.937z" p-id="3823" fill="#1B98F4"></path></svg>