<?xml version="1.0" standalone="no"?><!DOCTYPE svg PUBLIC "-//W3C//DTD SVG 1.1//EN" "http://www.w3.org/Graphics/SVG/1.1/DTD/svg11.dtd"><svg t="1496712511507" class="icon" style="" viewBox="0 0 1024 1024" version="1.1" xmlns="http://www.w3.org/2000/svg" p-id="3454" xmlns:xlink="http://www.w3.org/1999/xlink" width="64" height="64"><defs><style type="text/css"></style></defs><path d="M836.613192 212.888622c-9.733689-9.029654-22.552645-14.001899-35.787064-14.001899-1.207501 0-2.406816 0.051165-3.614317 0.12382-0.74292 0.052189-9.165754 0.547469-22.360264 0.547469-21.849634 0-64.504106-1.471514-104.909351-11.336186-52.18043-12.727882-112.411209-71.751161-129.947608-83.403548-8.821923-5.856381-18.995633-8.782014-29.164227-8.782014-10.140964 0-20.310581 2.925632-29.132504 8.754385-2.130524 1.430582-65.179488 68.396763-126.869502 83.431178-40.388872 9.864672-83.859943 11.336186-105.696274 11.336186-13.19144 0-21.61325-0.50756-22.441105-0.563842-1.13894-0.067538-2.294252-0.12382-3.449565-0.12382-13.258978 0-26.122961 5.004991-35.895535 14.058181-10.608615 9.842159-16.641005 23.596418-16.641005 38.027082l0 130.251529c0 481.520825 317.369208 543.543414 330.851267 545.949206 3.078105 0.547469 6.16849 0.807389 9.274224 0.807389 3.105734 0 6.227842-0.25992 9.277294-0.807389 13.483082-2.418073 333.186452-64.428382 333.186452-545.949206L853.294107 250.955612C853.294107 236.512668 847.234087 222.742037 836.613192 212.888622L836.613192 212.888622 836.613192 212.888622zM800.826128 381.218398c0 443.499883-289.995767 494.677473-289.995767 494.677473s-287.657512-51.17759-287.657512-494.677473L223.172849 250.966868c0 0 9.909697 0.687662 25.974581 0.687662 27.513634 0 73.810053-2.006703 118.183679-12.847609 72.658833-17.699104 143.499252-90.674139 143.499252-90.674139s73.990155 72.986291 146.580426 90.674139c44.425815 10.840906 89.914846 12.847609 117.456109 12.847609 16.021905 0 25.974581-0.687662 25.974581-0.687662L800.826128 381.218398 800.826128 381.218398 800.826128 381.218398zM673.955602 354.228697 470.705502 556.0124l-100.816127-100.099812c-12.519128-12.423961-32.833803-12.423961-45.336558 0-12.520151 12.435217-12.520151 32.581046 0 45.005007l117.592208 116.757191c1.375324 2.361791 3.082198 4.604878 5.112438 6.622838 6.459109 6.40385 14.982226 9.509585 23.448038 9.301853 8.462742 0.207731 16.984836-2.885723 23.443945-9.301853 2.034333-2.034333 3.737114-4.261047 5.112438-6.622838l220.031299-218.435964c12.519128-12.423961 12.519128-32.586163 0-45.010123C706.773032 341.777107 686.47473 341.777107 673.955602 354.228697L673.955602 354.228697 673.955602 354.228697zM673.955602 354.228697" p-id="3455" fill="#bebebe"></path></svg>