<?xml version="1.0" standalone="no"?><!DOCTYPE svg PUBLIC "-//W3C//DTD SVG 1.1//EN" "http://www.w3.org/Graphics/SVG/1.1/DTD/svg11.dtd"><svg t="1495013417452" class="icon" style="" viewBox="0 0 1024 1024" version="1.1" xmlns="http://www.w3.org/2000/svg" p-id="2081" xmlns:xlink="http://www.w3.org/1999/xlink" width="200" height="200"><defs><style type="text/css"></style></defs><path d="M516.224 343.722667c-93.056 0-168.746667 75.776-168.746667 168.789333 0 93.056 75.648 168.832 168.746667 168.832 93.013333 0 168.704-75.733333 168.704-168.832S609.237333 343.722667 516.224 343.722667zM516.224 643.754667c-72.490667 0-131.242667-58.752-131.242667-131.242667 0-72.533333 58.752-131.242667 131.242667-131.242667 72.533333 0 131.2 58.709333 131.2 131.242667C647.424 585.002667 588.757333 643.754667 516.224 643.754667z" p-id="2082"></path><path d="M905.685333 588.288c-41.642667-71.509333-16.554667-163.541333 55.978667-205.269333l17.834667-10.24-109.354667-188.373333-17.92 10.538667c-22.912 13.312-49.066667 20.437333-75.648 20.437333-83.157333 0-150.912-67.84-150.912-151.04L625.664 43.733333 406.912 43.776l0.170667 20.693333c0.170667 26.538667-6.784 52.650667-20.138667 75.562667-26.709333 46.08-76.842667 74.709333-130.730667 74.709333-26.581333 0-52.864-7.082667-76.032-20.309333l-17.92-10.282667L52.864 372.48l18.133333 10.197333c23.168 13.141333 42.368 32.085333 55.594667 54.997333 41.429333 71.296 16.469333 163.285333-55.637333 205.013333l-17.792 10.325333 109.312 188.202667 17.92-10.453333C203.093333 817.536 229.205333 810.666667 255.744 810.666667c82.816 0 150.4 67.328 150.784 150.229333L406.656 981.333333l218.581333 0-0.085333-20.565333c0-26.24 6.826667-52.096 20.096-74.922667 26.709333-45.994667 76.885333-74.666667 130.645333-74.666667 26.410667 0 52.522667 6.954667 75.690667 20.181333l17.92 10.24 109.312-188.330667-18.005333-10.24C937.898667 630.101333 918.826667 611.072 905.685333 588.288zM853.717333 786.432c-24.448-10.752-50.944-16.341333-77.781333-16.341333-68.565333 0-132.437333 36.48-166.485333 95.274667-13.312 23.04-21.76 48.597333-24.576 74.837333l-138.154667 0c-10.709333-95.786667-92.373333-170.709333-190.933333-170.794667-26.922667 0-53.376 5.674667-77.696 16.384l-69.034667-118.826667c78.208-57.088 102.613333-164.864 53.333333-249.770667C148.949333 393.984 130.730667 373.845333 108.970667 358.186667L178.005333 239.36C202.666667 250.24 229.333333 255.872 256.213333 255.872c68.693333 0 132.437333-36.437333 166.570667-95.146667 13.525333-23.253333 21.930667-49.152 24.661333-75.818667l137.898667 0c10.325333 96.298667 92.074667 171.605333 191.146667 171.605333 26.922667 0 53.589333-5.674667 77.994667-16.597333l69.077333 118.741333c-78.72 57.045333-103.168 165.034667-53.888 250.24 13.482667 23.082667 31.573333 43.093333 53.077333 58.581333L853.717333 786.432z" p-id="2083"></path></svg>