<?xml version="1.0" standalone="no"?><!DOCTYPE svg PUBLIC "-//W3C//DTD SVG 1.1//EN" "http://www.w3.org/Graphics/SVG/1.1/DTD/svg11.dtd"><svg t="1506753815751" class="icon" style="" viewBox="0 0 1024 1024" version="1.1" xmlns="http://www.w3.org/2000/svg" p-id="4233" xmlns:xlink="http://www.w3.org/1999/xlink" width="32" height="32"><defs><style type="text/css"></style></defs><path d="M1024 808.727273C1024 821.818182 1021.575758 838.909091 1016.727273 860 1011.878788 881.090909 1006.787879 897.696969 1001.454545 909.818182 991.272727 934.060606 961.696969 959.757576 912.727273 986.909091 867.151515 1011.636364 822.060606 1024 777.454545 1024 764.363636 1024 751.636364 1023.151515 739.272727 1021.454545 726.909091 1019.757576 712.969697 1016.727273 697.454545 1012.363636 681.939394 1008 670.424242 1004.484849 662.909091 1001.818182 655.39394 999.151515 641.939394 994.181818 622.545455 986.909091 603.151515 979.636364 591.272727 975.272727 586.909091 973.818182 539.39394 956.848485 496.969697 936.727273 459.636364 913.454545 397.575758 875.151515 333.454545 822.909091 267.272727 756.727273 201.090909 690.545455 148.848485 626.424242 110.545455 564.363636 87.272727 527.030303 67.151515 484.60606 50.181818 437.090909 48.727273 432.727273 44.363636 420.848485 37.090909 401.454545 29.818182 382.060606 24.848485 368.60606 22.181818 361.090909 19.515151 353.575758 16 342.060606 11.636364 326.545455 7.272727 311.030303 4.242424 297.090909 2.545455 284.727273 0.848485 272.363636 0 259.636364 0 246.545455 0 201.939394 12.363636 156.848485 37.090909 111.272727 64.242424 62.303031 89.939394 32.727273 114.181818 22.545455 126.303031 17.212121 142.909091 12.121212 164 7.272727 185.090909 2.424242 202.181818 0 215.272727 0 222.060606 0 227.151515 0.727273 230.545455 2.181818 239.272727 5.090909 252.121212 23.515151 269.090909 57.454545 274.424242 66.666667 281.696969 79.757576 290.909091 96.727273 300.121212 113.696969 308.60606 129.090909 316.363636 142.909091 324.121212 156.727273 331.636364 169.696969 338.909091 181.818182 340.363636 183.757576 344.60606 189.818182 351.636364 200 358.666667 210.181818 363.878788 218.787879 367.272727 225.818182 370.666667 232.848485 372.363636 239.757576 372.363636 246.545455 372.363636 256.242424 365.454545 268.363636 351.636364 282.909091 337.818182 297.454545 322.787879 310.787879 306.545455 322.909091 290.303031 335.030303 275.272727 347.878788 261.454545 361.454545 247.636364 375.030303 240.727273 386.181818 240.727273 394.909091 240.727273 399.272727 241.939394 404.727273 244.363636 411.272727 246.787879 417.818182 248.848485 422.787879 250.545455 426.181818 252.242424 429.575758 255.636364 435.39394 260.727273 443.636364 265.818182 451.878788 268.60606 456.484849 269.090909 457.454545 305.939394 523.878788 348.121212 580.848485 395.636364 628.363636 443.151515 675.878788 500.121212 718.060606 566.545455 754.909091 567.515151 755.39394 572.121212 758.181818 580.363636 763.272727 588.60606 768.363636 594.424242 771.757576 597.818182 773.454545 601.212121 775.151515 606.181818 777.212121 612.727273 779.636364 619.272727 782.060606 624.727273 783.272727 629.090909 783.272727 637.818182 783.272727 648.969697 776.363636 662.545455 762.545455 676.121212 748.727273 688.969697 733.696969 701.090909 717.454545 713.212121 701.212121 726.545455 686.181818 741.090909 672.363636 755.636364 658.545455 767.757576 651.636364 777.454545 651.636364 784.242424 651.636364 791.151515 653.333333 798.181818 656.727273 805.212121 660.121212 813.818182 665.333333 824 672.363636 834.181818 679.39394 840.242424 683.636364 842.181818 685.090909 854.303031 692.363636 867.272727 699.878788 881.090909 707.636364 894.909091 715.39394 910.303031 723.878788 927.272727 733.090909 944.242424 742.303031 957.333333 749.575758 966.545455 754.909091 1000.484849 771.878788 1018.909091 784.727273 1021.818182 793.454545 1023.272727 796.848485 1024 801.939394 1024 808.727273ZM1024 808.727273" p-id="4234" fill="#e4e4e4"></path></svg>