<?xml version="1.0" standalone="no"?><!DOCTYPE svg PUBLIC "-//W3C//DTD SVG 1.1//EN" "http://www.w3.org/Graphics/SVG/1.1/DTD/svg11.dtd"><svg t="1496658440995" class="icon" style="" viewBox="0 0 1024 1024" version="1.1" xmlns="http://www.w3.org/2000/svg" p-id="22206" xmlns:xlink="http://www.w3.org/1999/xlink" width="200" height="200"><defs><style type="text/css"></style></defs><path d="M640 128c0 25.6-17.066667 42.666667-42.666667 42.666667h-170.666666c-25.6 0-42.666667-17.066667-42.666667-42.666667s17.066667-42.666667 42.666667-42.666667h170.666666c25.6 0 42.666667 17.066667 42.666667 42.666667zM682.666667 405.333333c0 12.8-8.533333 21.333333-21.333334 21.333334h-298.666666c-12.8 0-21.333333-8.533333-21.333334-21.333334s8.533333-21.333333 21.333334-21.333333h298.666666c12.8 0 21.333333 8.533333 21.333334 21.333333zM682.666667 533.333333c0 12.8-8.533333 21.333333-21.333334 21.333334h-298.666666c-12.8 0-21.333333-8.533333-21.333334-21.333334s8.533333-21.333333 21.333334-21.333333h298.666666c12.8 0 21.333333 8.533333 21.333334 21.333333zM682.666667 661.333333c0 12.8-8.533333 21.333333-21.333334 21.333334h-298.666666c-12.8 0-21.333333-8.533333-21.333334-21.333334s8.533333-21.333333 21.333334-21.333333h298.666666c12.8 0 21.333333 8.533333 21.333334 21.333333zM682.666667 789.333333c0 12.8-8.533333 21.333333-21.333334 21.333334h-298.666666c-12.8 0-21.333333-8.533333-21.333334-21.333334s8.533333-21.333333 21.333334-21.333333h298.666666c12.8 0 21.333333 8.533333 21.333334 21.333333z" fill="" p-id="22207"></path><path d="M725.333333 128h-42.666666v42.666667h42.666666c25.6 0 42.666667 17.066667 42.666667 42.666666v640c0 25.6-17.066667 42.666667-42.666667 42.666667H298.666667c-25.6 0-42.666667-17.066667-42.666667-42.666667V213.333333c0-25.6 17.066667-42.666667 42.666667-42.666666h42.666666V128H298.666667c-46.933333 0-85.333333 38.4-85.333334 85.333333v640c0 46.933333 38.4 85.333333 85.333334 85.333334h426.666666c46.933333 0 85.333333-38.4 85.333334-85.333334V213.333333c0-46.933333-38.4-85.333333-85.333334-85.333333z" fill="" p-id="22208"></path></svg>