<?xml version="1.0" standalone="no"?><!DOCTYPE svg PUBLIC "-//W3C//DTD SVG 1.1//EN" "http://www.w3.org/Graphics/SVG/1.1/DTD/svg11.dtd"><svg t="1501056016349" class="icon" style="" viewBox="0 0 1024 1024" version="1.1" xmlns="http://www.w3.org/2000/svg" p-id="22181" xmlns:xlink="http://www.w3.org/1999/xlink" width="32" height="32"><defs><style type="text/css"></style></defs><path d="M518.284549 916.339451c-219.888941 0.150588-397.683451-177.643922-398.125176-398.105098-0.431686-219.527529 178.196078-398.325961 397.994667-398.386196 219.888941-0.050196 398.20549 178.286431 398.175373 398.20549C916.309333 738.143373 738.374275 916.188863 518.284549 916.339451zM518.354824 864.757961c192.793098-0.481882 346.624-156.069647 346.24251-347.105882-0.391529-194.058039-157.625725-346.533647-346.744471-345.98149-191.839373 0.562196-346.88502 156.069647-346.101961 347.226353C172.544 710.364863 328.031373 865.53098 518.354824 864.757961z" p-id="22182" fill="#bec6ce"></path><path d="M486.560627 433.814588c0-37.867922-0.090353-75.745882 0.040157-113.613804 0.070275-20.781176 16.153098-35.850039 35.950431-34.073098 15.942275 1.435608 28.511373 14.155294 29.685961 30.137725 0.210824 2.841098 0.301176 5.692235 0.311216 8.543373 0.020078 68.618039 0.060235 137.226039-0.090353 205.844078-0.010039 4.256627 1.40549 6.40502 5.009569 8.473098 43.52 24.987608 86.929569 50.165961 130.389333 75.243922 10.320314 5.953255 17.980235 13.974588 20.580392 25.951373 2.69051 12.428549-1.736784 22.558118-11.123451 30.418824-8.874667 7.42902-19.215059 9.075451-29.756235 4.055843-7.690039-3.664314-14.918275-8.312471-22.226824-12.719686-41.893647-25.268706-83.83749-50.447059-125.540392-76.016941-8.583529-5.260549-16.454275-11.755922-24.264784-18.17098-6.113882-5.029647-9.115608-11.635451-9.065412-19.978039C486.691137 509.871686 486.560627 471.843137 486.560627 433.814588z" p-id="22183" fill="#bec6ce"></path></svg>